<svg width="257" height="51" viewBox="0 0 257 51" fill="none" xmlns="http://www.w3.org/2000/svg">
<rect width="105" height="50" transform="translate(0 0.5)" fill="#FDFAFF"/>
<path d="M33.2643 50.5H20.8361C20.5181 50.5 20.1736 50.4647 19.8027 50.394C19.4405 50.3145 19.0783 50.1953 18.7162 50.0363C18.3628 49.8773 18.0228 49.6741 17.696 49.4268C17.3691 49.1706 17.0776 48.8659 16.8215 48.5126C16.5742 48.1504 16.3754 47.7352 16.2252 47.2671C16.0751 46.7901 16 46.2557 16 45.6639V36.3361C16 36.0181 16.0353 35.6781 16.106 35.3159C16.1855 34.9449 16.3047 34.5828 16.4637 34.2294C16.6227 33.8673 16.8303 33.5228 17.0865 33.196C17.3426 32.8691 17.6474 32.5821 18.0007 32.3347C18.3628 32.0786 18.778 31.8754 19.2462 31.7252C19.7143 31.5751 20.2443 31.5 20.8361 31.5H33.2643V34.9449H20.8361C20.3856 34.9449 20.0411 35.0642 19.8027 35.3026C19.5642 35.5411 19.4449 35.8945 19.4449 36.3626V45.6639C19.4449 46.1055 19.5642 46.45 19.8027 46.6974C20.05 46.9358 20.3945 47.0551 20.8361 47.0551H33.2643V50.5Z" fill="black"/>
<path d="M57.0029 37.8863C57.0029 38.6725 56.9058 39.3747 56.7114 39.993C56.5171 40.6113 56.2521 41.159 55.9164 41.636C55.5896 42.1041 55.2098 42.506 54.777 42.8417C54.3441 43.1774 53.8892 43.4556 53.4122 43.6764C52.9441 43.8884 52.4671 44.043 51.9813 44.1402C51.5043 44.2373 51.0538 44.2859 50.6298 44.2859L57.8244 50.5H52.498L45.3167 44.2859H42.839V40.841H50.6298C51.0626 40.8057 51.4557 40.7173 51.809 40.576C52.1712 40.4258 52.4804 40.2271 52.7365 39.9798C53.0015 39.7325 53.2047 39.4365 53.346 39.0921C53.4873 38.7387 53.558 38.3368 53.558 37.8863V35.7134C53.558 35.5191 53.5315 35.3733 53.4785 35.2762C53.4343 35.1702 53.3725 35.0951 53.293 35.0509C53.2223 34.9979 53.1428 34.967 53.0545 34.9582C52.975 34.9493 52.8999 34.9449 52.8293 34.9449H41.4611V50.5H38.0162V33.2357C38.0162 32.9972 38.0603 32.772 38.1486 32.56C38.237 32.348 38.3562 32.1625 38.5064 32.0035C38.6654 31.8445 38.8509 31.7208 39.0629 31.6325C39.2749 31.5442 39.5045 31.5 39.7518 31.5H52.8293C53.5977 31.5 54.247 31.6413 54.777 31.924C55.3069 32.1978 55.7354 32.5467 56.0622 32.9707C56.3978 33.3859 56.6363 33.8364 56.7777 34.3222C56.9278 34.808 57.0029 35.2629 57.0029 35.6869V37.8863Z" fill="black"/>
<path d="M80.5958 50.5H77.1508V45.8361H65.0407V50.5H61.5958V41C61.5958 39.6132 61.8343 38.3368 62.3112 37.1709C62.7882 36.0049 63.4507 35.0023 64.2987 34.1632C65.1467 33.324 66.1492 32.6704 67.3064 32.2022C68.4635 31.7341 69.7266 31.5 71.0958 31.5H78.8601C79.0985 31.5 79.3238 31.5442 79.5358 31.6325C79.7478 31.7208 79.9333 31.8445 80.0923 32.0035C80.2513 32.1625 80.3749 32.348 80.4633 32.56C80.5516 32.772 80.5958 32.9972 80.5958 33.2357V50.5ZM65.0407 42.3912H77.1508V34.9449H71.0958C70.9898 34.9449 70.7645 34.9626 70.42 34.9979C70.0844 35.0244 69.6913 35.0995 69.2408 35.2232C68.7992 35.3468 68.331 35.5367 67.8363 35.7929C67.3417 36.049 66.8868 36.4024 66.4716 36.8529C66.0565 37.3033 65.712 37.8687 65.4382 38.5488C65.1732 39.2201 65.0407 40.0372 65.0407 41V42.3912Z" fill="black"/>
<path d="M101.817 42.7357H90.9257V39.2643H101.817V42.7357ZM103.354 34.9449H89.5478V50.5H86.1029V33.2357C86.1029 32.9972 86.147 32.772 86.2353 32.56C86.3237 32.348 86.4429 32.1625 86.5931 32.0035C86.7521 31.8445 86.9376 31.7208 87.1496 31.6325C87.3616 31.5442 87.5912 31.5 87.8385 31.5H103.354V34.9449Z" fill="black"/>
<path d="M124.8 34.9449H117.208V50.5H113.763V34.9449H106.158V31.5H124.8V34.9449Z" fill="#FD2436"/>
<path d="M152.054 50.1133H139.84C139.528 50.1133 139.189 50.0786 138.825 50.0091C138.469 49.931 138.113 49.8138 137.757 49.6576C137.41 49.5013 137.076 49.3017 136.755 49.0586C136.433 48.8069 136.147 48.5074 135.895 48.1602C135.652 47.8043 135.457 47.3963 135.309 46.9362C135.162 46.4675 135.088 45.9423 135.088 45.3607V36.194C135.088 35.8815 135.123 35.5473 135.192 35.1914C135.27 34.8268 135.387 34.4709 135.544 34.1237C135.7 33.7678 135.904 33.4293 136.156 33.1081C136.407 32.7869 136.707 32.5048 137.054 32.2617C137.41 32.01 137.818 31.8103 138.278 31.6628C138.738 31.5152 139.259 31.4414 139.84 31.4414H152.054V34.8268H139.84C139.398 34.8268 139.059 34.944 138.825 35.1784C138.59 35.4128 138.473 35.76 138.473 36.2201V45.3607C138.473 45.7947 138.59 46.1333 138.825 46.3763C139.068 46.6107 139.406 46.7279 139.84 46.7279H152.054V50.1133Z" fill="#FD2436"/>
<path d="M235.338 42.3008C235.338 43.438 235.138 44.484 234.739 45.4388C234.348 46.3937 233.806 47.2183 233.111 47.9128C232.417 48.5985 231.592 49.1367 230.637 49.5274C229.683 49.918 228.645 50.1133 227.525 50.1133H218.385C218.142 50.1133 217.916 50.0699 217.708 49.9831C217.499 49.8963 217.317 49.7791 217.161 49.6315C217.013 49.4753 216.896 49.293 216.809 49.0847C216.722 48.8763 216.679 48.6506 216.679 48.4076V33.1472C216.679 32.9128 216.722 32.6914 216.809 32.4831C216.896 32.2748 217.013 32.0925 217.161 31.9362C217.317 31.78 217.499 31.6584 217.708 31.5716C217.916 31.4848 218.142 31.4414 218.385 31.4414H227.525C228.645 31.4414 229.683 31.6367 230.637 32.0274C231.592 32.418 232.417 32.9605 233.111 33.655C233.806 34.3407 234.348 35.1654 234.739 36.1289C235.138 37.0838 235.338 38.1255 235.338 39.2539V42.3008ZM231.952 39.2539C231.952 38.5942 231.844 37.9909 231.627 37.444C231.419 36.8972 231.119 36.4327 230.729 36.0508C230.338 35.6602 229.869 35.3607 229.322 35.1524C228.784 34.9353 228.185 34.8268 227.525 34.8268H220.064V46.7279H227.525C228.185 46.7279 228.784 46.6237 229.322 46.4154C229.869 46.1984 230.338 45.8989 230.729 45.5169C231.119 45.1263 231.419 44.6619 231.627 44.1237C231.844 43.5768 231.952 42.9692 231.952 42.3008V39.2539Z" fill="#FD2436"/>
<path d="M255.476 42.4831H244.786V39.0716H255.476V42.4831ZM257 50.1133H244.786C244.318 50.1133 243.805 50.0308 243.25 49.8659C242.694 49.701 242.178 49.4319 241.7 49.0586C241.232 48.6767 240.837 48.1862 240.515 47.5873C240.203 46.9796 240.047 46.2374 240.047 45.3607V33.1472C240.047 32.9128 240.09 32.6914 240.177 32.4831C240.264 32.2748 240.381 32.0925 240.529 31.9362C240.685 31.78 240.867 31.6584 241.075 31.5716C241.284 31.4848 241.509 31.4414 241.752 31.4414H257V34.8268H243.432V45.3607C243.432 45.8034 243.549 46.1419 243.784 46.3763C244.018 46.6107 244.361 46.7279 244.812 46.7279H257V50.1133Z" fill="#FD2436"/>
<path d="M170.526 31.4414L161.216 40.8808L170.526 50.1081H164.668L157.124 42.6131C156.656 42.1771 156.421 41.5997 156.421 40.8808C156.421 40.5508 156.478 40.2385 156.593 39.9439C156.718 39.6493 156.885 39.396 157.093 39.1838L164.731 31.4414H170.526Z" fill="#FD2436"/>
<path d="M195.088 31.4413L178.5 50.501H174.142L190.746 31.4413H195.088Z" fill="#FD2436"/>
<path d="M204.096 31.4414L211.75 39.1838C211.958 39.396 212.119 39.6493 212.234 39.9439C212.359 40.2385 212.421 40.5508 212.421 40.8808C212.421 41.2226 212.359 41.5466 212.234 41.853C212.109 42.1476 211.937 42.401 211.718 42.6131L204.159 50.1081H198.317L207.626 40.8808L198.317 31.4414H204.096Z" fill="#FD2436"/>
</svg>
