<svg width="512" height="512" viewBox="0 0 512 512" fill="none" xmlns="http://www.w3.org/2000/svg">
<circle cx="256" cy="256" r="256" fill="#FD2436"/>
<path d="M160 192.001L96.7757 255.896L160 320H120L68.7142 267.53C65.5011 264.602 63.8945 260.724 63.8945 255.896C63.8945 251.634 65.4668 247.526 68.5 244.5L120 192.001H160Z" fill="white"/>
<path d="M329.143 192L215.397 320H185.515L299.368 192H329.143Z" fill="white"/>
<path d="M392 192L443.395 244.604C446.352 247.554 448 251.845 448 256C448 260.348 446.354 264.619 443.18 267.634L392.057 320H352L415 256L352 192H392Z" fill="white"/>
</svg>
