<svg width="192" height="40" viewBox="0 0 192 40" fill="none" xmlns="http://www.w3.org/2000/svg">
<g style="mix-blend-mode:luminosity" opacity="0.7" clip-path="url(#clip0_408_25333)">
<path fill-rule="evenodd" clip-rule="evenodd" d="M106.821 8.7286V32.9332H125.046C131.859 32.9332 137.366 27.3471 137.366 20.7757C137.366 14.2041 131.859 8.7286 125.046 8.7286H106.821ZM145.201 20.7757C145.201 31.3447 136.287 39.9974 125.33 39.9974H99.1562V1.66406H125.33C136.287 1.66406 145.201 10.2073 145.201 20.7757Z" fill="#F3F3F3"/>
<mask id="mask0_408_25333" style="mask-type:alpha" maskUnits="userSpaceOnUse" x="0" y="0" width="192" height="40">
<path fill-rule="evenodd" clip-rule="evenodd" d="M0.246094 40H191.246V0H0.246094V40Z" fill="white"/>
</mask>
<g mask="url(#mask0_408_25333)">
<path fill-rule="evenodd" clip-rule="evenodd" d="M168.167 26.594H191.246V19.6212H168.167V26.594ZM171.665 40C156.881 40 145.201 32.8107 145.201 19.9997C145.201 7.83737 155.754 0 171.665 0C184.08 0 191.246 5.02712 191.246 5.02712V13.4587C191.246 13.4587 184.136 6.9728 171.384 6.9728C160.662 6.9728 153.158 11.1888 153.158 19.9453C153.158 27.8373 160.662 32.9722 171.384 32.9722C184.08 32.9722 191.246 26.594 191.246 26.594V35.1348C191.246 35.1348 183.515 40 171.665 40Z" fill="#F3F3F3"/>
<path fill-rule="evenodd" clip-rule="evenodd" d="M35.6807 30.2496H12.3993L8.45596 39.9974H0.246094L16.2892 1.66406H23.9057L15.2088 23.1849H32.764L23.9057 1.66406H31.6301L47.9961 39.9974H39.6782L35.6807 30.2496Z" fill="#F3F3F3"/>
<path fill-rule="evenodd" clip-rule="evenodd" d="M86.6427 39.9974H94.0402V1.66406H86.6427V39.9974ZM72.7778 30.4139H80.1212L86.6427 1.66406H79.3542L72.7778 30.4139ZM72.7778 30.4139H65.3249L58.8037 1.66406H66.256L72.7778 30.4139ZM51.4062 39.9974H58.8037V1.66406H51.4062V39.9974Z" fill="#F3F3F3"/>
</g>
</g>
<defs>
<clipPath id="clip0_408_25333">
<rect width="191" height="40" fill="white" transform="translate(0.285156)"/>
</clipPath>
</defs>
</svg>
