<svg width="279" height="53" viewBox="0 0 279 53" fill="none" xmlns="http://www.w3.org/2000/svg">
<g style="mix-blend-mode:luminosity" opacity="0.7" clip-path="url(#clip0_408_25413)">
<path d="M76.9284 11.2341C66.7423 11.2341 61.2559 17.0138 61.2559 27.2096C61.2559 37.4054 66.7423 43.185 76.6466 43.185C83.1543 43.185 88.4136 39.8974 90.5073 33.2126H83.7177C82.4147 35.4774 80.5481 36.8959 76.6466 36.8959C70.8197 36.8959 68.4993 33.7808 68.4993 27.2645V27.096C68.4993 20.5796 70.8197 17.5232 76.9284 17.5232C80.5481 17.5232 82.4147 18.7693 83.7177 20.9244H90.5073C88.4136 14.4668 83.436 11.238 76.9284 11.238V11.2341ZM148.219 30.1013C148.219 34.6349 150.482 36.8999 155.009 36.8999C159.537 36.8999 161.798 34.6349 161.798 30.1013V11.912H168.928V42.5072H162.253V37.9734C160.386 41.2023 157.33 43.185 152.239 43.185C144.995 43.185 141.094 39.2196 141.094 31.2886V11.912H148.224V30.0975L148.219 30.1013ZM257.586 30.1013C257.586 34.6349 259.848 36.8999 264.377 36.8999C268.904 36.8999 271.166 34.6349 271.166 30.1013V11.912H278.296V42.5072H271.619V37.9734C269.752 41.2023 266.696 43.185 261.605 43.185C254.363 43.185 250.461 39.2196 250.461 31.2886V11.912H257.59V30.0975L257.586 30.1013ZM189.297 36.8999C195.409 36.8999 197.785 33.7846 197.785 27.2683V27.0998C197.785 20.5835 195.409 17.582 189.297 17.582C183.184 17.582 180.809 20.5835 180.809 27.0998V27.2683C180.809 33.7846 183.184 36.8999 189.297 36.8999ZM204.684 0.015625V42.5072H197.894V37.9734C195.969 41.0338 193.03 43.185 187.994 43.185C178.375 43.185 173.566 36.5002 173.566 27.6602C173.566 17.9738 178.375 11.289 187.994 11.289C192.181 11.289 196.196 13.3305 197.554 16.0499V0.015625H204.684ZM93.2777 42.5072H100.408V0.015625H93.2777V42.5072ZM120.776 43.189C111.044 43.189 104.935 37.1271 104.935 27.2134C104.935 17.2998 111.048 11.238 120.776 11.238C130.504 11.238 136.617 17.2998 136.617 27.2134C136.617 37.1271 130.504 43.189 120.776 43.189ZM112.175 27.2683C112.175 33.7846 114.55 36.8999 120.776 36.8999C127.002 36.8999 129.377 33.7846 129.377 27.2683V27.0998C129.377 20.5835 127.002 17.5271 120.776 17.5271C114.55 17.5271 112.175 20.5874 112.175 27.0998V27.2683ZM243.496 11.9159H246.893V18.7144H241.8C237.273 18.7144 235.746 20.8108 235.746 24.2081V42.5072H228.617V11.8571H235.406V17.5232C236.764 13.6126 239.479 11.9159 243.498 11.9159H243.496ZM216.619 43.189C219.73 43.189 221.71 41.3199 221.71 38.1459C221.71 34.9719 219.73 33.1028 216.619 33.1028C213.508 33.1028 211.528 34.9719 211.528 38.1459C211.528 41.3199 213.508 43.189 216.619 43.189Z" fill="#F3F3F3"/>
<path d="M24.1818 28.2637H46.5106V42.5072L24.1818 51.9233V28.2637ZM46.5106 26.1556V11.9121L24.1818 2.49609V26.1556H46.5106ZM-0.499023 11.9121V42.5072L21.8299 51.9233V2.49609L-0.499023 11.9121Z" fill="#F3F3F3"/>
</g>
<defs>
<clipPath id="clip0_408_25413">
<rect width="279" height="52" fill="white" transform="translate(0 0.015625)"/>
</clipPath>
</defs>
</svg>
