<svg width="270" height="58" viewBox="0 0 270 58" fill="none" xmlns="http://www.w3.org/2000/svg">
<g opacity="0.7">
<path d="M93.0197 29.5042C97.911 29.5042 101.112 26.6957 101.112 22.1628C101.112 17.6291 97.911 14.8215 93.0197 14.8215H87.8118V29.5042H93.0197ZM82.1123 10.3218H93.3009C101.359 10.3218 106.883 14.9907 106.883 22.1628C106.883 29.335 101.359 34.0039 93.3009 34.0039H82.1123V10.3218Z" fill="#F3F3F3"/>
<path d="M128.765 24.7681L124.859 15.7007L120.954 24.7681H128.765ZM130.56 28.9294H119.124L116.943 34.0039H111.102L122.08 10.3226H127.709L138.723 34.0039H132.741L130.56 28.9294Z" fill="#F3F3F3"/>
<path d="M155.117 25.6133V34.0039H149.417V25.5461L139.882 10.3218H145.933L152.514 20.8432L159.093 10.3218H164.687L155.117 25.6133Z" fill="#F3F3F3"/>
<path d="M192.94 10.3226V34.0039H188.26L175.98 19.6265V34.0039H170.351V10.3226H175.066L187.31 24.701V10.3226H192.94Z" fill="#F3F3F3"/>
<path d="M221.368 29.6062V34.0039H202.297V10.3226H220.91V14.7212H207.962V19.8628H219.397V24.1253H207.962V29.6062H221.368Z" fill="#F3F3F3"/>
<path d="M234.525 14.7875H226.644V10.3218H248.106V14.7875H240.225V34.0039H234.525V14.7875Z" fill="#F3F3F3"/>
<path d="M85.787 49.6659C86.5344 49.6659 87.1295 49.3999 87.5722 48.8687C88.0149 48.3366 88.2353 47.6554 88.2353 46.8251C88.2353 45.9956 88.0149 45.3162 87.5722 44.7894C87.1295 44.2634 86.5344 44 85.787 44C85.3334 44 84.8943 44.1134 84.4671 44.3419C84.0407 44.5696 83.7223 44.8452 83.5119 45.1697V48.4814C83.7223 48.8155 84.0407 49.0963 84.4671 49.324C84.8943 49.5525 85.3334 49.6659 85.787 49.6659ZM86.0872 50.6837C85.0123 50.6837 84.1541 50.2537 83.5119 49.3929V53.2969H82.3271V43.1645H83.5119V44.2582C83.7958 43.8736 84.165 43.5639 84.6177 43.331C85.0703 43.0982 85.5602 42.9822 86.0872 42.9822C87.0978 42.9822 87.9169 43.3293 88.5438 44.0227C89.1706 44.7161 89.4835 45.6502 89.4835 46.8251C89.4835 48 89.1706 48.9367 88.5438 49.6354C87.9169 50.3349 87.0978 50.6837 86.0872 50.6837Z" fill="#F3F3F3"/>
<path d="M97.9675 46.3697C97.9566 45.7417 97.7361 45.1774 97.3043 44.6758C96.8716 44.1743 96.2557 43.924 95.4556 43.924C94.6972 43.924 94.0994 44.1717 93.6622 44.668C93.2249 45.1643 92.9909 45.7321 92.9592 46.3697H97.9675ZM95.598 50.6836C94.4605 50.6836 93.5279 50.3269 92.8013 49.6125C92.0747 48.8991 91.7109 47.9702 91.7109 46.825C91.7109 45.7521 92.0693 44.8433 92.7859 44.0984C93.5016 43.3544 94.397 42.982 95.4719 42.982C96.5986 42.982 97.4912 43.3544 98.1498 44.0984C98.8075 44.8433 99.1368 45.7827 99.1368 46.9165V47.2052H92.9592C93.0118 47.9239 93.2857 48.5266 93.781 49.0124C94.2763 49.4991 94.9186 49.7425 95.7087 49.7425C96.6566 49.7425 97.4404 49.4329 98.0618 48.8153L98.6315 49.5602C97.8522 50.3094 96.8408 50.6836 95.598 50.6836Z" fill="#F3F3F3"/>
<path d="M108.19 50.5039H107.005V44.1691H103.024V50.5039H101.839V43.1669H108.19V50.5039Z" fill="#F3F3F3"/>
<path d="M110.922 53.3741L111.112 52.3414C111.301 52.4225 111.517 52.4626 111.759 52.4626C112.033 52.4626 112.26 52.4068 112.439 52.296C112.618 52.1844 112.771 51.982 112.897 51.6881L113.402 50.5786L110.211 43.1658H111.491L114.035 49.1814L116.563 43.1658H117.858L114.035 51.9925C113.614 52.9641 112.865 53.4604 111.791 53.4805C111.475 53.4805 111.185 53.4456 110.922 53.3741Z" fill="#F3F3F3"/>
<path d="M122.456 50.5039H121.271V44.1691H119.059V43.1669H124.684V44.1691H122.456V50.5039Z" fill="#F3F3F3"/>
<path d="M129.692 49.8637C130.64 49.8637 131.34 49.5602 131.793 48.9523V47.5698C131.34 46.9619 130.64 46.6584 129.692 46.6584C129.144 46.6584 128.694 46.8084 128.341 47.1067C127.988 47.4058 127.812 47.7922 127.812 48.2685C127.812 48.7351 127.988 49.1171 128.341 49.4154C128.694 49.7146 129.144 49.8637 129.692 49.8637ZM132.978 50.5013H131.793V49.6657C131.15 50.3452 130.308 50.6836 129.265 50.6836C128.56 50.6836 127.938 50.4664 127.401 50.0303C126.863 49.5951 126.595 49.0029 126.595 48.2536C126.595 47.4835 126.861 46.8886 127.393 46.4682C127.925 46.0478 128.549 45.8385 129.265 45.8385C130.35 45.8385 131.193 46.1725 131.793 46.8407V45.5193C131.793 45.0326 131.614 44.6532 131.256 44.3793C130.898 44.1063 130.435 43.9694 129.866 43.9694C128.971 43.9694 128.191 44.3086 127.527 44.9872L126.974 44.197C127.785 43.3876 128.802 42.982 130.024 42.982C130.898 42.982 131.608 43.1852 132.156 43.5899C132.704 43.9946 132.978 44.6174 132.978 45.4582V50.5013Z" fill="#F3F3F3"/>
<path d="M142.188 52.3711V50.5028H136.138V43.1658H137.322V49.4998H141.304V43.1658H142.489V49.4998H143.374V52.3711H142.188Z" fill="#F3F3F3"/>
<path d="M146.929 50.5039H145.791V43.1669H146.976V48.7726L150.973 43.1669H152.143V50.5039H150.957V44.7918L146.929 50.5039Z" fill="#F3F3F3"/>
<path d="M156.779 48.838C157.237 49.3901 157.856 49.6657 158.635 49.6657C159.415 49.6657 160.031 49.3901 160.484 48.838C160.936 48.2859 161.163 47.6152 161.163 46.825C161.163 46.0356 160.936 45.3675 160.484 44.8206C160.031 44.2738 159.415 43.9999 158.635 43.9999C157.856 43.9999 157.237 44.2764 156.779 44.8276C156.321 45.3797 156.092 46.0452 156.092 46.825C156.092 47.6152 156.321 48.2859 156.779 48.838ZM161.376 49.575C160.687 50.3138 159.773 50.6836 158.635 50.6836C157.497 50.6836 156.584 50.3138 155.894 49.575C155.204 48.8363 154.859 47.9187 154.859 46.825C154.859 45.7312 155.204 44.818 155.894 44.0836C156.584 43.3492 157.497 42.982 158.635 42.982C159.773 42.982 160.687 43.3492 161.376 44.0836C162.067 44.818 162.411 45.7312 162.411 46.825C162.411 47.9187 162.067 48.8363 161.376 49.575Z" fill="#F3F3F3"/>
<path d="M166.314 50.5039H165.129V43.1669H166.314V46.2196H170.295V43.1669H171.48V50.5039H170.295V47.2227H166.314V50.5039Z" fill="#F3F3F3"/>
<path d="M175.824 50.5039H174.64V43.1669H175.824V46.2196H179.806V43.1669H180.991V50.5039H179.806V47.2227H175.824V50.5039Z" fill="#F3F3F3"/>
<path d="M185.628 48.838C186.087 49.3901 186.705 49.6657 187.484 49.6657C188.265 49.6657 188.881 49.3901 189.333 48.838C189.786 48.2859 190.013 47.6152 190.013 46.825C190.013 46.0356 189.786 45.3675 189.333 44.8206C188.881 44.2738 188.265 43.9999 187.484 43.9999C186.705 43.9999 186.087 44.2764 185.628 44.8276C185.17 45.3797 184.942 46.0452 184.942 46.825C184.942 47.6152 185.17 48.2859 185.628 48.838ZM190.226 49.575C189.536 50.3138 188.623 50.6836 187.484 50.6836C186.347 50.6836 185.433 50.3138 184.744 49.575C184.054 48.8363 183.709 47.9187 183.709 46.825C183.709 45.7312 184.054 44.818 184.744 44.0836C185.433 43.3492 186.347 42.982 187.484 42.982C188.623 42.982 189.536 43.3492 190.226 44.0836C190.916 44.818 191.261 45.7312 191.261 46.825C191.261 47.9187 190.916 48.8363 190.226 49.575Z" fill="#F3F3F3"/>
<path d="M199.792 46.3697C199.781 45.7417 199.56 45.1774 199.129 44.6758C198.696 44.1743 198.08 43.924 197.28 43.924C196.521 43.924 195.924 44.1717 195.486 44.668C195.049 45.1643 194.815 45.7321 194.783 46.3697H199.792ZM197.422 50.6836C196.285 50.6836 195.352 50.3269 194.626 49.6125C193.899 48.8991 193.535 47.9702 193.535 46.825C193.535 45.7521 193.893 44.8433 194.61 44.0984C195.326 43.3544 196.221 42.982 197.296 42.982C198.423 42.982 199.315 43.3544 199.974 44.0984C200.632 44.8433 200.961 45.7827 200.961 46.9165V47.2052H194.783C194.836 47.9239 195.11 48.5266 195.605 49.0124C196.101 49.4991 196.743 49.7425 197.533 49.7425C198.481 49.7425 199.265 49.4329 199.886 48.8153L200.456 49.5602C199.676 50.3094 198.665 50.6836 197.422 50.6836Z" fill="#F3F3F3"/>
<path d="M210.005 48.838C210.464 49.3901 211.082 49.6657 211.861 49.6657C212.642 49.6657 213.258 49.3901 213.71 48.838C214.163 48.2859 214.39 47.6099 214.39 46.8101C214.39 46.0304 214.163 45.3675 213.71 44.8206C213.258 44.2738 212.642 43.9999 211.861 43.9999C211.082 43.9999 210.464 44.2738 210.005 44.8206C209.547 45.3675 209.319 46.0304 209.319 46.8101C209.319 47.6099 209.547 48.2859 210.005 48.838ZM211.861 50.6836C210.714 50.6836 209.798 50.2937 209.113 49.514C208.428 48.7342 208.086 47.7268 208.086 46.4909C208.086 44.75 208.413 43.46 209.066 42.6253C209.719 41.7897 210.724 41.2856 212.084 41.1137C212.895 40.9916 213.455 40.8756 213.766 40.764C214.077 40.6532 214.232 40.5206 214.232 40.3698H215.386C215.386 40.6532 215.296 40.8983 215.116 41.1059C214.938 41.3135 214.682 41.4783 214.351 41.5996C214.019 41.7208 213.708 41.815 213.418 41.8804C213.128 41.9467 212.784 42.0051 212.383 42.0557C211.33 42.197 210.569 42.4761 210.1 42.8913C209.632 43.3065 209.323 43.8586 209.176 44.5468C209.871 43.5036 210.83 42.982 212.051 42.982C213.105 42.982 213.963 43.3518 214.626 44.0915C215.29 44.8302 215.622 45.7364 215.622 46.8101C215.622 47.9039 215.28 48.8232 214.596 49.5672C213.911 50.3112 213 50.6836 211.861 50.6836Z" fill="#F3F3F3"/>
<path d="M224.834 49.6696C225.624 49.6696 226.245 49.394 226.698 48.8419C227.15 48.2898 227.377 47.6191 227.377 46.8289C227.377 46.0386 227.15 45.3705 226.698 44.8237C226.245 44.2768 225.624 44.0038 224.834 44.0038C224.064 44.0038 223.451 44.2794 222.993 44.8315C222.535 45.3836 222.305 46.0491 222.305 46.8289C222.305 47.6191 222.532 48.2898 222.985 48.8419C223.437 49.394 224.054 49.6696 224.834 49.6696ZM224.834 50.6875C223.78 50.6875 222.914 50.3604 222.235 49.7071C221.555 49.0547 221.173 48.227 221.09 47.224H219.619V50.5052H218.435V43.1682H219.619V46.2209H221.105C221.231 45.2798 221.629 44.5053 222.298 43.8974C222.967 43.2894 223.812 42.9859 224.834 42.9859C225.971 42.9859 226.887 43.3531 227.583 44.0875C228.278 44.821 228.625 45.7351 228.625 46.8289C228.625 47.9226 228.278 48.8393 227.583 49.5789C226.887 50.3177 225.971 50.6875 224.834 50.6875Z" fill="#F3F3F3"/>
<path d="M234.803 49.6659C235.55 49.6659 236.145 49.3999 236.588 48.8687C237.031 48.3366 237.251 47.6554 237.251 46.8251C237.251 45.9956 237.031 45.3162 236.588 44.7894C236.145 44.2634 235.55 44 234.803 44C234.349 44 233.91 44.1134 233.483 44.3419C233.056 44.5696 232.738 44.8452 232.527 45.1697V48.4814C232.738 48.8155 233.056 49.0963 233.483 49.324C233.91 49.5525 234.349 49.6659 234.803 49.6659ZM235.103 50.6837C234.028 50.6837 233.17 50.2537 232.527 49.3929V53.2969H231.343V43.1645H232.527V44.2582C232.811 43.8736 233.181 43.5639 233.633 43.331C234.086 43.0982 234.576 42.9822 235.103 42.9822C236.113 42.9822 236.933 43.3293 237.559 44.0227C238.186 44.7161 238.499 45.6502 238.499 46.8251C238.499 48 238.186 48.9367 237.559 49.6354C236.933 50.3349 236.113 50.6837 235.103 50.6837Z" fill="#F3F3F3"/>
<path d="M242.646 48.838C243.104 49.3901 243.723 49.6657 244.502 49.6657C245.282 49.6657 245.898 49.3901 246.351 48.838C246.803 48.2859 247.03 47.6152 247.03 46.825C247.03 46.0356 246.803 45.3675 246.351 44.8206C245.898 44.2738 245.282 43.9999 244.502 43.9999C243.723 43.9999 243.104 44.2764 242.646 44.8276C242.188 45.3797 241.959 46.0452 241.959 46.825C241.959 47.6152 242.188 48.2859 242.646 48.838ZM247.243 49.575C246.554 50.3138 245.641 50.6836 244.502 50.6836C243.365 50.6836 242.451 50.3138 241.762 49.575C241.071 48.8363 240.727 47.9187 240.727 46.825C240.727 45.7312 241.071 44.818 241.762 44.0836C242.451 43.3492 243.365 42.982 244.502 42.982C245.641 42.982 246.554 43.3492 247.243 44.0836C247.934 44.818 248.278 45.7312 248.278 46.825C248.278 47.9187 247.934 48.8363 247.243 49.575Z" fill="#F3F3F3"/>
<path d="M22.0166 32.3694C22.0166 44.3029 32.0786 53.9766 44.4891 53.9766C56.9005 53.9766 66.9625 44.3029 66.9625 32.3694C66.9625 25.3316 63.4609 19.0796 58.0426 15.1346V44.7879H54.5374V40.7653C53.2067 42.2611 51.7044 43.4107 50.0689 44.1869C48.3399 45.0059 46.4222 45.422 44.3712 45.422C40.7245 45.422 37.5676 44.1337 34.9877 41.5912C32.4078 39.0514 31.0998 35.9175 31.0998 32.277C31.0998 28.7122 32.4205 25.6203 35.024 23.0865C37.6275 20.5519 40.8043 19.268 44.4655 19.268C46.58 19.268 48.5222 19.7067 50.2358 20.5728C51.8496 21.3875 53.2956 22.6016 54.5374 24.1829V13.0396C51.5139 11.583 48.1022 10.7631 44.4891 10.7631C32.0786 10.7631 22.0166 20.4359 22.0166 32.3694Z" fill="#F3F3F3"/>
<path d="M39.7183 23.8551C38.1925 24.7064 36.9606 25.9214 36.0589 27.4626C35.1554 29.0064 34.6982 30.6601 34.6982 32.3801C34.6982 34.0861 35.16 35.7398 36.0707 37.2967C36.9797 38.8536 38.2188 40.0834 39.7528 40.9504C41.2868 41.8182 42.955 42.2578 44.7121 42.2578C46.4865 42.2578 48.191 41.8208 49.7794 40.9608C51.3669 40.1008 52.6051 38.9225 53.4605 37.4554C54.316 35.9875 54.7505 34.3111 54.7505 32.4708C54.7505 29.6666 53.7762 27.2899 51.8567 25.4068C49.9372 23.5254 47.5415 22.5704 44.7366 22.5704C42.9323 22.5704 41.2441 23.003 39.7183 23.8551Z" fill="#F3F3F3"/>
<path d="M51.3217 12.735C50.8101 12.8676 50.313 13.0516 49.8077 13.2165C49.5583 13.3072 49.3115 13.4084 49.063 13.5061L48.691 13.6535L48.3255 13.8183C45.1913 15.2034 42.3257 17.3246 40.0479 19.9708C41.4276 19.5051 42.9026 19.2687 44.4656 19.2687C46.5801 19.2687 48.5223 19.7074 50.2359 20.5735C51.8497 21.3882 53.2957 22.6023 54.5375 24.1836V13.0403C54.0087 12.7856 53.468 12.5519 52.9165 12.3364C52.3831 12.4481 51.8497 12.5772 51.3217 12.735Z" fill="#F3F3F3"/>
<path d="M58.0427 44.7886H54.5375V40.766C53.2068 42.2618 51.7046 43.4114 50.069 44.1876C48.34 45.0066 46.4223 45.4227 44.3713 45.4227C41.4077 45.4227 38.7661 44.5714 36.4964 42.8872C36.4547 42.8819 36.4139 42.8776 36.373 42.8715C36.9355 44.2243 37.6249 45.5239 38.4386 46.7415C39.0509 47.6468 39.7113 48.5208 40.4443 49.331C41.1809 50.137 41.9574 50.9071 42.7965 51.6014C43.8524 52.4736 44.9836 53.2507 46.1674 53.918C50.8274 53.5874 55.0918 51.8892 58.5298 49.2412C58.6986 48.7031 58.8473 48.1614 58.9689 47.6119C59.2057 46.5408 59.3671 45.4576 59.4334 44.3725C59.4932 43.2875 59.495 42.2042 59.398 41.134C59.2955 40.0639 59.1394 39.0041 58.8873 37.9714C58.6632 37.0338 58.3784 36.118 58.0427 35.2249V44.7886Z" fill="#F3F3F3"/>
<path d="M34.8496 32.4141C34.8496 37.8506 39.3617 42.2578 44.9288 42.2578C50.4941 42.2578 55.0062 37.8506 55.0062 32.4141C55.0062 26.9776 50.4941 22.5704 44.9288 22.5704C39.3617 22.5704 34.8496 26.9776 34.8496 32.4141Z" fill="#F3F3F3"/>
<path d="M62.1628 26.6763C62.0268 27.1761 61.8363 27.661 61.6666 28.1547C61.5723 28.3989 61.4689 28.6396 61.37 28.883L61.2185 29.2484L61.0498 29.606C60.3059 31.2231 59.3407 32.7747 58.1914 34.2165C58.6658 35.3983 59.0432 36.6264 59.3063 37.8859C59.5312 38.9447 59.6564 40.0254 59.7272 41.113C59.7916 42.2015 59.7589 43.297 59.6664 44.3899C59.5703 45.4845 59.3652 46.5696 59.1194 47.6459C59.0033 48.136 58.8645 48.621 58.7103 49.1016C62.6454 46.0061 65.4675 41.6538 66.5144 36.6822C66.4364 35.5405 66.2568 33.9418 65.7388 31.9906C65.1963 29.9218 64.2656 27.443 62.6146 24.9022C62.4903 25.4953 62.347 26.0893 62.1628 26.6763Z" fill="#F3F3F3"/>
<path d="M63.0976 20.3506L63.0894 20.7195C63.0822 20.9646 63.0758 21.2097 63.0686 21.4556C63.0586 21.7016 63.0314 21.9511 63.0132 22.1988C62.9851 22.6985 62.9053 23.1931 62.84 23.6937C62.7874 24.0147 62.7266 24.3374 62.6631 24.6593C62.6776 24.6793 62.693 24.6985 62.7066 24.7177C63.6083 25.9772 64.3395 27.2323 64.9146 28.4394C65.0706 28.7351 65.1922 29.0395 65.3228 29.3317C65.4516 29.6256 65.5832 29.9117 65.6848 30.1995C65.7936 30.4856 65.8997 30.7664 66.0023 31.0394C66.0921 31.3159 66.1801 31.5872 66.2653 31.8506C66.5375 32.7167 66.7325 33.5148 66.8786 34.2422C66.933 33.6255 66.962 33.0019 66.962 32.3713C66.962 27.8803 65.5342 23.7112 63.0949 20.2555L63.0976 20.3506Z" fill="#F3F3F3"/>
<path d="M29.134 48.1424C33.1517 51.7603 38.551 53.9766 44.4891 53.9766C44.9545 53.9766 45.4162 53.9617 45.8743 53.9356C45.6983 53.8379 45.5223 53.7411 45.3491 53.6399C44.3993 53.0991 43.5094 52.4554 42.6313 51.7899C41.9165 51.2396 41.2407 50.6351 40.5921 50.0002C40.5694 50.0002 40.5476 49.9993 40.5258 50.0019C40.3734 50.001 40.2374 49.9941 40.0922 49.9906C39.8056 49.9819 39.518 49.9731 39.2304 49.9644C38.942 49.9522 38.6499 49.9217 38.3587 49.9016C37.7727 49.8676 37.1939 49.7778 36.6097 49.7062C35.4459 49.5205 34.2784 49.278 33.1318 48.93C32.5521 48.7756 31.9897 48.5628 31.4173 48.3726C31.1361 48.2662 30.8567 48.1511 30.5755 48.0412L30.1527 47.8729L29.74 47.6853C29.3263 47.5039 28.9181 47.3077 28.5117 47.1036C28.7122 47.4551 28.919 47.8005 29.134 48.1424Z" fill="#F3F3F3"/>
<path d="M27.1959 46.1602C26.6934 45.0769 26.2806 43.9535 25.9395 42.8109C25.5848 41.5994 25.3472 40.3574 25.1739 39.111C25.1331 38.7857 25.0986 38.4595 25.0714 38.1341C24.0627 37.3535 23.1247 36.5031 22.2656 35.5943C22.8861 39.5767 24.6405 43.2008 27.1959 46.1602Z" fill="#F3F3F3"/>
<path d="M28.4698 47.0309C28.8989 47.2402 29.3334 47.4365 29.7761 47.6092L30.1943 47.7836L30.6197 47.9371C30.9037 48.0383 31.1849 48.1456 31.4688 48.2415C32.0439 48.4142 32.6091 48.6079 33.1897 48.7431C34.3363 49.057 35.502 49.2489 36.654 49.4138C37.2328 49.4792 37.8079 49.5594 38.3821 49.5856C38.6688 49.603 38.9527 49.6301 39.2394 49.6379C39.5278 49.644 39.8154 49.6484 40.102 49.6536C40.1483 49.6545 40.1955 49.6554 40.2436 49.6562C40.2163 49.6301 40.1882 49.6039 40.1619 49.576C39.3854 48.7797 38.6797 47.9145 38.0183 47.0126C37.0668 45.6991 36.2766 44.2678 35.6453 42.7658C35.6426 42.7658 35.6407 42.7658 35.6389 42.7649C34.4869 42.5556 33.3439 42.2983 32.2399 41.9285C31.1386 41.5561 30.06 41.1304 29.0332 40.6141C28.009 40.0951 27.0166 39.5264 26.0868 38.8793C25.8781 38.7336 25.6768 38.5792 25.4727 38.4283C25.9362 41.4593 26.9767 44.382 28.4698 47.0309Z" fill="#F3F3F3"/>
<path d="M29.6301 21.11C29.5911 21.1658 29.5493 21.219 29.5112 21.2748C28.9869 22.0197 28.5143 22.7986 28.0798 23.5993C27.9201 23.8958 27.7641 24.1932 27.6135 24.4933C27.4139 24.8936 27.2325 25.3027 27.0583 25.7144C26.7481 26.4522 26.4714 27.205 26.2283 27.9681C25.85 29.1587 25.596 30.385 25.4128 31.6192C25.2341 32.8551 25.1933 34.1015 25.2023 35.3479C25.2187 36.1991 25.2867 37.0461 25.3956 37.886C25.7067 38.1032 26.0215 38.316 26.3417 38.5218C29.0259 40.2218 32.1011 41.3495 35.2834 41.8711C35.1845 41.7795 35.0856 41.6888 34.9885 41.5929C32.4086 39.053 31.1005 35.9192 31.1005 32.2786C31.1005 28.7139 32.4213 25.6219 35.0248 23.0881C36.186 21.9569 37.4641 21.0768 38.8475 20.4462C38.5064 20.4052 38.169 20.3686 37.8324 20.3416C37.2065 20.2927 36.5878 20.27 35.98 20.27C33.6904 20.27 31.5441 20.5954 29.6301 21.11Z" fill="#F3F3F3"/>
<path d="M28.5942 21.4115C27.2689 21.8328 26.0642 22.3343 24.9993 22.8864C24.7271 23.0138 24.4749 23.1647 24.2228 23.3025C24.1602 23.3374 24.0994 23.3714 24.0368 23.4054C22.7396 26.1363 22.0166 29.1715 22.0166 32.3699C22.0166 33.3241 22.0819 34.2652 22.2071 35.1863C22.6734 35.6616 23.1623 36.1187 23.6676 36.56C24.1066 36.9359 24.5657 37.2918 25.0365 37.6328C24.9866 36.8714 24.9648 36.1082 24.973 35.3468C25.0147 34.0943 25.1335 32.8418 25.334 31.6067C25.3803 31.298 25.4519 30.9927 25.51 30.6848L25.6016 30.2252L25.7168 29.7699C25.7939 29.4672 25.8583 29.162 25.9463 28.861L26.2157 27.9635C26.4679 27.203 26.7473 26.4511 27.0576 25.7132C27.2317 25.3016 27.4132 24.8925 27.6127 24.4922C27.7624 24.1912 27.9184 23.8938 28.079 23.5981C28.5126 22.7975 28.9798 22.0142 29.4987 21.2667C29.5349 21.2153 29.5721 21.1656 29.6084 21.1141C29.2619 21.2074 28.9244 21.3069 28.5942 21.4115Z" fill="#F3F3F3"/>
<path d="M58.043 19.6572C58.5501 20.0881 59.0336 20.5294 59.4908 20.9777C60.6002 22.0549 61.5599 23.1765 62.3945 24.293C62.4408 24.0775 62.4852 23.8604 62.5269 23.6449C62.604 23.153 62.6957 22.6654 62.7365 22.177C62.761 21.9328 62.7945 21.6912 62.8109 21.4461C62.8245 21.2001 62.8372 20.955 62.8508 20.7108L62.8689 20.348L62.8698 19.9851C62.8698 19.9694 62.8698 19.9537 62.8698 19.938C61.5273 18.1073 59.8981 16.4867 58.043 15.1366V19.6572Z" fill="#F3F3F3"/>
<path d="M58.043 33.4219C59.0526 32.1642 59.918 30.8175 60.612 29.4115L60.7871 29.0643L60.9449 28.7102C61.0474 28.4739 61.1563 28.2401 61.2551 28.0037C61.4347 27.5231 61.6343 27.0522 61.7813 26.5655C62.0162 25.8825 62.1958 25.1917 62.35 24.4983C61.2397 22.8429 59.8055 21.1822 58.043 19.6654V33.4219Z" fill="#F3F3F3"/>
<path d="M44.3015 11.1051C43.7264 11.2438 43.1658 11.4417 42.5961 11.6179C42.3158 11.7191 42.0346 11.8212 41.7534 11.9232L41.3297 12.0758L40.9143 12.2494C40.1994 12.5407 39.4928 12.8687 38.7988 13.2263C38.9431 13.2132 39.0873 13.2027 39.2306 13.1966C39.52 13.1862 39.8085 13.1757 40.096 13.1661C40.2403 13.1626 40.3809 13.1548 40.5278 13.1539L40.956 13.16C41.2408 13.1643 41.5248 13.1678 41.8078 13.1722C42.0917 13.187 42.3748 13.2097 42.6578 13.2289C42.939 13.249 43.222 13.262 43.4996 13.3004C44.0557 13.3667 44.6099 13.4251 45.1542 13.5272C45.4264 13.5752 45.6994 13.6135 45.967 13.6694C46.2355 13.7278 46.5031 13.7862 46.768 13.8438L47.1663 13.9328C47.2307 13.9563 47.3014 13.9528 47.3586 14.0008C47.3622 14.0052 47.3658 14.0113 47.3704 14.0156C47.6588 13.8839 47.9491 13.7566 48.2421 13.6371L48.6149 13.4818L48.995 13.344C49.2481 13.2524 49.5003 13.1609 49.7525 13.0702C50.2641 12.9123 50.7676 12.7352 51.2847 12.6114C51.7682 12.4762 52.2544 12.3654 52.7415 12.2695C50.5154 11.4234 48.1151 10.9088 45.6069 10.7902C45.1706 10.8827 44.7342 10.9838 44.3015 11.1051Z" fill="#F3F3F3"/>
<path d="M38.4324 13.4163C35.164 15.1651 32.1922 17.6361 29.9316 20.6914C32.2848 20.0617 34.978 19.7163 37.8655 19.8968C38.3481 19.9274 38.837 19.9753 39.3278 20.0364C40.3129 18.8894 41.4033 17.8428 42.5817 16.9174C43.9705 15.8367 45.4673 14.9174 47.0275 14.176L46.7037 14.101C46.4406 14.0417 46.1775 13.9824 45.9127 13.9222C45.6469 13.8638 45.3774 13.8245 45.1089 13.7748C44.571 13.6693 44.0222 13.6074 43.4716 13.5384C42.432 13.4181 41.3679 13.357 40.2893 13.357C39.6743 13.357 39.0547 13.3771 38.4324 13.4163Z" fill="#F3F3F3"/>
<path d="M36.6408 13.5865C35.4842 13.7496 34.3167 13.9555 33.1674 14.2747C32.5859 14.4125 32.0226 14.6157 31.4493 14.7945C31.4293 14.8015 31.4093 14.8093 31.3894 14.8163C28.336 16.9262 25.8549 19.753 24.2148 23.043C25.4449 22.3374 26.8664 21.6649 28.4938 21.125C28.9492 20.9715 29.4218 20.8302 29.908 20.6994C30.504 19.8821 31.1318 19.0893 31.8176 18.3479C32.6657 17.4399 33.5466 16.5642 34.5036 15.7784C35.5314 14.928 36.6199 14.1578 37.752 13.4714C37.3828 13.5037 37.0118 13.5403 36.6408 13.5865Z" fill="#F3F3F3"/>
<path d="M31.4902 14.7461C32.0445 14.5655 32.5924 14.3702 33.153 14.2228C34.2978 13.8809 35.4635 13.6515 36.6219 13.4648C37.1027 13.4029 37.5807 13.3314 38.0588 13.2886C38.9333 12.774 39.8332 12.3083 40.7539 11.901L41.1703 11.7126L41.5948 11.5442C41.8769 11.4317 42.1591 11.3175 42.4439 11.2145C42.892 11.0689 43.3347 10.9101 43.7837 10.7758C39.21 10.9119 34.98 12.3624 31.4902 14.7461Z" fill="#F3F3F3"/>
</g>
</svg>
