<svg width="68" height="68" viewBox="0 0 68 68" fill="none" xmlns="http://www.w3.org/2000/svg">
<g style="mix-blend-mode:luminosity" opacity="0.7" clip-path="url(#clip0_408_25311)">
<path d="M22.2792 16.7753C21.0383 16.8247 20.1367 16.9591 19.5744 17.1785C19.0121 17.3964 18.6256 17.7989 18.4149 18.3859C18.2057 18.973 18.1011 19.9131 18.1011 21.2062V46.7894C18.1011 48.0811 18.2057 49.0212 18.4149 49.6097C18.6256 50.1967 19.0121 50.5992 19.5744 50.8172C20.1367 51.0351 21.0383 51.1695 22.2792 51.2204V52.2535C20.7027 52.1518 18.521 52.1009 15.7341 52.1009C12.7787 52.1009 10.5796 52.1518 9.13672 52.2535V51.2204C10.379 51.1695 11.2814 51.0351 11.8437 50.8172C12.406 50.5992 12.7918 50.1967 13.001 49.6097C13.2117 49.0212 13.317 48.0811 13.317 46.7894V21.2062C13.317 19.9131 13.2117 18.973 13.001 18.3859C12.7918 17.7989 12.406 17.3964 11.8437 17.1785C11.2814 16.9591 10.379 16.8247 9.13672 16.7753V15.7422C10.5636 15.8424 12.7627 15.8926 15.7341 15.8926C18.521 15.8926 20.7027 15.8424 22.2792 15.7422V16.7753Z" fill="#F3F3F3"/>
<path d="M26.6123 15.7422C28.4576 15.8599 30.1359 15.9187 31.647 15.9187L32.9068 15.8926C37.6407 15.7923 40.2343 15.7422 40.6876 15.7422C46.7641 15.7422 51.3171 17.2613 54.3467 20.2996C57.3762 23.3378 58.891 27.7695 58.891 33.5946C58.891 37.3376 58.1565 40.6148 56.6875 43.4264C55.2185 46.238 53.0826 48.4117 50.2797 49.9475C47.4768 51.4848 44.1284 52.2535 40.2343 52.2535C39.7635 52.2535 38.6425 52.228 36.8713 52.1772C35.1001 52.1263 33.812 52.1009 33.007 52.1009C30.1867 52.1009 28.0551 52.1518 26.6123 52.2535V51.2204C27.8532 51.1695 28.7548 51.0351 29.3171 50.8172C29.8794 50.5992 30.2659 50.1967 30.4766 49.6097C30.6858 49.0212 30.7904 48.0811 30.7904 46.7894V21.2062C30.7904 19.9131 30.6858 18.973 30.4766 18.3859C30.2659 17.7989 29.8794 17.3964 29.3171 17.1785C28.7548 16.9591 27.8532 16.8247 26.6123 16.7753V15.7422ZM35.5745 46.8897C35.5745 48.132 35.6755 49.059 35.8774 49.6707C36.0794 50.2839 36.4528 50.7126 36.9977 50.9567C37.544 51.1993 38.3621 51.3206 39.4518 51.3206C43.112 51.3206 45.9824 50.6573 48.0631 49.3307C50.1453 48.0056 51.6099 46.0716 52.457 43.5289C53.3056 40.9846 53.7299 37.7401 53.7299 33.7951C53.7299 29.8342 53.2678 26.6071 52.3437 24.1137C51.421 21.6218 49.915 19.759 47.8256 18.5254C45.7347 17.2918 42.9267 16.675 39.4017 16.675C38.3279 16.675 37.5222 16.7963 36.9846 17.039C36.4485 17.2831 36.0794 17.7154 35.8774 18.3358C35.6755 18.9563 35.5745 19.8796 35.5745 21.106V46.8897Z" fill="#F3F3F3"/>
<path d="M60.4333 28.6562H6.71484V40.1114H60.4333V28.6562Z" fill="#F3F3F3"/>
<path d="M11.6143 35.5233C11.6143 35.8175 11.7124 35.8676 11.8301 35.8676C11.9347 35.8676 12.1025 35.8458 12.2245 35.7913C12.1461 35.7238 12.1352 35.5908 12.1352 35.3685V32.7051C12.1352 32.4436 12.1243 32.1668 12.096 31.9336C11.8802 31.9336 11.6513 31.9619 11.5576 31.9881C11.6012 32.3063 11.6143 32.5112 11.6143 32.7901V35.5233Z" fill="#FD2436"/>
<path d="M14.3145 35.5228C14.3145 35.817 14.3929 35.8672 14.491 35.8672C14.576 35.8672 14.709 35.8454 14.8136 35.7909C14.7591 35.7233 14.7526 35.5904 14.7526 35.3681V32.8267L16.8754 35.7669C16.9103 35.8454 16.9713 35.8672 17.0323 35.8672C17.1217 35.8672 17.2655 35.8454 17.3767 35.7909C17.2982 35.7233 17.2873 35.5904 17.2873 35.3681V32.7047C17.2873 32.4431 17.2764 32.1729 17.2546 31.9375C17.0716 31.9375 16.8863 31.9658 16.81 31.9876C16.8427 32.3058 16.8493 32.5107 16.8493 32.7897V34.8951L14.7199 31.9506V31.9375C14.5303 31.9375 14.3363 31.9658 14.2578 31.9876C14.3036 32.3058 14.3145 32.5107 14.3145 32.7897V35.5228Z" fill="#FD2436"/>
<path d="M22.0738 32.266C22.3615 32.266 22.4116 32.2049 22.4116 32.1265C22.4116 32.0654 22.3964 31.9652 22.3397 31.8867C22.2721 31.9434 22.1348 31.9543 21.9125 31.9543H19.9444C19.6829 31.9543 19.4061 31.9652 19.1729 31.9935C19.1729 32.109 19.199 32.2333 19.2273 32.3052C19.539 32.2703 19.7504 32.266 20.0272 32.266H20.5176C20.5329 32.449 20.5329 32.5994 20.5329 32.789V35.5222C20.5329 35.8164 20.6397 35.8665 20.7552 35.8665C20.862 35.8665 21.0276 35.8447 21.1497 35.7902C21.0734 35.7227 21.056 35.5897 21.056 35.3674V32.704C21.056 32.5537 21.0494 32.4098 21.0451 32.266H22.0738Z" fill="#FD2436"/>
<path d="M26.4026 33.9969C26.6968 33.9969 26.747 33.9424 26.747 33.8704C26.747 33.8094 26.7317 33.7135 26.6685 33.6481C26.6031 33.6808 26.4702 33.6874 26.2479 33.6874H25.0687C24.9859 33.6874 24.9031 33.6874 24.8246 33.6917V32.7197C24.8246 32.5649 24.8181 32.4145 24.8072 32.2685C24.9031 32.2641 24.9968 32.2641 25.1014 32.2641H26.5465C26.8363 32.2641 26.8865 32.2075 26.8865 32.1312C26.8865 32.0702 26.869 31.9743 26.8145 31.9023C26.747 31.9481 26.6075 31.9525 26.3852 31.9525H25.0186C24.7571 31.9525 24.4803 31.9634 24.2471 31.9917C24.2907 32.3034 24.3016 32.5191 24.3016 32.7981V35.5705C24.3016 35.6882 24.3234 35.8102 24.3517 35.8821C24.6677 35.8495 24.8748 35.8429 25.1516 35.8429H26.5966C26.8908 35.8429 26.941 35.7819 26.941 35.71C26.941 35.6424 26.9257 35.5421 26.8647 35.4702C26.7971 35.5269 26.6642 35.5312 26.4418 35.5312H25.0687C24.9859 35.5312 24.9075 35.5312 24.8246 35.5378V34.0034C24.9293 33.9969 25.0361 33.9969 25.1516 33.9969H26.4026Z" fill="#FD2436"/>
<path d="M29.3494 33.8764C29.3494 32.9044 29.8812 32.244 30.6484 32.244C31.1039 32.244 31.4439 32.4816 31.5769 32.8216C31.8384 32.8216 31.9997 32.7649 31.9997 32.6101C31.9997 32.3551 31.5224 31.9258 30.6702 31.9258C29.5151 31.9258 28.7871 32.754 28.7871 33.9615C28.7871 35.0948 29.4824 35.8729 30.6266 35.8729C31.25 35.8729 31.7883 35.6113 32.0433 35.2495V34.5892C32.0433 34.3276 32.0324 34.0377 32.0041 33.8045H31.4439C31.1824 33.8045 30.9056 33.8154 30.6702 33.8438C30.6702 33.9615 30.6985 34.0835 30.7269 34.1554C31.0277 34.1227 31.2325 34.1162 31.4984 34.1162C31.5159 34.3102 31.5224 34.478 31.5224 34.672V35.3454C31.3546 35.4501 31.0996 35.5547 30.6593 35.5547C29.8703 35.5547 29.3494 34.8725 29.3494 33.8764Z" fill="#FD2436"/>
<path d="M34.1504 35.521C34.1504 35.8152 34.2441 35.8654 34.3618 35.8654C34.4556 35.8654 34.6168 35.8436 34.7345 35.7891C34.6779 35.7215 34.6713 35.5886 34.6713 35.3663V34.2547C34.7781 34.2482 34.8827 34.2482 35.0004 34.2482H35.3448L36.1447 35.5101C36.3234 35.8218 36.4781 35.8654 36.6067 35.8654C36.7222 35.8654 36.8726 35.8436 36.9729 35.7891C36.8574 35.715 36.7571 35.5777 36.6111 35.3488L35.8613 34.1762C36.3888 34.0149 36.7179 33.6096 36.7179 33.0756C36.7179 32.4086 36.1904 31.9531 35.4058 31.9531H34.595C34.3836 31.9597 34.1831 31.9815 34.0938 32.0033C34.1395 32.3193 34.1504 32.5263 34.1504 32.8031V35.521ZM34.6604 32.2648H35.3622C35.8504 32.2648 36.1839 32.6092 36.1839 33.1083C36.1839 33.5987 35.8613 33.9365 35.384 33.9365H34.9176C34.8326 33.9365 34.7498 33.9365 34.6713 33.943V32.7203C34.6713 32.5699 34.667 32.4152 34.6604 32.2648Z" fill="#FD2436"/>
<path d="M41.4192 35.5228C41.5368 35.817 41.6633 35.8672 41.7853 35.8672C41.8965 35.8672 42.0708 35.8454 42.1689 35.7909C42.0708 35.7233 42.0033 35.5947 41.9139 35.3681L40.8634 32.7047C40.7588 32.4431 40.6476 32.1729 40.5299 31.9375C40.3032 31.9375 40.0853 31.9658 39.9959 31.9876C39.9196 32.2949 39.8237 32.5717 39.7366 32.7897L38.6577 35.5228C38.6119 35.6449 38.5967 35.7233 38.5967 35.7735C38.5967 35.8454 38.6468 35.8672 38.7078 35.8672C38.7972 35.8672 38.941 35.8454 39.0631 35.7909C39.0631 35.7015 39.0958 35.5686 39.1743 35.3681L39.4249 34.7055H41.0966L41.4192 35.5228ZM40.3468 32.7897L40.9745 34.396H39.5469L40.2531 32.5543C40.2858 32.6284 40.3141 32.7047 40.3468 32.7897Z" fill="#FD2436"/>
<path d="M45.9879 32.266C46.2777 32.266 46.3279 32.2049 46.3279 32.1265C46.3279 32.0654 46.3104 31.9652 46.2559 31.8867C46.1884 31.9434 46.0489 31.9543 45.8266 31.9543H43.8606C43.5991 31.9543 43.3201 31.9652 43.0869 31.9935C43.0869 32.109 43.1152 32.2333 43.1436 32.3052C43.4531 32.2703 43.6645 32.266 43.9435 32.266H44.4317C44.4491 32.449 44.4491 32.5994 44.4491 32.789V35.5222C44.4491 35.8164 44.5537 35.8665 44.6714 35.8665C44.776 35.8665 44.9439 35.8447 45.0659 35.7902C44.9875 35.7227 44.9722 35.5897 44.9722 35.3674V32.704C44.9722 32.5537 44.9657 32.4098 44.9613 32.266H45.9879Z" fill="#FD2436"/>
<path d="M47.8555 33.944C47.8555 35.0883 48.5616 35.8729 49.6013 35.8729C50.691 35.8729 51.4299 35.049 51.4299 33.8547C51.4299 32.7104 50.7237 31.9258 49.6775 31.9258C48.5943 31.9258 47.8555 32.7496 47.8555 33.944ZM48.4178 33.8873C48.4178 32.9109 48.906 32.244 49.6296 32.244C50.3619 32.244 50.8676 32.9218 50.8676 33.9113C50.8676 34.8877 50.3793 35.5547 49.6514 35.5547C48.9169 35.5547 48.4178 34.8768 48.4178 33.8873Z" fill="#FD2436"/>
<path d="M53.4461 35.521C53.4461 35.8152 53.542 35.8654 53.6575 35.8654C53.7534 35.8654 53.9147 35.8436 54.0302 35.7891C53.9757 35.7215 53.9692 35.5886 53.9692 35.3663V34.2547C54.076 34.2482 54.1806 34.2482 54.2983 34.2482H54.6426L55.4425 35.5101C55.6191 35.8218 55.776 35.8654 55.9024 35.8654C56.0201 35.8654 56.1705 35.8436 56.2707 35.7891C56.1531 35.715 56.0528 35.5777 55.9089 35.3488L55.1592 34.1762C55.6866 34.0149 56.0136 33.6096 56.0136 33.0756C56.0136 32.4086 55.4861 31.9531 54.7037 31.9531H53.8907C53.6793 31.9597 53.481 31.9815 53.3916 32.0033C53.4352 32.3193 53.4461 32.5263 53.4461 32.8031V35.521ZM53.9583 32.2648H54.6579C55.1483 32.2648 55.4818 32.6092 55.4818 33.1083C55.4818 33.5987 55.1592 33.9365 54.6797 33.9365H54.2133C54.1305 33.9365 54.0476 33.9365 53.9692 33.943V32.7203C53.9692 32.5699 53.9648 32.4152 53.9583 32.2648Z" fill="#FD2436"/>
<mask id="mask0_408_25311" style="mask-type:luminance" maskUnits="userSpaceOnUse" x="0" y="0" width="68" height="68">
<path d="M67.3182 0.40625H0.256836V67.4676H67.3182V0.40625Z" fill="white"/>
</mask>
<g mask="url(#mask0_408_25311)">
<path d="M67.3182 0.40625H0.256836V67.4676H67.3182V0.40625Z" stroke="#F3F3F3" stroke-width="5"/>
</g>
</g>
<defs>
<clipPath id="clip0_408_25311">
<rect width="67" height="67" fill="white" transform="translate(0.285156 0.5)"/>
</clipPath>
</defs>
</svg>
