<svg width="264" height="92" viewBox="0 0 264 92" fill="none" xmlns="http://www.w3.org/2000/svg">
<g style="mix-blend-mode:luminosity" opacity="0.7">
<path d="M11.2331 53.6802L5.49304 53.6587L5.43195 69.9294L11.172 69.951L11.2331 53.6802Z" fill="#F3F3F3"/>
<path d="M22.652 69.9941L16.912 69.9725L17.0036 45.5664L22.7437 45.588L22.7131 53.7233L28.8947 53.7465L28.9558 37.4758L34.6958 37.4973L34.5736 70.0388L28.8336 70.0173L28.8641 61.8819L22.6826 61.8587L22.652 69.9941Z" fill="#F3F3F3"/>
<path d="M45.6121 70.0803L39.8721 70.0587L40.0248 29.3819L45.7648 29.4034L45.7038 45.6742L51.8853 45.6974L51.977 21.2913L57.717 21.3128L57.5337 70.125L51.7937 70.1035L51.8548 53.8327L45.6732 53.8095L45.6121 70.0803Z" fill="#F3F3F3"/>
<mask id="path-2-outside-1_408_25367" maskUnits="userSpaceOnUse" x="68.5716" y="31.0548" width="191.108" height="29.717" fill="black">
<rect fill="white" x="68.5716" y="31.0548" width="191.108" height="29.717"/>
<path d="M71.01 40.3352L69.6457 40.33L69.6762 32.2094L71.0405 32.2145L71.028 35.5324L74.6001 32.2279L76.3489 32.2345L72.3164 35.9317L76.9633 40.3575L75.1029 40.3505L71.0246 36.4373L71.01 40.3352Z"/>
<path d="M79.5275 38.4646C80.1124 39.0391 80.8307 39.3279 81.6823 39.3311C82.534 39.3343 83.2544 39.0509 83.8436 38.4808C84.4329 37.8952 84.7291 37.177 84.7323 36.3263C84.7355 35.4678 84.4447 34.7514 83.8598 34.1768C83.2749 33.5946 82.5566 33.3019 81.705 33.2987C80.8533 33.2955 80.1329 33.5828 79.5436 34.1606C78.9627 34.723 78.6706 35.4373 78.6674 36.3035C78.6641 37.1697 78.9508 37.8901 79.5275 38.4646ZM84.8575 39.3315C84.0111 40.1326 82.9512 40.5308 81.6778 40.526C80.4045 40.5213 79.3476 40.1151 78.5073 39.3076C77.6752 38.4847 77.2614 37.4816 77.2659 36.2983C77.2703 35.1073 77.6916 34.1111 78.5298 33.3099C79.3762 32.5011 80.4361 32.099 81.7095 32.1038C82.9828 32.1086 84.0396 32.5186 84.88 33.3338C85.7203 34.1413 86.1383 35.1406 86.1338 36.3316C86.1294 37.5226 85.7039 38.5226 84.8575 39.3315Z"/>
<path d="M89.5773 40.4049L88.213 40.3998L88.2435 32.2791L91.9767 32.2931C92.8862 32.2966 93.5924 32.5196 94.0951 32.9624C94.6144 33.3897 94.8728 33.9552 94.8701 34.659C94.8675 35.3628 94.6048 35.9419 94.0822 36.3962C93.5761 36.8429 92.8683 37.0645 91.9588 37.0611L89.5899 37.0522L89.5773 40.4049ZM89.6034 33.4559L89.5943 35.8805L91.8516 35.889C92.3642 35.8909 92.7656 35.788 93.0558 35.5803C93.346 35.3648 93.4919 35.0638 93.4933 34.6771C93.4948 34.2904 93.3512 33.9921 93.0626 33.7822C92.7822 33.5723 92.3816 33.4664 91.8607 33.4644L89.6034 33.4559Z"/>
<path d="M98.0373 40.4367L96.673 40.4315L96.7035 32.3109L103.761 32.3374L103.73 40.458L102.366 40.4529L102.392 33.504L98.0634 33.4877L98.0373 40.4367Z"/>
<path d="M108.105 38.5719C108.69 39.1464 109.408 39.4353 110.26 39.4384C111.112 39.4416 111.832 39.1582 112.421 38.5881C113.011 38.0025 113.307 37.2844 113.31 36.4336C113.313 35.5752 113.022 34.8587 112.437 34.2841C111.853 33.7019 111.134 33.4092 110.283 33.406C109.431 33.4028 108.711 33.6901 108.121 34.2679C107.54 34.8303 107.248 35.5446 107.245 36.4108C107.242 37.2771 107.528 37.9974 108.105 38.5719ZM113.435 39.4388C112.589 40.2399 111.529 40.6381 110.255 40.6333C108.982 40.6286 107.925 40.2224 107.085 39.4149C106.253 38.592 105.839 37.5889 105.844 36.4056C105.848 35.2146 106.269 34.2184 107.107 33.4173C107.954 32.6084 109.014 32.2063 110.287 32.2111C111.56 32.2159 112.617 32.6259 113.458 33.4411C114.298 34.2486 114.716 35.2479 114.711 36.4389C114.707 37.6299 114.282 38.6299 113.435 39.4388Z"/>
<path d="M118.155 40.5122L116.791 40.5071L116.821 32.3864L120.554 32.4004C121.464 32.4039 122.17 32.6269 122.673 33.0697C123.192 33.497 123.45 34.0625 123.448 34.7663C123.445 35.4701 123.182 36.0492 122.66 36.5035C122.154 36.9502 121.446 37.1718 120.536 37.1684L118.168 37.1595L118.155 40.5122ZM118.181 33.5632L118.172 35.9878L120.429 35.9963C120.942 35.9982 121.343 35.8953 121.633 35.6876C121.924 35.4721 122.07 35.1711 122.071 34.7844C122.072 34.3977 121.929 34.0994 121.64 33.8895C121.36 33.6796 120.959 33.5737 120.438 33.5717L118.181 33.5632Z"/>
<path d="M124.951 40.5377L123.5 40.5323L127.326 32.3795L128.64 32.3844L132.405 40.5657L130.941 40.5602L130.006 38.5381L125.889 38.5226L124.951 40.5377ZM127.965 33.9944L126.364 37.3991L129.539 37.411L127.965 33.9944Z"/>
<path d="M142.243 42.3428L140.953 42.338L140.959 40.5978L134.001 40.5717L134.032 32.4511L135.396 32.4562L135.37 39.4051L139.637 39.4211L139.663 32.4722L141.027 32.4773L141.001 39.4263L142.254 39.431L142.243 42.3428Z"/>
<path d="M145.129 40.6135L143.963 40.6091L143.994 32.4885L145.358 32.4936L145.336 38.4565L150.133 32.5115L151.324 32.516L151.293 40.6366L149.929 40.6315L149.952 34.6454L145.129 40.6135Z"/>
<path d="M154.625 40.6491L152.976 40.6429L155.755 37.0802C155.144 36.9465 154.669 36.6817 154.332 36.286C153.994 35.8826 153.826 35.3986 153.829 34.834C153.831 34.1302 154.09 33.5705 154.604 33.1548C155.126 32.7391 155.83 32.5329 156.715 32.5362L160.671 32.5511L160.641 40.6717L159.276 40.6666L159.289 37.2327L157.255 37.2251L154.625 40.6491ZM156.763 36.0979L159.293 36.1074L159.302 33.7177L156.772 33.7082C156.284 33.7063 155.9 33.8132 155.618 34.0286C155.344 34.2364 155.206 34.5259 155.205 34.8972C155.204 35.2761 155.339 35.5705 155.611 35.7804C155.891 35.9903 156.275 36.0961 156.763 36.0979Z"/>
<path d="M167.886 40.6989L166.521 40.6938L166.552 32.5732L170.285 32.5872C171.195 32.5906 171.901 32.8137 172.403 33.2564C172.923 33.6837 173.181 34.2493 173.178 34.9531C173.176 35.6569 172.913 36.2359 172.39 36.6903C171.884 37.1369 171.177 37.3586 170.267 37.3552L167.898 37.3463L167.886 40.6989ZM167.912 33.75L167.903 36.1746L170.16 36.183C170.673 36.185 171.074 36.0821 171.364 35.8743C171.654 35.6589 171.8 35.3578 171.802 34.9711C171.803 34.5844 171.659 34.2861 171.371 34.0762C171.091 33.8663 170.69 33.7604 170.169 33.7585L167.912 33.75Z"/>
<path d="M174.682 40.7244L173.23 40.719L177.056 32.5662L178.371 32.5711L182.136 40.7524L180.672 40.7469L179.737 38.7248L175.619 38.7094L174.682 40.7244ZM177.695 34.1812L176.095 37.5859L179.27 37.5978L177.695 34.1812Z"/>
<path d="M186.187 40.9185C184.972 40.9139 183.96 40.6781 183.151 40.211L183.156 38.9581C183.535 39.1838 183.981 39.3672 184.493 39.5084C185.014 39.6495 185.514 39.721 185.993 39.7228C186.729 39.7256 187.308 39.6001 187.731 39.3465C188.162 39.0852 188.378 38.738 188.38 38.3049C188.381 37.9259 188.188 37.6197 187.8 37.3862C187.413 37.1527 186.901 37.0348 186.264 37.0324L185.185 37.0283L185.189 35.8566L186.429 35.8613C186.959 35.8633 187.368 35.7682 187.658 35.5759C187.949 35.3836 188.094 35.1173 188.096 34.7771C188.097 34.4368 187.928 34.1732 187.59 33.9863C187.26 33.7917 186.806 33.6933 186.227 33.6911C185.301 33.6877 184.407 33.8815 183.546 34.2727L183.55 33.101C184.403 32.6943 185.322 32.4928 186.306 32.4965C187.248 32.5001 188.008 32.704 188.585 33.1083C189.163 33.5127 189.45 34.0474 189.448 34.7125C189.446 35.1534 189.304 35.5163 189.022 35.8014C188.74 36.0865 188.429 36.2826 188.089 36.3896C188.544 36.515 188.94 36.7563 189.277 37.1133C189.615 37.4549 189.783 37.8886 189.781 38.4145C189.778 39.1415 189.454 39.7435 188.807 40.2206C188.168 40.69 187.295 40.9226 186.187 40.9185Z"/>
<path d="M196.035 40.8046L191.768 40.7886L191.799 32.668L195.743 32.6828C196.528 32.6857 197.148 32.8659 197.601 33.2234C198.063 33.5809 198.293 34.069 198.29 34.6877C198.289 35.0899 198.18 35.4375 197.964 35.7306C197.748 36.0237 197.47 36.2315 197.13 36.3539C197.676 36.4488 198.117 36.6902 198.455 37.0782C198.801 37.4662 198.972 37.9502 198.97 38.5302C198.968 39.2186 198.701 39.7705 198.17 40.1862C197.648 40.6019 196.936 40.808 196.035 40.8046ZM193.146 37.0698L193.137 39.622L195.791 39.632C196.32 39.634 196.734 39.5234 197.033 39.3002C197.339 39.0694 197.494 38.749 197.495 38.3391C197.497 37.9369 197.349 37.627 197.052 37.4093C196.755 37.1917 196.338 37.0818 195.801 37.0798L193.146 37.0698ZM193.159 33.8448L193.151 35.9445L195.495 35.9533C195.95 35.9551 196.301 35.8674 196.55 35.6905C196.807 35.5058 196.936 35.2434 196.937 34.9031C196.939 34.5628 196.812 34.3032 196.556 34.1244C196.308 33.9455 195.957 33.8553 195.503 33.8536L193.159 33.8448Z"/>
<path d="M202.121 40.8275L200.955 40.8231L200.985 32.7025L202.35 32.7076L202.327 38.6705L207.125 32.7255L208.315 32.73L208.285 40.8506L206.921 40.8455L206.943 34.8594L202.121 40.8275Z"/>
<path d="M210.043 33.9082L210.047 32.7365L217.154 32.7632L217.15 33.9349L214.272 33.9241L214.246 40.873L212.882 40.8679L212.908 33.9189L210.043 33.9082Z"/>
<path d="M220.022 40.8947L218.856 40.8903L218.887 32.7697L220.251 32.7748L220.228 38.7377L225.026 32.7927L226.217 32.7972L226.186 40.9178L224.822 40.9127L224.844 34.9266L220.022 40.8947Z"/>
<path d="M229.518 40.9303L227.868 40.9242L230.648 37.3615C230.036 37.2277 229.562 36.9629 229.224 36.5672C228.887 36.1638 228.719 35.6798 228.721 35.1152C228.724 34.4114 228.982 33.8517 229.497 33.436C230.019 33.0203 230.723 32.8141 231.607 32.8174L235.564 32.8323L235.533 40.9529L234.169 40.9478L234.182 37.5139L232.148 37.5063L229.518 40.9303ZM231.656 36.3792L234.186 36.3887L234.195 33.9989L231.665 33.9894C231.177 33.9875 230.792 34.0944 230.51 34.3099C230.237 34.5177 230.099 34.8072 230.098 35.1784C230.096 35.5574 230.232 35.8518 230.504 36.0616C230.784 36.2715 231.168 36.3773 231.656 36.3792Z"/>
<path d="M70.9447 57.7365L69.5804 57.7314L69.6109 49.6108L70.9752 49.6159L70.9631 52.8177L75.4901 52.8347L75.5022 49.6329L76.8665 49.638L76.836 57.7587L75.4717 57.7535L75.4857 54.0064L70.9587 53.9894L70.9447 57.7365Z"/>
<path d="M80.4053 57.7721L79.2395 57.7677L79.27 49.647L80.6343 49.6522L80.6119 55.615L85.4093 49.6701L86.6 49.6746L86.5695 57.7952L85.2052 57.7901L85.2277 51.804L80.4053 57.7721Z"/>
<path d="M89.8023 57.8073L88.0163 57.8006L92.1623 53.5702L88.5677 49.682L90.2544 49.6883L93.4909 53.1692L93.504 49.7005L94.8683 49.7056L94.8552 53.1743L98.1302 49.7179L99.8418 49.7243L96.1808 53.5853L100.32 57.8468L98.5338 57.8401L94.8518 54.1024L94.8378 57.8262L93.4735 57.8211L93.4875 54.0856L89.8023 57.8073Z"/>
<path d="M108.105 57.8761L101.767 57.8523L101.798 49.7316L107.974 49.7548L107.97 50.9265L103.158 50.9084L103.15 52.9386L107.069 52.9533L107.065 54.125L103.146 54.1103L103.136 56.6857L108.11 56.7044L108.105 57.8761Z"/>
<path d="M111.325 57.8882L109.961 57.883L109.991 49.7624L116.069 49.7852L116.064 50.9569L111.351 50.9392L111.325 57.8882Z"/>
<path d="M119.128 56.0149C119.713 56.5894 120.431 56.8783 121.283 56.8815C122.135 56.8847 122.855 56.6012 123.444 56.0311C124.034 55.4455 124.33 54.7274 124.333 53.8766C124.336 53.0182 124.045 52.3017 123.46 51.7271C122.876 51.1449 122.157 50.8522 121.306 50.849C120.454 50.8458 119.734 51.1331 119.144 51.7109C118.563 52.2733 118.271 52.9876 118.268 53.8539C118.265 54.7201 118.551 55.4404 119.128 56.0149ZM124.458 56.8818C123.612 57.6829 122.552 58.0811 121.278 58.0763C120.005 58.0716 118.948 57.6654 118.108 56.8579C117.276 56.035 116.862 55.0319 116.867 53.8486C116.871 52.6576 117.292 51.6615 118.13 50.8603C118.977 50.0514 120.037 49.6493 121.31 49.6541C122.583 49.6589 123.64 50.0689 124.481 50.8841C125.321 51.6916 125.739 52.6909 125.734 53.8819C125.73 55.0729 125.305 56.0729 124.458 56.8818Z"/>
<path d="M129.178 57.9552L127.814 57.9501L127.844 49.8294L131.577 49.8435C132.487 49.8469 133.193 50.0699 133.696 50.5127C134.215 50.94 134.473 51.5055 134.471 52.2093C134.468 52.9131 134.205 53.4922 133.683 53.9465C133.177 54.3932 132.469 54.6148 131.559 54.6114L129.191 54.6025L129.178 57.9552ZM129.204 51.0062L129.195 53.4308L131.452 53.4393C131.965 53.4412 132.366 53.3383 132.656 53.1306C132.947 52.9151 133.093 52.6141 133.094 52.2274C133.095 51.8407 132.952 51.5424 132.663 51.3325C132.383 51.1226 131.982 51.0167 131.461 51.0147L129.204 51.0062Z"/>
<path d="M138.24 56.0866C138.825 56.6612 139.544 56.95 140.395 56.9532C141.247 56.9564 141.967 56.673 142.557 56.1029C143.146 55.5173 143.442 54.7991 143.445 53.9484C143.449 53.0899 143.158 52.3734 142.573 51.7989C141.988 51.2167 141.27 50.9239 140.418 50.9207C139.566 50.9175 138.846 51.2049 138.257 51.7827C137.676 52.3451 137.384 53.0594 137.38 53.9256C137.377 54.7918 137.664 55.5122 138.24 56.0866ZM143.57 56.9535C142.724 57.7547 141.664 58.1529 140.391 58.1481C139.117 58.1433 138.061 57.7372 137.22 56.9297C136.388 56.1068 135.974 55.1036 135.979 53.9204C135.983 52.7293 136.405 51.7332 137.243 50.932C138.089 50.1231 139.149 49.7211 140.422 49.7258C141.696 49.7306 142.753 50.1406 143.593 50.9559C144.433 51.7634 144.851 52.7626 144.847 53.9537C144.842 55.1447 144.417 56.1446 143.57 56.9535Z"/>
<path d="M146.819 59.7616L145.53 59.7568L145.541 56.8449L146.371 56.848C146.829 56.2078 147.166 55.455 147.385 54.5896C147.603 53.701 147.715 52.5143 147.72 51.0294L147.725 49.9041L153.467 49.9256L153.441 56.8746L154.694 56.8793L154.683 59.7911L153.393 59.7863L153.399 58.0461L146.826 58.0215L146.819 59.7616ZM147.86 56.8536L152.077 56.8695L152.098 51.0922L149.047 51.0808C149.042 52.4342 148.951 53.5708 148.774 54.4904C148.597 55.4179 148.292 56.2056 147.86 56.8536Z"/>
<path d="M160.669 58.2243C159.371 58.2194 158.281 57.8209 157.4 57.0287C156.534 56.2288 156.104 55.2179 156.109 53.9959C156.113 52.774 156.551 51.7702 157.422 50.9846C158.285 50.1912 159.378 49.797 160.701 49.802C161.586 49.8053 162.371 49.99 163.056 50.3561L163.051 51.6438C162.349 51.2158 161.569 51.0002 160.709 50.9969C159.799 50.9935 159.038 51.2768 158.424 51.8468C157.818 52.4091 157.513 53.1273 157.51 54.0012C157.507 54.8751 157.81 55.5994 158.42 56.174C159.03 56.7409 159.802 57.0261 160.736 57.0296C161.728 57.0333 162.556 56.7889 163.219 56.2964L163.214 57.5842C162.485 58.0145 161.637 58.2279 160.669 58.2243Z"/>
<path d="M166.494 58.0953L165.13 58.0902L165.16 49.9696L166.525 49.9747L166.512 53.2925L170.084 49.988L171.833 49.9946L167.801 53.6918L172.448 58.1177L170.587 58.1107L166.509 54.1974L166.494 58.0953Z"/>
<path d="M175.012 56.2247C175.597 56.7992 176.315 57.0881 177.167 57.0913C178.018 57.0945 178.739 56.811 179.328 56.2409C179.917 55.6553 180.213 54.9372 180.217 54.0865C180.22 53.228 179.929 52.5115 179.344 51.937C178.759 51.3547 178.041 51.062 177.189 51.0588C176.338 51.0556 175.617 51.3429 175.028 51.9208C174.447 52.4832 174.155 53.1975 174.152 54.0637C174.148 54.9299 174.435 55.6502 175.012 56.2247ZM180.342 57.0916C179.495 57.8928 178.435 58.291 177.162 58.2862C175.889 58.2814 174.832 57.8753 173.991 57.0678C173.159 56.2448 172.746 55.2417 172.75 54.0584C172.755 52.8674 173.176 51.8713 174.014 51.0701C174.86 50.2612 175.92 49.8591 177.194 49.8639C178.467 49.8687 179.524 50.2787 180.364 51.0939C181.205 51.9014 181.623 52.9007 181.618 54.0917C181.614 55.2828 181.188 56.2827 180.342 57.0916Z"/>
<path d="M184.863 58.1643L183.697 58.1599L183.728 50.0393L185.092 50.0444L185.07 56.0073L189.867 50.0623L191.058 50.0668L191.027 58.1874L189.663 58.1823L189.685 52.1962L184.863 58.1643ZM187.388 49.5774C186.735 49.5749 186.207 49.3989 185.803 49.0494C185.399 48.6998 185.194 48.235 185.188 47.6549L186.329 47.6592C186.328 47.9454 186.422 48.1777 186.612 48.3563C186.801 48.5272 187.057 48.6132 187.38 48.6144C187.702 48.6157 187.959 48.5277 188.149 48.3505C188.34 48.1733 188.44 47.9456 188.45 47.6672L189.591 47.6715C189.58 48.2515 189.368 48.7147 188.953 49.0612C188.547 49.4077 188.025 49.5798 187.388 49.5774Z"/>
<path d="M198.866 56.3143C199.451 56.8888 200.169 57.1777 201.021 57.1809C201.872 57.1841 202.593 56.9006 203.182 56.3305C203.771 55.7449 204.067 55.0268 204.07 54.176C204.074 53.3176 203.783 52.6011 203.198 52.0266C202.613 51.4443 201.895 51.1516 201.043 51.1484C200.191 51.1452 199.471 51.4325 198.882 52.0103C198.301 52.5728 198.009 53.2871 198.006 54.1533C198.002 55.0195 198.289 55.7398 198.866 56.3143ZM204.196 57.1812C203.349 57.9823 202.289 58.3805 201.016 58.3758C199.743 58.371 198.686 57.9648 197.845 57.1573C197.013 56.3344 196.6 55.3313 196.604 54.148C196.609 52.957 197.03 51.9609 197.868 51.1597C198.714 50.3508 199.774 49.9487 201.048 49.9535C202.321 49.9583 203.378 50.3683 204.218 51.1835C205.059 51.991 205.476 52.9903 205.472 54.1813C205.468 55.3723 205.042 56.3723 204.196 57.1812Z"/>
<path d="M211.222 58.2633L207.551 58.2495L207.582 50.1288L213.709 50.1518L213.704 51.3235L208.942 51.3057L208.935 53.0226L211.242 53.0313C212.226 53.0349 213.002 53.2815 213.571 53.7709C214.14 54.2525 214.423 54.8839 214.42 55.665C214.417 56.4539 214.129 57.0831 213.557 57.5528C212.993 58.0302 212.215 58.267 211.222 58.2633ZM208.931 54.1943L208.92 57.0829L211.103 57.0911C211.715 57.0934 212.186 56.9714 212.518 56.7252C212.858 56.4712 213.029 56.1161 213.031 55.6598C213.032 55.2035 212.864 54.8471 212.526 54.5906C212.188 54.3341 211.717 54.2047 211.114 54.2025L208.931 54.1943Z"/>
<path d="M215.432 58.2559L215.436 57.0958C215.543 57.1271 215.696 57.1432 215.895 57.1439C216.507 57.1462 216.913 56.792 217.114 56.0812C217.315 55.4709 217.435 54.4273 217.473 52.9502L217.521 50.1662L223.301 50.1879L223.27 58.3085L221.906 58.3034L221.932 51.3544L218.831 51.3428L218.788 53.0828C218.748 54.8383 218.54 56.1407 218.165 56.99C217.773 57.878 217.04 58.3199 215.965 58.3159C215.75 58.3151 215.572 58.2951 215.432 58.2559Z"/>
<path d="M226.315 58.3199L224.864 58.3145L228.69 50.1617L230.005 50.1666L233.769 58.3479L232.306 58.3424L231.371 56.3203L227.253 56.3049L226.315 58.3199ZM229.329 51.7766L227.729 55.1813L230.904 55.1933L229.329 51.7766Z"/>
<path d="M239.014 58.5184C237.716 58.5136 236.626 58.115 235.744 57.3228C234.879 56.523 234.449 55.5121 234.453 54.2901C234.458 53.0682 234.896 52.0644 235.767 51.2788C236.63 50.4854 237.723 50.0912 239.046 50.0962C239.93 50.0995 240.715 50.2842 241.4 50.6503L241.395 51.938C240.694 51.51 239.914 51.2943 239.054 51.2911C238.144 51.2877 237.382 51.571 236.768 52.141C236.163 52.7033 235.858 53.4214 235.855 54.2954C235.851 55.1693 236.155 55.8936 236.764 56.4682C237.374 57.0351 238.146 57.3203 239.081 57.3238C240.073 57.3275 240.901 57.0831 241.564 56.5906L241.559 57.8783C240.83 58.3087 239.981 58.5221 239.014 58.5184Z"/>
<path d="M242.831 51.4329L242.835 50.2612L249.942 50.2879L249.938 51.4596L247.06 51.4488L247.034 58.3977L245.67 58.3926L245.696 51.4437L242.831 51.4329Z"/>
<path d="M252.81 58.4194L251.644 58.415L251.674 50.2944L253.039 50.2995L253.016 56.2624L257.814 50.3175L259.004 50.3219L258.974 58.4426L257.61 58.4374L257.632 52.4514L252.81 58.4194Z"/>
</mask>
<path d="M71.01 40.3352L69.6457 40.33L69.6762 32.2094L71.0405 32.2145L71.028 35.5324L74.6001 32.2279L76.3489 32.2345L72.3164 35.9317L76.9633 40.3575L75.1029 40.3505L71.0246 36.4373L71.01 40.3352Z" fill="#F3F3F3"/>
<path d="M79.5275 38.4646C80.1124 39.0391 80.8307 39.3279 81.6823 39.3311C82.534 39.3343 83.2544 39.0509 83.8436 38.4808C84.4329 37.8952 84.7291 37.177 84.7323 36.3263C84.7355 35.4678 84.4447 34.7514 83.8598 34.1768C83.2749 33.5946 82.5566 33.3019 81.705 33.2987C80.8533 33.2955 80.1329 33.5828 79.5436 34.1606C78.9627 34.723 78.6706 35.4373 78.6674 36.3035C78.6641 37.1697 78.9508 37.8901 79.5275 38.4646ZM84.8575 39.3315C84.0111 40.1326 82.9512 40.5308 81.6778 40.526C80.4045 40.5213 79.3476 40.1151 78.5073 39.3076C77.6752 38.4847 77.2614 37.4816 77.2659 36.2983C77.2703 35.1073 77.6916 34.1111 78.5298 33.3099C79.3762 32.5011 80.4361 32.099 81.7095 32.1038C82.9828 32.1086 84.0396 32.5186 84.88 33.3338C85.7203 34.1413 86.1383 35.1406 86.1338 36.3316C86.1294 37.5226 85.7039 38.5226 84.8575 39.3315Z" fill="#F3F3F3"/>
<path d="M89.5773 40.4049L88.213 40.3998L88.2435 32.2791L91.9767 32.2931C92.8862 32.2966 93.5924 32.5196 94.0951 32.9624C94.6144 33.3897 94.8728 33.9552 94.8701 34.659C94.8675 35.3628 94.6048 35.9419 94.0822 36.3962C93.5761 36.8429 92.8683 37.0645 91.9588 37.0611L89.5899 37.0522L89.5773 40.4049ZM89.6034 33.4559L89.5943 35.8805L91.8516 35.889C92.3642 35.8909 92.7656 35.788 93.0558 35.5803C93.346 35.3648 93.4919 35.0638 93.4933 34.6771C93.4948 34.2904 93.3512 33.9921 93.0626 33.7822C92.7822 33.5723 92.3816 33.4664 91.8607 33.4644L89.6034 33.4559Z" fill="#F3F3F3"/>
<path d="M98.0373 40.4367L96.673 40.4315L96.7035 32.3109L103.761 32.3374L103.73 40.458L102.366 40.4529L102.392 33.504L98.0634 33.4877L98.0373 40.4367Z" fill="#F3F3F3"/>
<path d="M108.105 38.5719C108.69 39.1464 109.408 39.4353 110.26 39.4384C111.112 39.4416 111.832 39.1582 112.421 38.5881C113.011 38.0025 113.307 37.2844 113.31 36.4336C113.313 35.5752 113.022 34.8587 112.437 34.2841C111.853 33.7019 111.134 33.4092 110.283 33.406C109.431 33.4028 108.711 33.6901 108.121 34.2679C107.54 34.8303 107.248 35.5446 107.245 36.4108C107.242 37.2771 107.528 37.9974 108.105 38.5719ZM113.435 39.4388C112.589 40.2399 111.529 40.6381 110.255 40.6333C108.982 40.6286 107.925 40.2224 107.085 39.4149C106.253 38.592 105.839 37.5889 105.844 36.4056C105.848 35.2146 106.269 34.2184 107.107 33.4173C107.954 32.6084 109.014 32.2063 110.287 32.2111C111.56 32.2159 112.617 32.6259 113.458 33.4411C114.298 34.2486 114.716 35.2479 114.711 36.4389C114.707 37.6299 114.282 38.6299 113.435 39.4388Z" fill="#F3F3F3"/>
<path d="M118.155 40.5122L116.791 40.5071L116.821 32.3864L120.554 32.4004C121.464 32.4039 122.17 32.6269 122.673 33.0697C123.192 33.497 123.45 34.0625 123.448 34.7663C123.445 35.4701 123.182 36.0492 122.66 36.5035C122.154 36.9502 121.446 37.1718 120.536 37.1684L118.168 37.1595L118.155 40.5122ZM118.181 33.5632L118.172 35.9878L120.429 35.9963C120.942 35.9982 121.343 35.8953 121.633 35.6876C121.924 35.4721 122.07 35.1711 122.071 34.7844C122.072 34.3977 121.929 34.0994 121.64 33.8895C121.36 33.6796 120.959 33.5737 120.438 33.5717L118.181 33.5632Z" fill="#F3F3F3"/>
<path d="M124.951 40.5377L123.5 40.5323L127.326 32.3795L128.64 32.3844L132.405 40.5657L130.941 40.5602L130.006 38.5381L125.889 38.5226L124.951 40.5377ZM127.965 33.9944L126.364 37.3991L129.539 37.411L127.965 33.9944Z" fill="#F3F3F3"/>
<path d="M142.243 42.3428L140.953 42.338L140.959 40.5978L134.001 40.5717L134.032 32.4511L135.396 32.4562L135.37 39.4051L139.637 39.4211L139.663 32.4722L141.027 32.4773L141.001 39.4263L142.254 39.431L142.243 42.3428Z" fill="#F3F3F3"/>
<path d="M145.129 40.6135L143.963 40.6091L143.994 32.4885L145.358 32.4936L145.336 38.4565L150.133 32.5115L151.324 32.516L151.293 40.6366L149.929 40.6315L149.952 34.6454L145.129 40.6135Z" fill="#F3F3F3"/>
<path d="M154.625 40.6491L152.976 40.6429L155.755 37.0802C155.144 36.9465 154.669 36.6817 154.332 36.286C153.994 35.8826 153.826 35.3986 153.829 34.834C153.831 34.1302 154.09 33.5705 154.604 33.1548C155.126 32.7391 155.83 32.5329 156.715 32.5362L160.671 32.5511L160.641 40.6717L159.276 40.6666L159.289 37.2327L157.255 37.2251L154.625 40.6491ZM156.763 36.0979L159.293 36.1074L159.302 33.7177L156.772 33.7082C156.284 33.7063 155.9 33.8132 155.618 34.0286C155.344 34.2364 155.206 34.5259 155.205 34.8972C155.204 35.2761 155.339 35.5705 155.611 35.7804C155.891 35.9903 156.275 36.0961 156.763 36.0979Z" fill="#F3F3F3"/>
<path d="M167.886 40.6989L166.521 40.6938L166.552 32.5732L170.285 32.5872C171.195 32.5906 171.901 32.8137 172.403 33.2564C172.923 33.6837 173.181 34.2493 173.178 34.9531C173.176 35.6569 172.913 36.2359 172.39 36.6903C171.884 37.1369 171.177 37.3586 170.267 37.3552L167.898 37.3463L167.886 40.6989ZM167.912 33.75L167.903 36.1746L170.16 36.183C170.673 36.185 171.074 36.0821 171.364 35.8743C171.654 35.6589 171.8 35.3578 171.802 34.9711C171.803 34.5844 171.659 34.2861 171.371 34.0762C171.091 33.8663 170.69 33.7604 170.169 33.7585L167.912 33.75Z" fill="#F3F3F3"/>
<path d="M174.682 40.7244L173.23 40.719L177.056 32.5662L178.371 32.5711L182.136 40.7524L180.672 40.7469L179.737 38.7248L175.619 38.7094L174.682 40.7244ZM177.695 34.1812L176.095 37.5859L179.27 37.5978L177.695 34.1812Z" fill="#F3F3F3"/>
<path d="M186.187 40.9185C184.972 40.9139 183.96 40.6781 183.151 40.211L183.156 38.9581C183.535 39.1838 183.981 39.3672 184.493 39.5084C185.014 39.6495 185.514 39.721 185.993 39.7228C186.729 39.7256 187.308 39.6001 187.731 39.3465C188.162 39.0852 188.378 38.738 188.38 38.3049C188.381 37.9259 188.188 37.6197 187.8 37.3862C187.413 37.1527 186.901 37.0348 186.264 37.0324L185.185 37.0283L185.189 35.8566L186.429 35.8613C186.959 35.8633 187.368 35.7682 187.658 35.5759C187.949 35.3836 188.094 35.1173 188.096 34.7771C188.097 34.4368 187.928 34.1732 187.59 33.9863C187.26 33.7917 186.806 33.6933 186.227 33.6911C185.301 33.6877 184.407 33.8815 183.546 34.2727L183.55 33.101C184.403 32.6943 185.322 32.4928 186.306 32.4965C187.248 32.5001 188.008 32.704 188.585 33.1083C189.163 33.5127 189.45 34.0474 189.448 34.7125C189.446 35.1534 189.304 35.5163 189.022 35.8014C188.74 36.0865 188.429 36.2826 188.089 36.3896C188.544 36.515 188.94 36.7563 189.277 37.1133C189.615 37.4549 189.783 37.8886 189.781 38.4145C189.778 39.1415 189.454 39.7435 188.807 40.2206C188.168 40.69 187.295 40.9226 186.187 40.9185Z" fill="#F3F3F3"/>
<path d="M196.035 40.8046L191.768 40.7886L191.799 32.668L195.743 32.6828C196.528 32.6857 197.148 32.8659 197.601 33.2234C198.063 33.5809 198.293 34.069 198.29 34.6877C198.289 35.0899 198.18 35.4375 197.964 35.7306C197.748 36.0237 197.47 36.2315 197.13 36.3539C197.676 36.4488 198.117 36.6902 198.455 37.0782C198.801 37.4662 198.972 37.9502 198.97 38.5302C198.968 39.2186 198.701 39.7705 198.17 40.1862C197.648 40.6019 196.936 40.808 196.035 40.8046ZM193.146 37.0698L193.137 39.622L195.791 39.632C196.32 39.634 196.734 39.5234 197.033 39.3002C197.339 39.0694 197.494 38.749 197.495 38.3391C197.497 37.9369 197.349 37.627 197.052 37.4093C196.755 37.1917 196.338 37.0818 195.801 37.0798L193.146 37.0698ZM193.159 33.8448L193.151 35.9445L195.495 35.9533C195.95 35.9551 196.301 35.8674 196.55 35.6905C196.807 35.5058 196.936 35.2434 196.937 34.9031C196.939 34.5628 196.812 34.3032 196.556 34.1244C196.308 33.9455 195.957 33.8553 195.503 33.8536L193.159 33.8448Z" fill="#F3F3F3"/>
<path d="M202.121 40.8275L200.955 40.8231L200.985 32.7025L202.35 32.7076L202.327 38.6705L207.125 32.7255L208.315 32.73L208.285 40.8506L206.921 40.8455L206.943 34.8594L202.121 40.8275Z" fill="#F3F3F3"/>
<path d="M210.043 33.9082L210.047 32.7365L217.154 32.7632L217.15 33.9349L214.272 33.9241L214.246 40.873L212.882 40.8679L212.908 33.9189L210.043 33.9082Z" fill="#F3F3F3"/>
<path d="M220.022 40.8947L218.856 40.8903L218.887 32.7697L220.251 32.7748L220.228 38.7377L225.026 32.7927L226.217 32.7972L226.186 40.9178L224.822 40.9127L224.844 34.9266L220.022 40.8947Z" fill="#F3F3F3"/>
<path d="M229.518 40.9303L227.868 40.9242L230.648 37.3615C230.036 37.2277 229.562 36.9629 229.224 36.5672C228.887 36.1638 228.719 35.6798 228.721 35.1152C228.724 34.4114 228.982 33.8517 229.497 33.436C230.019 33.0203 230.723 32.8141 231.607 32.8174L235.564 32.8323L235.533 40.9529L234.169 40.9478L234.182 37.5139L232.148 37.5063L229.518 40.9303ZM231.656 36.3792L234.186 36.3887L234.195 33.9989L231.665 33.9894C231.177 33.9875 230.792 34.0944 230.51 34.3099C230.237 34.5177 230.099 34.8072 230.098 35.1784C230.096 35.5574 230.232 35.8518 230.504 36.0616C230.784 36.2715 231.168 36.3773 231.656 36.3792Z" fill="#F3F3F3"/>
<path d="M70.9447 57.7365L69.5804 57.7314L69.6109 49.6108L70.9752 49.6159L70.9631 52.8177L75.4901 52.8347L75.5022 49.6329L76.8665 49.638L76.836 57.7587L75.4717 57.7535L75.4857 54.0064L70.9587 53.9894L70.9447 57.7365Z" fill="#F3F3F3"/>
<path d="M80.4053 57.7721L79.2395 57.7677L79.27 49.647L80.6343 49.6522L80.6119 55.615L85.4093 49.6701L86.6 49.6746L86.5695 57.7952L85.2052 57.7901L85.2277 51.804L80.4053 57.7721Z" fill="#F3F3F3"/>
<path d="M89.8023 57.8073L88.0163 57.8006L92.1623 53.5702L88.5677 49.682L90.2544 49.6883L93.4909 53.1692L93.504 49.7005L94.8683 49.7056L94.8552 53.1743L98.1302 49.7179L99.8418 49.7243L96.1808 53.5853L100.32 57.8468L98.5338 57.8401L94.8518 54.1024L94.8378 57.8262L93.4735 57.8211L93.4875 54.0856L89.8023 57.8073Z" fill="#F3F3F3"/>
<path d="M108.105 57.8761L101.767 57.8523L101.798 49.7316L107.974 49.7548L107.97 50.9265L103.158 50.9084L103.15 52.9386L107.069 52.9533L107.065 54.125L103.146 54.1103L103.136 56.6857L108.11 56.7044L108.105 57.8761Z" fill="#F3F3F3"/>
<path d="M111.325 57.8882L109.961 57.883L109.991 49.7624L116.069 49.7852L116.064 50.9569L111.351 50.9392L111.325 57.8882Z" fill="#F3F3F3"/>
<path d="M119.128 56.0149C119.713 56.5894 120.431 56.8783 121.283 56.8815C122.135 56.8847 122.855 56.6012 123.444 56.0311C124.034 55.4455 124.33 54.7274 124.333 53.8766C124.336 53.0182 124.045 52.3017 123.46 51.7271C122.876 51.1449 122.157 50.8522 121.306 50.849C120.454 50.8458 119.734 51.1331 119.144 51.7109C118.563 52.2733 118.271 52.9876 118.268 53.8539C118.265 54.7201 118.551 55.4404 119.128 56.0149ZM124.458 56.8818C123.612 57.6829 122.552 58.0811 121.278 58.0763C120.005 58.0716 118.948 57.6654 118.108 56.8579C117.276 56.035 116.862 55.0319 116.867 53.8486C116.871 52.6576 117.292 51.6615 118.13 50.8603C118.977 50.0514 120.037 49.6493 121.31 49.6541C122.583 49.6589 123.64 50.0689 124.481 50.8841C125.321 51.6916 125.739 52.6909 125.734 53.8819C125.73 55.0729 125.305 56.0729 124.458 56.8818Z" fill="#F3F3F3"/>
<path d="M129.178 57.9552L127.814 57.9501L127.844 49.8294L131.577 49.8435C132.487 49.8469 133.193 50.0699 133.696 50.5127C134.215 50.94 134.473 51.5055 134.471 52.2093C134.468 52.9131 134.205 53.4922 133.683 53.9465C133.177 54.3932 132.469 54.6148 131.559 54.6114L129.191 54.6025L129.178 57.9552ZM129.204 51.0062L129.195 53.4308L131.452 53.4393C131.965 53.4412 132.366 53.3383 132.656 53.1306C132.947 52.9151 133.093 52.6141 133.094 52.2274C133.095 51.8407 132.952 51.5424 132.663 51.3325C132.383 51.1226 131.982 51.0167 131.461 51.0147L129.204 51.0062Z" fill="#F3F3F3"/>
<path d="M138.24 56.0866C138.825 56.6612 139.544 56.95 140.395 56.9532C141.247 56.9564 141.967 56.673 142.557 56.1029C143.146 55.5173 143.442 54.7991 143.445 53.9484C143.449 53.0899 143.158 52.3734 142.573 51.7989C141.988 51.2167 141.27 50.9239 140.418 50.9207C139.566 50.9175 138.846 51.2049 138.257 51.7827C137.676 52.3451 137.384 53.0594 137.38 53.9256C137.377 54.7918 137.664 55.5122 138.24 56.0866ZM143.57 56.9535C142.724 57.7547 141.664 58.1529 140.391 58.1481C139.117 58.1433 138.061 57.7372 137.22 56.9297C136.388 56.1068 135.974 55.1036 135.979 53.9204C135.983 52.7293 136.405 51.7332 137.243 50.932C138.089 50.1231 139.149 49.7211 140.422 49.7258C141.696 49.7306 142.753 50.1406 143.593 50.9559C144.433 51.7634 144.851 52.7626 144.847 53.9537C144.842 55.1447 144.417 56.1446 143.57 56.9535Z" fill="#F3F3F3"/>
<path d="M146.819 59.7616L145.53 59.7568L145.541 56.8449L146.371 56.848C146.829 56.2078 147.166 55.455 147.385 54.5896C147.603 53.701 147.715 52.5143 147.72 51.0294L147.725 49.9041L153.467 49.9256L153.441 56.8746L154.694 56.8793L154.683 59.7911L153.393 59.7863L153.399 58.0461L146.826 58.0215L146.819 59.7616ZM147.86 56.8536L152.077 56.8695L152.098 51.0922L149.047 51.0808C149.042 52.4342 148.951 53.5708 148.774 54.4904C148.597 55.4179 148.292 56.2056 147.86 56.8536Z" fill="#F3F3F3"/>
<path d="M160.669 58.2243C159.371 58.2194 158.281 57.8209 157.4 57.0287C156.534 56.2288 156.104 55.2179 156.109 53.9959C156.113 52.774 156.551 51.7702 157.422 50.9846C158.285 50.1912 159.378 49.797 160.701 49.802C161.586 49.8053 162.371 49.99 163.056 50.3561L163.051 51.6438C162.349 51.2158 161.569 51.0002 160.709 50.9969C159.799 50.9935 159.038 51.2768 158.424 51.8468C157.818 52.4091 157.513 53.1273 157.51 54.0012C157.507 54.8751 157.81 55.5994 158.42 56.174C159.03 56.7409 159.802 57.0261 160.736 57.0296C161.728 57.0333 162.556 56.7889 163.219 56.2964L163.214 57.5842C162.485 58.0145 161.637 58.2279 160.669 58.2243Z" fill="#F3F3F3"/>
<path d="M166.494 58.0953L165.13 58.0902L165.16 49.9696L166.525 49.9747L166.512 53.2925L170.084 49.988L171.833 49.9946L167.801 53.6918L172.448 58.1177L170.587 58.1107L166.509 54.1974L166.494 58.0953Z" fill="#F3F3F3"/>
<path d="M175.012 56.2247C175.597 56.7992 176.315 57.0881 177.167 57.0913C178.018 57.0945 178.739 56.811 179.328 56.2409C179.917 55.6553 180.213 54.9372 180.217 54.0865C180.22 53.228 179.929 52.5115 179.344 51.937C178.759 51.3547 178.041 51.062 177.189 51.0588C176.338 51.0556 175.617 51.3429 175.028 51.9208C174.447 52.4832 174.155 53.1975 174.152 54.0637C174.148 54.9299 174.435 55.6502 175.012 56.2247ZM180.342 57.0916C179.495 57.8928 178.435 58.291 177.162 58.2862C175.889 58.2814 174.832 57.8753 173.991 57.0678C173.159 56.2448 172.746 55.2417 172.75 54.0584C172.755 52.8674 173.176 51.8713 174.014 51.0701C174.86 50.2612 175.92 49.8591 177.194 49.8639C178.467 49.8687 179.524 50.2787 180.364 51.0939C181.205 51.9014 181.623 52.9007 181.618 54.0917C181.614 55.2828 181.188 56.2827 180.342 57.0916Z" fill="#F3F3F3"/>
<path d="M184.863 58.1643L183.697 58.1599L183.728 50.0393L185.092 50.0444L185.07 56.0073L189.867 50.0623L191.058 50.0668L191.027 58.1874L189.663 58.1823L189.685 52.1962L184.863 58.1643ZM187.388 49.5774C186.735 49.5749 186.207 49.3989 185.803 49.0494C185.399 48.6998 185.194 48.235 185.188 47.6549L186.329 47.6592C186.328 47.9454 186.422 48.1777 186.612 48.3563C186.801 48.5272 187.057 48.6132 187.38 48.6144C187.702 48.6157 187.959 48.5277 188.149 48.3505C188.34 48.1733 188.44 47.9456 188.45 47.6672L189.591 47.6715C189.58 48.2515 189.368 48.7147 188.953 49.0612C188.547 49.4077 188.025 49.5798 187.388 49.5774Z" fill="#F3F3F3"/>
<path d="M198.866 56.3143C199.451 56.8888 200.169 57.1777 201.021 57.1809C201.872 57.1841 202.593 56.9006 203.182 56.3305C203.771 55.7449 204.067 55.0268 204.07 54.176C204.074 53.3176 203.783 52.6011 203.198 52.0266C202.613 51.4443 201.895 51.1516 201.043 51.1484C200.191 51.1452 199.471 51.4325 198.882 52.0103C198.301 52.5728 198.009 53.2871 198.006 54.1533C198.002 55.0195 198.289 55.7398 198.866 56.3143ZM204.196 57.1812C203.349 57.9823 202.289 58.3805 201.016 58.3758C199.743 58.371 198.686 57.9648 197.845 57.1573C197.013 56.3344 196.6 55.3313 196.604 54.148C196.609 52.957 197.03 51.9609 197.868 51.1597C198.714 50.3508 199.774 49.9487 201.048 49.9535C202.321 49.9583 203.378 50.3683 204.218 51.1835C205.059 51.991 205.476 52.9903 205.472 54.1813C205.468 55.3723 205.042 56.3723 204.196 57.1812Z" fill="#F3F3F3"/>
<path d="M211.222 58.2633L207.551 58.2495L207.582 50.1288L213.709 50.1518L213.704 51.3235L208.942 51.3057L208.935 53.0226L211.242 53.0313C212.226 53.0349 213.002 53.2815 213.571 53.7709C214.14 54.2525 214.423 54.8839 214.42 55.665C214.417 56.4539 214.129 57.0831 213.557 57.5528C212.993 58.0302 212.215 58.267 211.222 58.2633ZM208.931 54.1943L208.92 57.0829L211.103 57.0911C211.715 57.0934 212.186 56.9714 212.518 56.7252C212.858 56.4712 213.029 56.1161 213.031 55.6598C213.032 55.2035 212.864 54.8471 212.526 54.5906C212.188 54.3341 211.717 54.2047 211.114 54.2025L208.931 54.1943Z" fill="#F3F3F3"/>
<path d="M215.432 58.2559L215.436 57.0958C215.543 57.1271 215.696 57.1432 215.895 57.1439C216.507 57.1462 216.913 56.792 217.114 56.0812C217.315 55.4709 217.435 54.4273 217.473 52.9502L217.521 50.1662L223.301 50.1879L223.27 58.3085L221.906 58.3034L221.932 51.3544L218.831 51.3428L218.788 53.0828C218.748 54.8383 218.54 56.1407 218.165 56.99C217.773 57.878 217.04 58.3199 215.965 58.3159C215.75 58.3151 215.572 58.2951 215.432 58.2559Z" fill="#F3F3F3"/>
<path d="M226.315 58.3199L224.864 58.3145L228.69 50.1617L230.005 50.1666L233.769 58.3479L232.306 58.3424L231.371 56.3203L227.253 56.3049L226.315 58.3199ZM229.329 51.7766L227.729 55.1813L230.904 55.1933L229.329 51.7766Z" fill="#F3F3F3"/>
<path d="M239.014 58.5184C237.716 58.5136 236.626 58.115 235.744 57.3228C234.879 56.523 234.449 55.5121 234.453 54.2901C234.458 53.0682 234.896 52.0644 235.767 51.2788C236.63 50.4854 237.723 50.0912 239.046 50.0962C239.93 50.0995 240.715 50.2842 241.4 50.6503L241.395 51.938C240.694 51.51 239.914 51.2943 239.054 51.2911C238.144 51.2877 237.382 51.571 236.768 52.141C236.163 52.7033 235.858 53.4214 235.855 54.2954C235.851 55.1693 236.155 55.8936 236.764 56.4682C237.374 57.0351 238.146 57.3203 239.081 57.3238C240.073 57.3275 240.901 57.0831 241.564 56.5906L241.559 57.8783C240.83 58.3087 239.981 58.5221 239.014 58.5184Z" fill="#F3F3F3"/>
<path d="M242.831 51.4329L242.835 50.2612L249.942 50.2879L249.938 51.4596L247.06 51.4488L247.034 58.3977L245.67 58.3926L245.696 51.4437L242.831 51.4329Z" fill="#F3F3F3"/>
<path d="M252.81 58.4194L251.644 58.415L251.674 50.2944L253.039 50.2995L253.016 56.2624L257.814 50.3175L259.004 50.3219L258.974 58.4426L257.61 58.4374L257.632 52.4514L252.81 58.4194Z" fill="#F3F3F3"/>
<path d="M71.01 40.3352L69.6457 40.33L69.6762 32.2094L71.0405 32.2145L71.028 35.5324L74.6001 32.2279L76.3489 32.2345L72.3164 35.9317L76.9633 40.3575L75.1029 40.3505L71.0246 36.4373L71.01 40.3352Z" stroke="#F3F3F3" stroke-width="0.2" mask="url(#path-2-outside-1_408_25367)"/>
<path d="M79.5275 38.4646C80.1124 39.0391 80.8307 39.3279 81.6823 39.3311C82.534 39.3343 83.2544 39.0509 83.8436 38.4808C84.4329 37.8952 84.7291 37.177 84.7323 36.3263C84.7355 35.4678 84.4447 34.7514 83.8598 34.1768C83.2749 33.5946 82.5566 33.3019 81.705 33.2987C80.8533 33.2955 80.1329 33.5828 79.5436 34.1606C78.9627 34.723 78.6706 35.4373 78.6674 36.3035C78.6641 37.1697 78.9508 37.8901 79.5275 38.4646ZM84.8575 39.3315C84.0111 40.1326 82.9512 40.5308 81.6778 40.526C80.4045 40.5213 79.3476 40.1151 78.5073 39.3076C77.6752 38.4847 77.2614 37.4816 77.2659 36.2983C77.2703 35.1073 77.6916 34.1111 78.5298 33.3099C79.3762 32.5011 80.4361 32.099 81.7095 32.1038C82.9828 32.1086 84.0396 32.5186 84.88 33.3338C85.7203 34.1413 86.1383 35.1406 86.1338 36.3316C86.1294 37.5226 85.7039 38.5226 84.8575 39.3315Z" stroke="#F3F3F3" stroke-width="0.2" mask="url(#path-2-outside-1_408_25367)"/>
<path d="M89.5773 40.4049L88.213 40.3998L88.2435 32.2791L91.9767 32.2931C92.8862 32.2966 93.5924 32.5196 94.0951 32.9624C94.6144 33.3897 94.8728 33.9552 94.8701 34.659C94.8675 35.3628 94.6048 35.9419 94.0822 36.3962C93.5761 36.8429 92.8683 37.0645 91.9588 37.0611L89.5899 37.0522L89.5773 40.4049ZM89.6034 33.4559L89.5943 35.8805L91.8516 35.889C92.3642 35.8909 92.7656 35.788 93.0558 35.5803C93.346 35.3648 93.4919 35.0638 93.4933 34.6771C93.4948 34.2904 93.3512 33.9921 93.0626 33.7822C92.7822 33.5723 92.3816 33.4664 91.8607 33.4644L89.6034 33.4559Z" stroke="#F3F3F3" stroke-width="0.2" mask="url(#path-2-outside-1_408_25367)"/>
<path d="M98.0373 40.4367L96.673 40.4315L96.7035 32.3109L103.761 32.3374L103.73 40.458L102.366 40.4529L102.392 33.504L98.0634 33.4877L98.0373 40.4367Z" stroke="#F3F3F3" stroke-width="0.2" mask="url(#path-2-outside-1_408_25367)"/>
<path d="M108.105 38.5719C108.69 39.1464 109.408 39.4353 110.26 39.4384C111.112 39.4416 111.832 39.1582 112.421 38.5881C113.011 38.0025 113.307 37.2844 113.31 36.4336C113.313 35.5752 113.022 34.8587 112.437 34.2841C111.853 33.7019 111.134 33.4092 110.283 33.406C109.431 33.4028 108.711 33.6901 108.121 34.2679C107.54 34.8303 107.248 35.5446 107.245 36.4108C107.242 37.2771 107.528 37.9974 108.105 38.5719ZM113.435 39.4388C112.589 40.2399 111.529 40.6381 110.255 40.6333C108.982 40.6286 107.925 40.2224 107.085 39.4149C106.253 38.592 105.839 37.5889 105.844 36.4056C105.848 35.2146 106.269 34.2184 107.107 33.4173C107.954 32.6084 109.014 32.2063 110.287 32.2111C111.56 32.2159 112.617 32.6259 113.458 33.4411C114.298 34.2486 114.716 35.2479 114.711 36.4389C114.707 37.6299 114.282 38.6299 113.435 39.4388Z" stroke="#F3F3F3" stroke-width="0.2" mask="url(#path-2-outside-1_408_25367)"/>
<path d="M118.155 40.5122L116.791 40.5071L116.821 32.3864L120.554 32.4004C121.464 32.4039 122.17 32.6269 122.673 33.0697C123.192 33.497 123.45 34.0625 123.448 34.7663C123.445 35.4701 123.182 36.0492 122.66 36.5035C122.154 36.9502 121.446 37.1718 120.536 37.1684L118.168 37.1595L118.155 40.5122ZM118.181 33.5632L118.172 35.9878L120.429 35.9963C120.942 35.9982 121.343 35.8953 121.633 35.6876C121.924 35.4721 122.07 35.1711 122.071 34.7844C122.072 34.3977 121.929 34.0994 121.64 33.8895C121.36 33.6796 120.959 33.5737 120.438 33.5717L118.181 33.5632Z" stroke="#F3F3F3" stroke-width="0.2" mask="url(#path-2-outside-1_408_25367)"/>
<path d="M124.951 40.5377L123.5 40.5323L127.326 32.3795L128.64 32.3844L132.405 40.5657L130.941 40.5602L130.006 38.5381L125.889 38.5226L124.951 40.5377ZM127.965 33.9944L126.364 37.3991L129.539 37.411L127.965 33.9944Z" stroke="#F3F3F3" stroke-width="0.2" mask="url(#path-2-outside-1_408_25367)"/>
<path d="M142.243 42.3428L140.953 42.338L140.959 40.5978L134.001 40.5717L134.032 32.4511L135.396 32.4562L135.37 39.4051L139.637 39.4211L139.663 32.4722L141.027 32.4773L141.001 39.4263L142.254 39.431L142.243 42.3428Z" stroke="#F3F3F3" stroke-width="0.2" mask="url(#path-2-outside-1_408_25367)"/>
<path d="M145.129 40.6135L143.963 40.6091L143.994 32.4885L145.358 32.4936L145.336 38.4565L150.133 32.5115L151.324 32.516L151.293 40.6366L149.929 40.6315L149.952 34.6454L145.129 40.6135Z" stroke="#F3F3F3" stroke-width="0.2" mask="url(#path-2-outside-1_408_25367)"/>
<path d="M154.625 40.6491L152.976 40.6429L155.755 37.0802C155.144 36.9465 154.669 36.6817 154.332 36.286C153.994 35.8826 153.826 35.3986 153.829 34.834C153.831 34.1302 154.09 33.5705 154.604 33.1548C155.126 32.7391 155.83 32.5329 156.715 32.5362L160.671 32.5511L160.641 40.6717L159.276 40.6666L159.289 37.2327L157.255 37.2251L154.625 40.6491ZM156.763 36.0979L159.293 36.1074L159.302 33.7177L156.772 33.7082C156.284 33.7063 155.9 33.8132 155.618 34.0286C155.344 34.2364 155.206 34.5259 155.205 34.8972C155.204 35.2761 155.339 35.5705 155.611 35.7804C155.891 35.9903 156.275 36.0961 156.763 36.0979Z" stroke="#F3F3F3" stroke-width="0.2" mask="url(#path-2-outside-1_408_25367)"/>
<path d="M167.886 40.6989L166.521 40.6938L166.552 32.5732L170.285 32.5872C171.195 32.5906 171.901 32.8137 172.403 33.2564C172.923 33.6837 173.181 34.2493 173.178 34.9531C173.176 35.6569 172.913 36.2359 172.39 36.6903C171.884 37.1369 171.177 37.3586 170.267 37.3552L167.898 37.3463L167.886 40.6989ZM167.912 33.75L167.903 36.1746L170.16 36.183C170.673 36.185 171.074 36.0821 171.364 35.8743C171.654 35.6589 171.8 35.3578 171.802 34.9711C171.803 34.5844 171.659 34.2861 171.371 34.0762C171.091 33.8663 170.69 33.7604 170.169 33.7585L167.912 33.75Z" stroke="#F3F3F3" stroke-width="0.2" mask="url(#path-2-outside-1_408_25367)"/>
<path d="M174.682 40.7244L173.23 40.719L177.056 32.5662L178.371 32.5711L182.136 40.7524L180.672 40.7469L179.737 38.7248L175.619 38.7094L174.682 40.7244ZM177.695 34.1812L176.095 37.5859L179.27 37.5978L177.695 34.1812Z" stroke="#F3F3F3" stroke-width="0.2" mask="url(#path-2-outside-1_408_25367)"/>
<path d="M186.187 40.9185C184.972 40.9139 183.96 40.6781 183.151 40.211L183.156 38.9581C183.535 39.1838 183.981 39.3672 184.493 39.5084C185.014 39.6495 185.514 39.721 185.993 39.7228C186.729 39.7256 187.308 39.6001 187.731 39.3465C188.162 39.0852 188.378 38.738 188.38 38.3049C188.381 37.9259 188.188 37.6197 187.8 37.3862C187.413 37.1527 186.901 37.0348 186.264 37.0324L185.185 37.0283L185.189 35.8566L186.429 35.8613C186.959 35.8633 187.368 35.7682 187.658 35.5759C187.949 35.3836 188.094 35.1173 188.096 34.7771C188.097 34.4368 187.928 34.1732 187.59 33.9863C187.26 33.7917 186.806 33.6933 186.227 33.6911C185.301 33.6877 184.407 33.8815 183.546 34.2727L183.55 33.101C184.403 32.6943 185.322 32.4928 186.306 32.4965C187.248 32.5001 188.008 32.704 188.585 33.1083C189.163 33.5127 189.45 34.0474 189.448 34.7125C189.446 35.1534 189.304 35.5163 189.022 35.8014C188.74 36.0865 188.429 36.2826 188.089 36.3896C188.544 36.515 188.94 36.7563 189.277 37.1133C189.615 37.4549 189.783 37.8886 189.781 38.4145C189.778 39.1415 189.454 39.7435 188.807 40.2206C188.168 40.69 187.295 40.9226 186.187 40.9185Z" stroke="#F3F3F3" stroke-width="0.2" mask="url(#path-2-outside-1_408_25367)"/>
<path d="M196.035 40.8046L191.768 40.7886L191.799 32.668L195.743 32.6828C196.528 32.6857 197.148 32.8659 197.601 33.2234C198.063 33.5809 198.293 34.069 198.29 34.6877C198.289 35.0899 198.18 35.4375 197.964 35.7306C197.748 36.0237 197.47 36.2315 197.13 36.3539C197.676 36.4488 198.117 36.6902 198.455 37.0782C198.801 37.4662 198.972 37.9502 198.97 38.5302C198.968 39.2186 198.701 39.7705 198.17 40.1862C197.648 40.6019 196.936 40.808 196.035 40.8046ZM193.146 37.0698L193.137 39.622L195.791 39.632C196.32 39.634 196.734 39.5234 197.033 39.3002C197.339 39.0694 197.494 38.749 197.495 38.3391C197.497 37.9369 197.349 37.627 197.052 37.4093C196.755 37.1917 196.338 37.0818 195.801 37.0798L193.146 37.0698ZM193.159 33.8448L193.151 35.9445L195.495 35.9533C195.95 35.9551 196.301 35.8674 196.55 35.6905C196.807 35.5058 196.936 35.2434 196.937 34.9031C196.939 34.5628 196.812 34.3032 196.556 34.1244C196.308 33.9455 195.957 33.8553 195.503 33.8536L193.159 33.8448Z" stroke="#F3F3F3" stroke-width="0.2" mask="url(#path-2-outside-1_408_25367)"/>
<path d="M202.121 40.8275L200.955 40.8231L200.985 32.7025L202.35 32.7076L202.327 38.6705L207.125 32.7255L208.315 32.73L208.285 40.8506L206.921 40.8455L206.943 34.8594L202.121 40.8275Z" stroke="#F3F3F3" stroke-width="0.2" mask="url(#path-2-outside-1_408_25367)"/>
<path d="M210.043 33.9082L210.047 32.7365L217.154 32.7632L217.15 33.9349L214.272 33.9241L214.246 40.873L212.882 40.8679L212.908 33.9189L210.043 33.9082Z" stroke="#F3F3F3" stroke-width="0.2" mask="url(#path-2-outside-1_408_25367)"/>
<path d="M220.022 40.8947L218.856 40.8903L218.887 32.7697L220.251 32.7748L220.228 38.7377L225.026 32.7927L226.217 32.7972L226.186 40.9178L224.822 40.9127L224.844 34.9266L220.022 40.8947Z" stroke="#F3F3F3" stroke-width="0.2" mask="url(#path-2-outside-1_408_25367)"/>
<path d="M229.518 40.9303L227.868 40.9242L230.648 37.3615C230.036 37.2277 229.562 36.9629 229.224 36.5672C228.887 36.1638 228.719 35.6798 228.721 35.1152C228.724 34.4114 228.982 33.8517 229.497 33.436C230.019 33.0203 230.723 32.8141 231.607 32.8174L235.564 32.8323L235.533 40.9529L234.169 40.9478L234.182 37.5139L232.148 37.5063L229.518 40.9303ZM231.656 36.3792L234.186 36.3887L234.195 33.9989L231.665 33.9894C231.177 33.9875 230.792 34.0944 230.51 34.3099C230.237 34.5177 230.099 34.8072 230.098 35.1784C230.096 35.5574 230.232 35.8518 230.504 36.0616C230.784 36.2715 231.168 36.3773 231.656 36.3792Z" stroke="#F3F3F3" stroke-width="0.2" mask="url(#path-2-outside-1_408_25367)"/>
<path d="M70.9447 57.7365L69.5804 57.7314L69.6109 49.6108L70.9752 49.6159L70.9631 52.8177L75.4901 52.8347L75.5022 49.6329L76.8665 49.638L76.836 57.7587L75.4717 57.7535L75.4857 54.0064L70.9587 53.9894L70.9447 57.7365Z" stroke="#F3F3F3" stroke-width="0.2" mask="url(#path-2-outside-1_408_25367)"/>
<path d="M80.4053 57.7721L79.2395 57.7677L79.27 49.647L80.6343 49.6522L80.6119 55.615L85.4093 49.6701L86.6 49.6746L86.5695 57.7952L85.2052 57.7901L85.2277 51.804L80.4053 57.7721Z" stroke="#F3F3F3" stroke-width="0.2" mask="url(#path-2-outside-1_408_25367)"/>
<path d="M89.8023 57.8073L88.0163 57.8006L92.1623 53.5702L88.5677 49.682L90.2544 49.6883L93.4909 53.1692L93.504 49.7005L94.8683 49.7056L94.8552 53.1743L98.1302 49.7179L99.8418 49.7243L96.1808 53.5853L100.32 57.8468L98.5338 57.8401L94.8518 54.1024L94.8378 57.8262L93.4735 57.8211L93.4875 54.0856L89.8023 57.8073Z" stroke="#F3F3F3" stroke-width="0.2" mask="url(#path-2-outside-1_408_25367)"/>
<path d="M108.105 57.8761L101.767 57.8523L101.798 49.7316L107.974 49.7548L107.97 50.9265L103.158 50.9084L103.15 52.9386L107.069 52.9533L107.065 54.125L103.146 54.1103L103.136 56.6857L108.11 56.7044L108.105 57.8761Z" stroke="#F3F3F3" stroke-width="0.2" mask="url(#path-2-outside-1_408_25367)"/>
<path d="M111.325 57.8882L109.961 57.883L109.991 49.7624L116.069 49.7852L116.064 50.9569L111.351 50.9392L111.325 57.8882Z" stroke="#F3F3F3" stroke-width="0.2" mask="url(#path-2-outside-1_408_25367)"/>
<path d="M119.128 56.0149C119.713 56.5894 120.431 56.8783 121.283 56.8815C122.135 56.8847 122.855 56.6012 123.444 56.0311C124.034 55.4455 124.33 54.7274 124.333 53.8766C124.336 53.0182 124.045 52.3017 123.46 51.7271C122.876 51.1449 122.157 50.8522 121.306 50.849C120.454 50.8458 119.734 51.1331 119.144 51.7109C118.563 52.2733 118.271 52.9876 118.268 53.8539C118.265 54.7201 118.551 55.4404 119.128 56.0149ZM124.458 56.8818C123.612 57.6829 122.552 58.0811 121.278 58.0763C120.005 58.0716 118.948 57.6654 118.108 56.8579C117.276 56.035 116.862 55.0319 116.867 53.8486C116.871 52.6576 117.292 51.6615 118.13 50.8603C118.977 50.0514 120.037 49.6493 121.31 49.6541C122.583 49.6589 123.64 50.0689 124.481 50.8841C125.321 51.6916 125.739 52.6909 125.734 53.8819C125.73 55.0729 125.305 56.0729 124.458 56.8818Z" stroke="#F3F3F3" stroke-width="0.2" mask="url(#path-2-outside-1_408_25367)"/>
<path d="M129.178 57.9552L127.814 57.9501L127.844 49.8294L131.577 49.8435C132.487 49.8469 133.193 50.0699 133.696 50.5127C134.215 50.94 134.473 51.5055 134.471 52.2093C134.468 52.9131 134.205 53.4922 133.683 53.9465C133.177 54.3932 132.469 54.6148 131.559 54.6114L129.191 54.6025L129.178 57.9552ZM129.204 51.0062L129.195 53.4308L131.452 53.4393C131.965 53.4412 132.366 53.3383 132.656 53.1306C132.947 52.9151 133.093 52.6141 133.094 52.2274C133.095 51.8407 132.952 51.5424 132.663 51.3325C132.383 51.1226 131.982 51.0167 131.461 51.0147L129.204 51.0062Z" stroke="#F3F3F3" stroke-width="0.2" mask="url(#path-2-outside-1_408_25367)"/>
<path d="M138.24 56.0866C138.825 56.6612 139.544 56.95 140.395 56.9532C141.247 56.9564 141.967 56.673 142.557 56.1029C143.146 55.5173 143.442 54.7991 143.445 53.9484C143.449 53.0899 143.158 52.3734 142.573 51.7989C141.988 51.2167 141.27 50.9239 140.418 50.9207C139.566 50.9175 138.846 51.2049 138.257 51.7827C137.676 52.3451 137.384 53.0594 137.38 53.9256C137.377 54.7918 137.664 55.5122 138.24 56.0866ZM143.57 56.9535C142.724 57.7547 141.664 58.1529 140.391 58.1481C139.117 58.1433 138.061 57.7372 137.22 56.9297C136.388 56.1068 135.974 55.1036 135.979 53.9204C135.983 52.7293 136.405 51.7332 137.243 50.932C138.089 50.1231 139.149 49.7211 140.422 49.7258C141.696 49.7306 142.753 50.1406 143.593 50.9559C144.433 51.7634 144.851 52.7626 144.847 53.9537C144.842 55.1447 144.417 56.1446 143.57 56.9535Z" stroke="#F3F3F3" stroke-width="0.2" mask="url(#path-2-outside-1_408_25367)"/>
<path d="M146.819 59.7616L145.53 59.7568L145.541 56.8449L146.371 56.848C146.829 56.2078 147.166 55.455 147.385 54.5896C147.603 53.701 147.715 52.5143 147.72 51.0294L147.725 49.9041L153.467 49.9256L153.441 56.8746L154.694 56.8793L154.683 59.7911L153.393 59.7863L153.399 58.0461L146.826 58.0215L146.819 59.7616ZM147.86 56.8536L152.077 56.8695L152.098 51.0922L149.047 51.0808C149.042 52.4342 148.951 53.5708 148.774 54.4904C148.597 55.4179 148.292 56.2056 147.86 56.8536Z" stroke="#F3F3F3" stroke-width="0.2" mask="url(#path-2-outside-1_408_25367)"/>
<path d="M160.669 58.2243C159.371 58.2194 158.281 57.8209 157.4 57.0287C156.534 56.2288 156.104 55.2179 156.109 53.9959C156.113 52.774 156.551 51.7702 157.422 50.9846C158.285 50.1912 159.378 49.797 160.701 49.802C161.586 49.8053 162.371 49.99 163.056 50.3561L163.051 51.6438C162.349 51.2158 161.569 51.0002 160.709 50.9969C159.799 50.9935 159.038 51.2768 158.424 51.8468C157.818 52.4091 157.513 53.1273 157.51 54.0012C157.507 54.8751 157.81 55.5994 158.42 56.174C159.03 56.7409 159.802 57.0261 160.736 57.0296C161.728 57.0333 162.556 56.7889 163.219 56.2964L163.214 57.5842C162.485 58.0145 161.637 58.2279 160.669 58.2243Z" stroke="#F3F3F3" stroke-width="0.2" mask="url(#path-2-outside-1_408_25367)"/>
<path d="M166.494 58.0953L165.13 58.0902L165.16 49.9696L166.525 49.9747L166.512 53.2925L170.084 49.988L171.833 49.9946L167.801 53.6918L172.448 58.1177L170.587 58.1107L166.509 54.1974L166.494 58.0953Z" stroke="#F3F3F3" stroke-width="0.2" mask="url(#path-2-outside-1_408_25367)"/>
<path d="M175.012 56.2247C175.597 56.7992 176.315 57.0881 177.167 57.0913C178.018 57.0945 178.739 56.811 179.328 56.2409C179.917 55.6553 180.213 54.9372 180.217 54.0865C180.22 53.228 179.929 52.5115 179.344 51.937C178.759 51.3547 178.041 51.062 177.189 51.0588C176.338 51.0556 175.617 51.3429 175.028 51.9208C174.447 52.4832 174.155 53.1975 174.152 54.0637C174.148 54.9299 174.435 55.6502 175.012 56.2247ZM180.342 57.0916C179.495 57.8928 178.435 58.291 177.162 58.2862C175.889 58.2814 174.832 57.8753 173.991 57.0678C173.159 56.2448 172.746 55.2417 172.75 54.0584C172.755 52.8674 173.176 51.8713 174.014 51.0701C174.86 50.2612 175.92 49.8591 177.194 49.8639C178.467 49.8687 179.524 50.2787 180.364 51.0939C181.205 51.9014 181.623 52.9007 181.618 54.0917C181.614 55.2828 181.188 56.2827 180.342 57.0916Z" stroke="#F3F3F3" stroke-width="0.2" mask="url(#path-2-outside-1_408_25367)"/>
<path d="M184.863 58.1643L183.697 58.1599L183.728 50.0393L185.092 50.0444L185.07 56.0073L189.867 50.0623L191.058 50.0668L191.027 58.1874L189.663 58.1823L189.685 52.1962L184.863 58.1643ZM187.388 49.5774C186.735 49.5749 186.207 49.3989 185.803 49.0494C185.399 48.6998 185.194 48.235 185.188 47.6549L186.329 47.6592C186.328 47.9454 186.422 48.1777 186.612 48.3563C186.801 48.5272 187.057 48.6132 187.38 48.6144C187.702 48.6157 187.959 48.5277 188.149 48.3505C188.34 48.1733 188.44 47.9456 188.45 47.6672L189.591 47.6715C189.58 48.2515 189.368 48.7147 188.953 49.0612C188.547 49.4077 188.025 49.5798 187.388 49.5774Z" stroke="#F3F3F3" stroke-width="0.2" mask="url(#path-2-outside-1_408_25367)"/>
<path d="M198.866 56.3143C199.451 56.8888 200.169 57.1777 201.021 57.1809C201.872 57.1841 202.593 56.9006 203.182 56.3305C203.771 55.7449 204.067 55.0268 204.07 54.176C204.074 53.3176 203.783 52.6011 203.198 52.0266C202.613 51.4443 201.895 51.1516 201.043 51.1484C200.191 51.1452 199.471 51.4325 198.882 52.0103C198.301 52.5728 198.009 53.2871 198.006 54.1533C198.002 55.0195 198.289 55.7398 198.866 56.3143ZM204.196 57.1812C203.349 57.9823 202.289 58.3805 201.016 58.3758C199.743 58.371 198.686 57.9648 197.845 57.1573C197.013 56.3344 196.6 55.3313 196.604 54.148C196.609 52.957 197.03 51.9609 197.868 51.1597C198.714 50.3508 199.774 49.9487 201.048 49.9535C202.321 49.9583 203.378 50.3683 204.218 51.1835C205.059 51.991 205.476 52.9903 205.472 54.1813C205.468 55.3723 205.042 56.3723 204.196 57.1812Z" stroke="#F3F3F3" stroke-width="0.2" mask="url(#path-2-outside-1_408_25367)"/>
<path d="M211.222 58.2633L207.551 58.2495L207.582 50.1288L213.709 50.1518L213.704 51.3235L208.942 51.3057L208.935 53.0226L211.242 53.0313C212.226 53.0349 213.002 53.2815 213.571 53.7709C214.14 54.2525 214.423 54.8839 214.42 55.665C214.417 56.4539 214.129 57.0831 213.557 57.5528C212.993 58.0302 212.215 58.267 211.222 58.2633ZM208.931 54.1943L208.92 57.0829L211.103 57.0911C211.715 57.0934 212.186 56.9714 212.518 56.7252C212.858 56.4712 213.029 56.1161 213.031 55.6598C213.032 55.2035 212.864 54.8471 212.526 54.5906C212.188 54.3341 211.717 54.2047 211.114 54.2025L208.931 54.1943Z" stroke="#F3F3F3" stroke-width="0.2" mask="url(#path-2-outside-1_408_25367)"/>
<path d="M215.432 58.2559L215.436 57.0958C215.543 57.1271 215.696 57.1432 215.895 57.1439C216.507 57.1462 216.913 56.792 217.114 56.0812C217.315 55.4709 217.435 54.4273 217.473 52.9502L217.521 50.1662L223.301 50.1879L223.27 58.3085L221.906 58.3034L221.932 51.3544L218.831 51.3428L218.788 53.0828C218.748 54.8383 218.54 56.1407 218.165 56.99C217.773 57.878 217.04 58.3199 215.965 58.3159C215.75 58.3151 215.572 58.2951 215.432 58.2559Z" stroke="#F3F3F3" stroke-width="0.2" mask="url(#path-2-outside-1_408_25367)"/>
<path d="M226.315 58.3199L224.864 58.3145L228.69 50.1617L230.005 50.1666L233.769 58.3479L232.306 58.3424L231.371 56.3203L227.253 56.3049L226.315 58.3199ZM229.329 51.7766L227.729 55.1813L230.904 55.1933L229.329 51.7766Z" stroke="#F3F3F3" stroke-width="0.2" mask="url(#path-2-outside-1_408_25367)"/>
<path d="M239.014 58.5184C237.716 58.5136 236.626 58.115 235.744 57.3228C234.879 56.523 234.449 55.5121 234.453 54.2901C234.458 53.0682 234.896 52.0644 235.767 51.2788C236.63 50.4854 237.723 50.0912 239.046 50.0962C239.93 50.0995 240.715 50.2842 241.4 50.6503L241.395 51.938C240.694 51.51 239.914 51.2943 239.054 51.2911C238.144 51.2877 237.382 51.571 236.768 52.141C236.163 52.7033 235.858 53.4214 235.855 54.2954C235.851 55.1693 236.155 55.8936 236.764 56.4682C237.374 57.0351 238.146 57.3203 239.081 57.3238C240.073 57.3275 240.901 57.0831 241.564 56.5906L241.559 57.8783C240.83 58.3087 239.981 58.5221 239.014 58.5184Z" stroke="#F3F3F3" stroke-width="0.2" mask="url(#path-2-outside-1_408_25367)"/>
<path d="M242.831 51.4329L242.835 50.2612L249.942 50.2879L249.938 51.4596L247.06 51.4488L247.034 58.3977L245.67 58.3926L245.696 51.4437L242.831 51.4329Z" stroke="#F3F3F3" stroke-width="0.2" mask="url(#path-2-outside-1_408_25367)"/>
<path d="M252.81 58.4194L251.644 58.415L251.674 50.2944L253.039 50.2995L253.016 56.2624L257.814 50.3175L259.004 50.3219L258.974 58.4426L257.61 58.4374L257.632 52.4514L252.81 58.4194Z" stroke="#F3F3F3" stroke-width="0.2" mask="url(#path-2-outside-1_408_25367)"/>
</g>
</svg>
