<svg width="104" height="66" viewBox="0 0 104 66" fill="none" xmlns="http://www.w3.org/2000/svg">
<g style="mix-blend-mode:luminosity" opacity="0.7">
<path fill-rule="evenodd" clip-rule="evenodd" d="M0.285156 54.8381H103.828V48.3828H0.285156V54.8381ZM100.767 51.4814H99.9551C99.4387 51.4814 99.3649 51.4814 99.3649 50.928C99.3649 50.3378 99.4756 50.3378 99.992 50.3378H100.804V51.4814H100.767ZM101.357 53.3257V49.9321H99.8813C99.2174 49.9321 98.8116 49.969 98.8116 50.9649C98.8116 51.6289 98.996 51.8133 99.328 51.8871L98.7378 53.3626H99.328L99.8813 51.924H100.804V53.3626H101.357V53.3257ZM97.1517 53.3257V49.9321H96.5983L95.086 52.4773V49.9321H94.5327V53.3257H95.086L96.5983 50.7805V53.3257H97.1517ZM92.8727 53.3257V49.9321H92.3194V51.3707H90.8439V49.9321H90.2906V53.3257H90.8439V51.8133H92.3194V53.3257H92.8727ZM87.8929 51.924H86.8232L87.3765 50.3378L87.8929 51.924ZM88.9258 53.3257L87.7454 49.9321H86.9707L85.7903 53.3257H86.3805L86.7125 52.3298H88.0405L88.3725 53.3257H88.9258ZM84.3886 53.3257V49.9321H81.8065V53.3257H82.3598V50.3747H83.8353V53.3257H84.3886ZM80.1465 53.3257V49.9321H79.335L78.4497 52.7724L77.5644 49.9321H76.7529V53.3257H77.2693V50.4854L78.1546 53.3257H78.7448L79.6301 50.4854V53.3257H80.1465ZM74.5396 51.6658C74.5396 52.92 74.5028 52.92 73.765 52.92H73.7281C72.9904 52.92 72.9904 52.92 72.9904 51.6658V51.6289C72.9904 50.301 73.0641 50.301 73.7281 50.301H73.765C74.4659 50.301 74.5396 50.301 74.5396 51.6289V51.6658ZM75.1298 51.6658C75.1298 50.0427 74.9823 49.8583 73.8019 49.8583C72.6215 49.8583 72.4739 50.0427 72.4739 51.6658C72.4739 53.2151 72.5846 53.3995 73.8019 53.3995C75.0192 53.3995 75.1298 53.2151 75.1298 51.6658ZM71.1829 53.3257L69.9656 51.592L71.1091 49.9321H70.4451L69.4492 51.3707H68.9696V49.9321H68.4163V53.3257H68.9696V51.8133H69.4492L70.482 53.3257H71.1829ZM64.8751 51.4814H64.0636C63.5472 51.4814 63.4734 51.4814 63.4734 50.928C63.4734 50.3378 63.5841 50.3378 64.1005 50.3378H64.912L64.8751 51.4814ZM65.4284 53.3257V49.9321H63.9529C63.289 49.9321 62.8832 49.969 62.8832 50.9649C62.8832 51.6289 63.0676 51.8133 63.3996 51.8871L62.8094 53.3626H63.3996L63.9529 51.924H64.8751V53.3626H65.4284V53.3257ZM60.5224 51.924H59.4527L60.006 50.3378L60.5224 51.924ZM61.5553 53.3257L60.3749 49.9321H59.6002L58.4198 53.3257H59.01L59.342 52.3298H60.67L61.0019 53.3257H61.5553ZM57.1656 54.2848V52.8831H56.6861V49.9321H56.1328V52.8831H54.8786V49.9321H54.3253V52.8831H53.0711V49.9321H52.5178V53.3257H56.6861V54.2848H57.1656ZM50.3046 51.6658C50.3046 52.92 50.2677 52.92 49.5668 52.92H49.5299C48.7922 52.92 48.7922 52.92 48.7922 51.6658V51.6289C48.7922 50.301 48.866 50.301 49.5299 50.301H49.5668C50.2677 50.301 50.3046 50.301 50.3046 51.6289V51.6658ZM50.8948 51.6658C50.8948 50.0427 50.7103 49.8583 49.5668 49.8583C48.4971 49.8583 48.2758 50.0059 48.2389 51.3707H47.2429V49.9321H46.6896V53.3257H47.2429V51.8133H48.2389C48.2389 53.2151 48.3864 53.3995 49.5668 53.3995C50.7841 53.3995 50.8948 53.2151 50.8948 51.6658ZM44.255 51.924H43.1853L43.7386 50.3378L44.255 51.924ZM45.2879 53.3257L44.1075 49.9321H43.3328L42.1524 53.3257H42.7426L43.0746 52.3298H44.4026L44.7346 53.3257H45.2879ZM40.2712 52.3298C40.2712 52.8831 40.1236 52.8831 39.681 52.8831H38.8695V51.7765H39.681C40.1605 51.7765 40.2712 51.7765 40.2712 52.3298ZM40.2343 50.8912C40.2343 51.3707 40.1236 51.3707 39.6441 51.3707H38.8326V50.301H39.6441C40.0867 50.3378 40.2343 50.3378 40.2343 50.8912ZM40.8614 52.3667C40.8614 51.592 40.5294 51.592 40.5294 51.592C40.5294 51.592 40.8614 51.592 40.8614 50.8912C40.8614 49.9321 40.3081 49.9321 39.7916 49.9321H38.3161V53.3257H39.8285C40.3818 53.3257 40.8614 53.3257 40.8614 52.3667ZM36.6193 53.3257V49.9321H36.066V53.3257H36.6193ZM35.1069 52.3298C35.1069 52.8831 34.9594 52.8831 34.5167 52.8831H33.7052V51.7765H34.5167C34.9963 51.7765 35.1069 51.7765 35.1069 52.3298ZM35.6971 52.3298C35.6971 51.3707 35.2545 51.3707 34.6274 51.3707H33.7052V49.9321H33.1519V53.3257H34.6643C35.2176 53.3257 35.6971 53.3257 35.6971 52.3298ZM30.9755 52.3298C30.9755 52.8831 30.828 52.8831 30.3853 52.8831H29.5738V51.7765H30.3853C30.8649 51.7765 30.9755 51.7765 30.9755 52.3298ZM31.5657 52.3298C31.5657 51.3707 31.1231 51.3707 30.496 51.3707H29.5738V50.301H31.3444V49.9321H29.0205V53.3257H30.5329C31.1231 53.3257 31.5657 53.3257 31.5657 52.3298ZM26.8073 51.6658C26.8073 52.92 26.7704 52.92 26.0326 52.92C25.2949 52.92 25.2949 52.92 25.2949 51.6658V51.6289C25.2949 50.301 25.3686 50.301 26.0326 50.301H26.0695C26.7704 50.301 26.8441 50.301 26.8441 51.6289V51.6658H26.8073ZM27.3975 51.6658C27.3975 50.0427 27.2499 49.8583 26.0695 49.8583C24.8891 49.8583 24.7416 50.0427 24.7416 51.6658C24.7416 53.2151 24.8522 53.3995 26.0695 53.3995C27.3237 53.3995 27.3975 53.2151 27.3975 51.6658ZM22.1594 52.92H20.5733L21.4217 50.3378H22.1594V52.92ZM23.1923 54.2848V52.8831H22.7127V49.9321H20.979L19.9831 52.92H19.5035V54.3217H19.9831V53.3626H22.7127V54.3217H23.1923V54.2848ZM18.1018 53.3257V52.92H16.3312V51.8133H17.9174V51.4076H16.3312V50.3378H18.0649V49.9321H15.7779V53.3257H18.1018ZM14.118 53.3257V49.9321H12.3842L11.2407 53.3257H11.8309L12.8269 50.3747H13.5646V53.3257H14.118ZM10.3923 50.3747V49.9321H8.14219V53.3257H8.6955V50.3747H10.3923ZM6.77735 49.9321H6.18715L5.33874 51.924L4.49033 49.9321H3.90013L4.93298 52.3667H5.19119L5.04364 52.7355C4.93298 52.9937 4.89609 52.9937 4.63788 52.9937C4.34278 52.9937 4.15834 52.92 4.15834 52.92V53.2888C4.15834 53.2888 4.41656 53.3995 4.85921 53.3995C5.26497 53.3995 5.33874 53.3257 5.56007 52.8093L6.77735 49.9321Z" fill="#F3F3F3"/>
<path fill-rule="evenodd" clip-rule="evenodd" d="M53.3293 0.171875H47.0954L45.5461 2.86466L43.9968 5.55745L42.4475 8.25023L40.8983 10.943L39.349 13.6358L37.7997 16.3286L36.2505 19.0214L34.7012 21.7142L37.7997 27.0997H44.0337L45.583 24.4069L47.1323 21.7142L45.583 19.0214L44.0337 16.3286H50.2677L48.7184 19.0214L47.1691 21.7142H40.9352L39.3859 24.4069L37.9473 26.8784L34.9594 21.7142H40.9352L42.4844 24.4069L44.0337 27.0997H50.2677L51.817 24.4069L53.3662 21.7142L54.9155 19.0214L56.4648 16.3286L58.0141 13.6358L59.5633 10.943L61.1126 13.6358L62.6619 16.3286H56.4279L57.9772 19.0214L59.5265 21.7142H53.2925L54.8417 24.4069L56.391 27.0997H62.625L65.7604 21.7142L64.2112 19.0214L62.6619 16.3286L61.1126 19.0214L59.5633 21.7142L61.1126 24.4069L62.5512 26.8784L65.5391 21.7142H59.5633L58.0141 24.4069L56.4648 27.0997H50.2308L48.6815 24.4069L47.1323 21.7142H53.3662L51.817 19.0214L50.2677 16.3286H56.5017L54.9524 13.6358L53.4031 10.943H59.6371L58.0878 8.25023L56.5386 5.55745L54.9893 2.86466L53.3293 0.171875ZM47.0954 10.943L48.6446 13.6358L50.1939 16.3286L51.7432 13.6358L53.2925 10.943H47.0954ZM37.7259 16.3655L39.2752 19.0583L40.8245 21.751L42.3738 19.0583L43.923 16.3655H37.7259ZM40.8614 10.943L42.4107 13.6358L43.9599 16.3286L45.5092 13.6358L47.0585 10.943H40.8614ZM50.1939 5.55745L51.7432 8.25023L53.2925 10.943L54.8417 8.25023L56.391 5.55745H50.1939ZM43.9599 5.55745L45.5092 8.25023L47.0585 10.943L48.6078 8.25023L50.157 5.55745H43.9599ZM47.206 0.3932L48.6446 2.86466L50.1939 5.55745L51.7432 2.86466L53.1818 0.3932H47.206Z" fill="#F3F3F3"/>
<path fill-rule="evenodd" clip-rule="evenodd" d="M1.06046 59.7447V64.3557H0.396484V59.1914H3.79013V59.7447H1.06046Z" fill="#F3F3F3"/>
<path fill-rule="evenodd" clip-rule="evenodd" d="M10.873 60.7038C10.873 60.4456 10.873 60.2611 10.8361 60.1136C10.7992 59.966 10.7623 59.8923 10.6885 59.8185C10.6147 59.7447 10.5041 59.7078 10.3565 59.7078C10.209 59.7078 10.0246 59.7078 9.80323 59.7078H8.4015V61.6998H9.84011C10.0614 61.6998 10.2459 61.6998 10.3934 61.6998C10.541 61.6998 10.6147 61.6629 10.6885 61.5891C10.7623 61.5153 10.7992 61.4415 10.8361 61.294C10.873 61.1096 10.873 60.9251 10.873 60.7038ZM11.5738 60.7038C11.5738 61.0727 11.5369 61.3678 11.4632 61.5522C11.3894 61.7366 11.2787 61.8842 11.1681 61.9949C11.0205 62.1055 10.873 62.1424 10.6516 62.1793C10.4672 62.1793 10.209 62.2162 9.95077 62.2162H8.43838V64.3557H7.77441V59.1914H9.91388C10.1721 59.1914 10.3934 59.1914 10.5779 59.2283C10.7623 59.2283 10.9467 59.3021 11.0943 59.4127C11.2418 59.5234 11.3525 59.6709 11.4263 59.8554C11.5 60.0029 11.5738 60.298 11.5738 60.7038Z" fill="#F3F3F3"/>
<path fill-rule="evenodd" clip-rule="evenodd" d="M17.8813 59.7078L16.9591 62.2531H18.8035L17.8813 59.7078ZM19.5781 64.3557L19.0248 62.7695H16.8116L16.2214 64.3557H15.5205L17.4387 59.1914H18.3608L20.279 64.3557H19.5781Z" fill="#F3F3F3"/>
<path fill-rule="evenodd" clip-rule="evenodd" d="M27.5832 64.3557V61.9949H25.038V64.3557H24.374V59.1914H25.038V61.4415H27.5832V59.1914H28.2103V64.3557H27.5832Z" fill="#F3F3F3"/>
<path fill-rule="evenodd" clip-rule="evenodd" d="M35.3293 64.3557V60.1874L32.7472 64.3557H32.1201V59.1914H32.7472V63.3597L35.3293 59.1914H35.9564V64.3557H35.3293Z" fill="#F3F3F3"/>
<path fill-rule="evenodd" clip-rule="evenodd" d="M45.1767 62.8802C45.1767 62.6588 45.1767 62.4744 45.1398 62.3268C45.1029 62.2162 45.066 62.1055 44.9554 62.0686C44.8816 61.9949 44.7709 61.958 44.6234 61.958C44.4758 61.958 44.3283 61.958 44.1069 61.958H42.6683V63.8392H44.1069C44.2914 63.8392 44.4389 63.8392 44.5865 63.8392C44.6971 63.8392 44.8078 63.8023 44.8816 63.7286C44.9554 63.6548 45.0291 63.581 45.066 63.4335C45.1767 63.2859 45.1767 63.1015 45.1767 62.8802ZM45.8775 62.8802C45.8775 63.249 45.8406 63.5441 45.7669 63.7286C45.6931 63.913 45.5824 64.0606 45.4349 64.1712C45.2873 64.245 45.1398 64.3188 44.9185 64.3188C44.734 64.3188 44.5127 64.3557 44.2914 64.3557H42.0781V59.1914H45.5087V59.7078H42.7052V61.4784H44.2176C44.4389 61.4784 44.6603 61.4784 44.8816 61.5153C45.066 61.5153 45.2504 61.5891 45.398 61.6629C45.5455 61.7366 45.6562 61.8842 45.73 62.0686C45.8038 62.2162 45.8775 62.5113 45.8775 62.8802Z" fill="#F3F3F3"/>
<path fill-rule="evenodd" clip-rule="evenodd" d="M51.8903 63.581C51.8165 63.7655 51.7428 63.8761 51.669 63.9868C51.5952 64.0974 51.5583 64.1712 51.4846 64.245C51.4108 64.3188 51.337 64.3557 51.2263 64.3557C51.1157 64.3925 51.005 64.3925 50.8575 64.3925C50.7099 64.3925 50.5624 64.3925 50.4148 64.3557C50.3042 64.3557 50.1935 64.3188 50.0828 64.3188C49.9722 64.2819 49.8984 64.2819 49.7877 64.245V63.8023C49.8615 63.8023 49.8984 63.8392 50.0091 63.8392C50.0828 63.8392 50.1566 63.8392 50.2304 63.8761C50.341 63.8761 50.4148 63.8761 50.5624 63.8761C50.673 63.8761 50.7468 63.8761 50.8206 63.8761C50.8944 63.8761 50.9312 63.8392 51.005 63.8392C51.0419 63.8023 51.0788 63.7655 51.1157 63.7286C51.1526 63.6548 51.1895 63.581 51.2263 63.5072L51.4846 62.917H51.2263L49.5664 59.1914H50.2673L51.7059 62.3637L53.1445 59.1914H53.8454L51.8903 63.581Z" fill="#F3F3F3"/>
<path fill-rule="evenodd" clip-rule="evenodd" d="M61.7393 59.7078H60.4483L58.9728 63.8392H61.7393V59.7078ZM62.5878 65.8312V64.3557H58.1244V65.8312H57.5342V63.8392H58.3088L59.9688 59.1914H62.4033V63.8392H63.178V65.8312H62.5878Z" fill="#F3F3F3"/>
<path fill-rule="evenodd" clip-rule="evenodd" d="M69.1901 63.581C69.1164 63.7655 69.0426 63.8761 68.9688 63.9868C68.895 64.0974 68.8581 64.1712 68.7844 64.245C68.7106 64.3188 68.6368 64.3557 68.5261 64.3557C68.4155 64.3925 68.3048 64.3925 68.1573 64.3925C68.0097 64.3925 67.8622 64.3925 67.7146 64.3557C67.604 64.3557 67.4933 64.3188 67.3826 64.3188C67.272 64.2819 67.1982 64.2819 67.0875 64.245V63.8023C67.1613 63.8023 67.1982 63.8392 67.3089 63.8392C67.3826 63.8392 67.4564 63.8392 67.5302 63.8761C67.604 63.8761 67.7146 63.8761 67.8622 63.8761C67.9728 63.8761 68.0466 63.8761 68.1204 63.8761C68.1942 63.8761 68.231 63.8392 68.3048 63.8392C68.3417 63.8023 68.3786 63.7655 68.4155 63.7286C68.4524 63.6548 68.4893 63.581 68.5261 63.5072L68.7844 62.917H68.5261L66.8662 59.1914H67.5671L69.0057 62.3637L70.4443 59.1914H71.1452L69.1901 63.581Z" fill="#F3F3F3"/>
<path fill-rule="evenodd" clip-rule="evenodd" d="M81.3262 65.8312V64.3557H74.834V59.1914H75.498V63.8392H77.6743V59.1914H78.3014V63.8392H80.4778V59.1914H81.1417V63.8392H81.8795V65.8312H81.3262Z" fill="#F3F3F3"/>
<path fill-rule="evenodd" clip-rule="evenodd" d="M85.5684 64.3557V59.1914H88.9989V59.7078H86.1954V61.4784H88.7776V61.958H86.1954V63.8392H89.0358V64.3557H85.5684Z" fill="#F3F3F3"/>
<path fill-rule="evenodd" clip-rule="evenodd" d="M93.3876 59.7447V64.3557H92.7236V59.1914H96.1173V59.7447H93.3876Z" fill="#F3F3F3"/>
<path fill-rule="evenodd" clip-rule="evenodd" d="M103.09 61.8842C103.09 61.3309 103.09 60.9251 103.053 60.63C103.016 60.3349 102.979 60.1136 102.868 60.0029C102.795 59.8554 102.647 59.7816 102.463 59.7816C102.278 59.7447 102.057 59.7447 101.762 59.7447H101.688C101.503 59.7447 101.319 59.7447 101.171 59.7447C101.024 59.7447 100.913 59.7816 100.803 59.8185C100.692 59.8554 100.618 59.9292 100.581 60.0029C100.508 60.0767 100.471 60.2243 100.434 60.3718C100.397 60.5194 100.397 60.7407 100.36 60.962C100.36 61.2202 100.36 61.5153 100.36 61.8842V61.958C100.36 62.29 100.36 62.585 100.36 62.8064C100.36 63.0277 100.397 63.249 100.397 63.3966C100.434 63.5441 100.471 63.6548 100.508 63.7655C100.544 63.8392 100.618 63.913 100.729 63.9499C100.839 63.9868 100.95 64.0237 101.098 64.0237C101.245 64.0237 101.43 64.0237 101.651 64.0237H101.725C101.946 64.0237 102.131 64.0237 102.278 64.0237C102.426 64.0237 102.536 63.9868 102.647 63.9499C102.758 63.913 102.831 63.8392 102.868 63.7655C102.905 63.6917 102.942 63.581 102.979 63.3966C103.016 63.249 103.016 63.0646 103.016 62.8064C103.016 62.585 103.016 62.29 103.016 61.9211L103.09 61.8842ZM103.754 61.9211C103.754 62.3268 103.754 62.6588 103.754 62.9539C103.754 63.249 103.717 63.4704 103.68 63.6548C103.643 63.8392 103.569 64.0237 103.495 64.1343C103.422 64.245 103.311 64.3556 103.127 64.3925C102.979 64.4663 102.795 64.5032 102.573 64.5032C102.352 64.5401 102.094 64.5401 101.799 64.5401C101.503 64.5401 101.208 64.5401 100.987 64.5032C100.766 64.4663 100.581 64.4294 100.434 64.3925C100.286 64.3188 100.176 64.245 100.065 64.1343C99.9911 64.0237 99.9173 63.8761 99.8804 63.6548C99.8435 63.4704 99.8066 63.2121 99.8066 62.9539C99.8066 62.6588 99.8066 62.3268 99.8066 61.9211C99.8066 61.294 99.8435 60.8145 99.8804 60.4456C99.9173 60.0767 100.028 59.8185 100.176 59.6341C100.323 59.4496 100.508 59.339 100.766 59.2652C101.024 59.2283 101.393 59.1914 101.835 59.1914C102.131 59.1914 102.389 59.1914 102.573 59.2283C102.795 59.2652 102.979 59.3021 103.127 59.339C103.274 59.4127 103.385 59.4865 103.495 59.6341C103.606 59.7447 103.643 59.9292 103.717 60.1136C103.754 60.298 103.79 60.5562 103.827 60.8513C103.717 61.1464 103.754 61.5153 103.754 61.9211Z" fill="#F3F3F3"/>
<path fill-rule="evenodd" clip-rule="evenodd" d="M18.1382 44.3258L13.4167 37.1697L17.88 30.3086H12.9371L9.50658 35.7311H7.84664V30.3824H3.45703V44.3258H7.84664V38.6083H9.50658L13.0478 44.3258H18.1382Z" fill="#F3F3F3"/>
<path fill-rule="evenodd" clip-rule="evenodd" d="M32.857 37.4648C32.857 31.0095 31.9348 30.3086 26.1066 30.3086C20.2784 30.3086 19.3193 31.0095 19.3193 37.4648C19.3193 43.6619 19.7989 44.3258 26.1066 44.3258C32.3775 44.3258 32.857 43.6619 32.857 37.4648ZM28.5043 37.5385C28.5043 41.5224 28.4674 41.5224 26.2173 41.5224H26.0329C23.7458 41.5224 23.7458 41.5224 23.7458 37.5385V37.3541C23.7458 33.0752 23.8934 33.0752 26.0329 33.0752H26.2173C28.3568 33.0752 28.5043 33.0752 28.5043 37.3541V37.5385Z" fill="#F3F3F3"/>
<path fill-rule="evenodd" clip-rule="evenodd" d="M70.2238 44.3258V30.3086H64.1743L61.1495 40.5264L58.1247 30.3086H52.0752V44.3258H56.0221V34.108L59.0469 44.3258H63.1783L66.24 34.108V44.3258H70.2238Z" fill="#F3F3F3"/>
<path fill-rule="evenodd" clip-rule="evenodd" d="M45.8775 44.3258H50.4516L45.398 30.3086H39.0534L33.9629 44.3258H38.5001L42.2257 32.9645L45.8775 44.3258Z" fill="#F3F3F3"/>
<path fill-rule="evenodd" clip-rule="evenodd" d="M83.356 30.3086H77.0114L71.9209 44.3258H76.4581L77.5647 41.006H82.692L83.7987 44.3258H88.3727L83.356 30.3086ZM81.9543 38.3501H78.3762L80.1837 32.9645L81.9543 38.3501Z" fill="#F3F3F3"/>
<path fill-rule="evenodd" clip-rule="evenodd" d="M103.533 35.2146V34.8458C103.496 30.9357 101.8 30.3824 98.9592 30.3086H90.0693V44.3258H94.4589V39.4198H98.2952C101.873 39.4198 103.496 39.1616 103.533 35.2146ZM98.9961 34.9564C98.9961 36.7639 98.7379 36.7639 97.1148 36.7639H94.4589V32.9645H97.0411C98.701 32.9645 98.9961 32.9645 98.9961 34.9564Z" fill="#F3F3F3"/>
</g>
</svg>
