<svg width="286" height="53" viewBox="0 0 286 53" fill="none" xmlns="http://www.w3.org/2000/svg">
<g style="mix-blend-mode:luminosity" opacity="0.7" clip-path="url(#clip0_408_25416)">
<path d="M28.5054 0.675781V26.9594C28.5054 28.1885 27.5646 29.0394 26.4357 29.0394H23.3311C23.1429 29.0394 23.0488 29.2285 23.0488 29.3231V51.3521C23.8015 51.3521 24.5541 51.5412 25.4008 51.5412C39.4186 51.5412 50.8021 40.1012 50.8021 26.014C50.8021 13.0612 41.112 2.18851 28.5054 0.675781ZM27.9409 40.0067C26.1534 40.0067 24.8363 38.494 24.8363 36.8867C24.8363 35.0903 26.3416 33.7667 27.9409 33.7667C29.7284 33.7667 31.0455 35.2794 31.0455 36.8867C31.2337 38.5885 29.7284 40.0067 27.9409 40.0067ZM35.3732 40.0067C33.5857 40.0067 32.2686 38.494 32.2686 36.8867C32.2686 35.0903 33.7738 33.7667 35.3732 33.7667C37.1607 33.7667 38.4778 35.2794 38.4778 36.8867C38.4778 38.494 37.2547 40.0067 35.3732 40.0067ZM42.8995 40.0067C41.112 40.0067 39.7949 38.494 39.7949 36.8867C39.7949 35.0903 41.3001 33.7667 42.8995 33.7667C44.687 33.7667 46.0041 35.2794 46.0041 36.8867C46.0041 38.494 44.687 40.0067 42.8995 40.0067Z" fill="#F3F3F3"/>
<path d="M25.4013 0.582031C11.3836 0.582031 0 12.022 0 26.1093C0 38.4948 8.56118 48.6111 20.0388 50.9748V28.0002C20.0388 26.9602 20.9796 26.1093 21.9204 25.9202H22.9553H25.025C25.2132 25.9202 25.3072 25.7311 25.3072 25.6366L25.4013 0.582031ZM20.5092 21.5711C18.7217 21.5711 17.4046 20.0584 17.4046 18.4511C17.4046 16.6548 18.9099 15.3311 20.5092 15.3311C22.2967 15.3311 23.6138 16.8438 23.6138 18.4511C23.6138 20.0584 22.2026 21.5711 20.5092 21.5711Z" fill="#F3F3F3"/>
<path d="M279.697 14.4805V24.1241H266.903V14.4805H260.411V40.0077H266.903V29.7023H279.697V40.0077H286.001V14.4805H279.697Z" fill="#F3F3F3"/>
<path d="M173.952 17.4122C172.917 15.1432 170.847 13.9141 168.778 13.9141C166.708 13.9141 164.544 15.1432 163.603 17.4122L153.349 40.1032H160.122L162.38 34.7141H175.551L177.809 40.1032H184.583L173.952 17.4122ZM164.168 29.6086L168.025 20.2486C168.213 19.965 168.307 19.965 168.495 19.965C168.683 19.965 168.966 19.965 168.966 20.2486L172.823 29.6086H164.168Z" fill="#F3F3F3"/>
<path d="M98.3128 9.9422C95.3023 9.9422 93.4207 11.5495 92.0095 14.764L83.8246 33.9567L75.5457 14.6695C74.2286 11.5495 72.2529 9.84766 69.2424 9.84766C66.42 9.84766 63.5977 11.7386 63.5977 16.1822V39.9131H69.9009V17.0331L78.274 36.0367C79.3088 38.7786 81.2845 40.3858 83.8246 40.3858C86.5529 40.3858 88.3404 38.7786 89.3753 36.0367L97.7483 17.0331V40.1967H104.052V16.4658C103.958 12.0222 101.135 9.9422 98.3128 9.9422Z" fill="#F3F3F3"/>
<path d="M115.152 34.6163C114.87 34.6163 114.493 34.3327 114.493 33.9545V29.4163H130.299V24.2163H114.493V20.34C114.493 20.0563 114.776 19.6782 115.152 19.6782H130.863V14.2891H112.047C109.789 14.2891 108.284 16.0854 108.284 18.0709V35.94C108.284 37.8309 109.884 39.7218 112.047 39.7218H130.863V34.3327H115.152V34.6163Z" fill="#F3F3F3"/>
<path d="M141.495 40.0077V20.5314C141.495 20.2477 141.778 19.8696 142.154 19.8696H157.865V14.4805H139.049C136.791 14.4805 135.286 16.2768 135.286 18.2623V39.9132L141.495 40.0077Z" fill="#F3F3F3"/>
<path d="M256.271 27.3363C256.271 18.4491 252.414 14.2891 242.818 14.2891H240.56C230.964 14.2891 227.106 18.5436 227.106 27.3363C227.106 36.0345 230.964 40.3836 240.56 40.3836H242.629C252.414 40.1945 256.271 36.0345 256.271 27.3363ZM242.629 34.9945H240.56C235.385 34.9945 233.222 32.6309 233.222 27.3363C233.222 22.2309 235.009 19.6782 240.56 19.6782H242.629C247.992 19.6782 249.968 22.2309 249.968 27.3363C249.968 32.5363 247.992 34.9945 242.629 34.9945Z" fill="#F3F3F3"/>
<path d="M209.514 10.5078H196.907C187.499 10.5078 183.736 15.3296 183.736 23.5551C183.736 24.8787 183.924 26.1078 184.019 27.1478C185.053 33.0096 188.534 36.6024 197.284 36.6024H200.106V39.9114H206.409V36.6024H209.138C217.981 36.6024 221.462 33.0096 222.403 27.1478C222.591 26.1078 222.685 24.8787 222.685 23.5551C222.591 15.3296 218.734 10.5078 209.514 10.5078ZM199.918 31.3078H197.096C192.768 31.3078 191.263 29.7005 190.322 27.0533C190.04 26.1078 190.04 24.7842 190.04 23.4605C190.04 18.0714 192.58 15.8024 196.155 15.8024H200.012V31.3078H199.918ZM216.099 27.3369C215.159 29.8896 213.559 31.5914 209.326 31.5914H206.503V15.9914H210.361C213.936 15.9914 216.476 18.2605 216.476 23.6496C216.382 25.0678 216.382 26.2024 216.099 27.3369Z" fill="#F3F3F3"/>
</g>
<defs>
<clipPath id="clip0_408_25416">
<rect width="286" height="52" fill="white" transform="translate(0 0.015625)"/>
</clipPath>
</defs>
</svg>
