<svg width="57" height="34" viewBox="0 0 57 34" fill="none" xmlns="http://www.w3.org/2000/svg">
<g opacity="0.7" clip-path="url(#clip0_408_25299)">
<path d="M56.2324 11.739C56.2324 5.32653 51.1591 0.25 41.5931 0.25C32.0271 0.25 26.9229 5.32653 26.9229 11.739C26.9229 18.1232 31.9626 23.228 41.5931 23.228C44.6665 23.228 47.2651 22.7116 49.3785 21.8021L50.7617 23.228H56.2324L52.808 19.6389C55.0789 17.5888 56.2324 14.8116 56.2324 11.739ZM41.5931 19.1816C34.8192 19.1816 31.3536 15.8495 31.3536 11.739C31.3536 7.59761 34.8837 4.23466 41.5931 4.23466C48.3024 4.23466 51.8016 7.59761 51.8016 11.739C51.8016 13.5502 51.1333 15.2098 49.8095 16.4995L46.8186 13.3678L46.7541 13.3652L44.7568 11.2868H39.1829L46.2174 18.5419C44.9065 18.953 43.3633 19.1816 41.5931 19.1816Z" fill="#F3F3F3"/>
<path d="M26.1871 8.14399C26.1871 4.11565 22.9434 0.855469 18.8662 0.855469H0.180664V23.2297H4.51593V15.4967H16.6211L24.0866 23.2323H29.5573L21.648 14.9469C24.324 13.8422 26.1871 11.1961 26.1871 8.14399ZM4.51593 5.01226H18.5152C20.2803 5.01226 21.6944 6.45095 21.6944 8.17738C21.6944 9.93464 20.2829 11.3425 18.5152 11.3425H4.51593V5.01226Z" fill="#F3F3F3"/>
<g opacity="0.5">
<path d="M24.6184 31.4243V32.1154H24.0791V27.0234H24.6184V29.2354C24.9126 28.8038 25.341 28.4339 26.0067 28.4339C26.8764 28.4339 27.7383 29.1173 27.7383 30.3042V30.317C27.7383 31.4962 26.8841 32.1925 26.0067 32.1925C25.3332 32.1925 24.8997 31.8276 24.6184 31.4243ZM27.1835 30.3222V30.3093C27.1835 29.4589 26.5951 28.9143 25.9087 28.9143C25.2352 28.9143 24.5978 29.4795 24.5978 30.3016V30.3144C24.5978 31.152 25.2352 31.7095 25.9087 31.7095C26.608 31.7095 27.1835 31.1931 27.1835 30.3222Z" fill="#F3F3F3"/>
<path d="M31.2677 28.5078H31.8432L30.3233 32.233C30.0162 32.9806 29.6652 33.2504 29.1182 33.2504C28.8162 33.2504 28.5917 33.1887 28.3466 33.068L28.5298 32.6415C28.7053 32.7314 28.8653 32.7751 29.0975 32.7751C29.4201 32.7751 29.6239 32.6081 29.8407 32.0994L28.1943 28.5078H28.7904L30.1065 31.5137L31.2677 28.5078Z" fill="#F3F3F3"/>
<path d="M36.7054 27.1953H37.2241L39.4588 32.1126H38.8627L38.2873 30.8229H35.619L35.0384 32.1126H34.4707L36.7054 27.1953ZM38.0705 30.3296L36.9557 27.8402L35.8358 30.3296H38.0705Z" fill="#F3F3F3"/>
<path d="M40.4277 27.2305H40.9877L42.7734 29.8946L44.5591 27.2305H45.1191V32.1143H44.5669V28.1579L42.7812 30.7732H42.7528L40.9671 28.1656V32.1143H40.4277V27.2305Z" fill="#F3F3F3"/>
<path d="M46.5049 27.2305H48.208C49.7486 27.2305 50.8143 28.2838 50.8143 29.6583V29.6711C50.8143 31.0456 49.7486 32.1117 48.208 32.1117H46.5049V27.2305ZM47.0597 27.7392V31.6031H48.208C49.4493 31.6031 50.2389 30.7655 50.2389 29.684V29.6711C50.2389 28.5895 49.4467 27.7392 48.208 27.7392H47.0597Z" fill="#F3F3F3"/>
<path d="M51.7676 29.6867V29.6739C51.7676 28.3354 52.7559 27.1484 54.2268 27.1484C55.0526 27.1484 55.5661 27.3848 56.0564 27.7984L55.7003 28.2172C55.321 27.8883 54.9003 27.6597 54.2087 27.6597C53.1223 27.6597 52.3456 28.5743 52.3456 29.661V29.6739C52.3456 30.8377 53.0965 31.7034 54.2862 31.7034C54.8461 31.7034 55.3648 31.4876 55.7003 31.2153V30.0001H54.2087V29.5043H56.2345V31.4517C55.7803 31.855 55.0913 32.1993 54.2655 32.1993C52.7224 32.1967 51.7676 31.0817 51.7676 29.6867Z" fill="#F3F3F3"/>
</g>
</g>
<defs>
<clipPath id="clip0_408_25299">
<rect width="56" height="33" fill="white" transform="translate(0.285156 0.5)"/>
</clipPath>
</defs>
</svg>
