<svg width="289" height="48" viewBox="0 0 289 48" fill="none" xmlns="http://www.w3.org/2000/svg">
<g style="mix-blend-mode:luminosity" opacity="0.7" clip-path="url(#clip0_408_25284)">
<mask id="mask0_408_25284" style="mask-type:luminance" maskUnits="userSpaceOnUse" x="0" y="0" width="288" height="48">
<path d="M287.741 0H0.242188V48H287.741V0Z" fill="white"/>
</mask>
<g mask="url(#mask0_408_25284)">
<path d="M87.3053 29.7804C87.3053 33.4244 83.7652 36.0631 78.7825 36.0631H67.1133V13.4453H78.3894C83.2408 13.4453 86.6497 15.9584 86.6497 19.4768C86.6497 21.8642 85.3384 23.372 83.372 24.2516C85.4697 25.0055 87.3053 27.016 87.3053 29.7804ZM72.2267 17.5919V22.4924H78.2581C80.0938 22.4924 81.2739 21.4872 81.2739 20.105C81.2739 18.7228 79.9626 17.5919 78.2581 17.5919H72.2267ZM78.7825 31.9165C80.7495 31.9165 82.192 30.7857 82.192 29.1521C82.192 27.5186 80.8807 26.3877 78.7825 26.3877H72.2267V31.9165H78.7825Z" fill="#F3F3F3"/>
<path d="M106.58 35.9374L98.4509 27.016H97.1396V35.9374H91.8945V13.4453H97.1396V22.1155H98.4509L106.318 13.4453H112.48L102.646 24.2516L113.398 35.9374H106.58Z" fill="#F3F3F3"/>
<path d="M113.397 24.7562C113.397 17.9709 118.642 13.0703 125.984 13.0703C133.327 13.0703 138.572 17.9709 138.572 24.7562C138.572 31.5415 133.327 36.442 125.984 36.442C118.642 36.442 113.397 31.5415 113.397 24.7562ZM133.065 24.7562C133.065 20.484 130.18 17.5939 125.984 17.5939C121.789 17.5939 118.904 20.484 118.904 24.7562C118.904 29.0284 121.789 31.9185 125.984 31.9185C130.18 31.9185 133.065 29.0284 133.065 24.7562Z" fill="#F3F3F3"/>
<path d="M158.633 13.4453H163.877V35.9374H158.633V26.8904H148.143V35.9374H142.898V13.4453H148.143V22.3668H158.633V13.4453Z" fill="#F3F3F3"/>
<path d="M175.153 35.9374V17.9689H167.023V13.4453H188.396V17.9689H180.266V35.9374H175.153Z" fill="#F3F3F3"/>
<path d="M210.949 23.374V35.9394H207.146L206.097 32.4211C204.917 34.3059 202.426 36.442 198.623 36.442C193.903 36.442 190.494 33.4263 190.494 29.2798C190.494 25.1331 193.903 22.2431 200.853 22.2431H205.966C205.704 19.353 204.13 17.3426 201.246 17.3426C198.886 17.3426 197.312 18.5991 196.526 19.9813L191.805 19.2274C192.985 15.3321 197.05 13.0703 201.508 13.0703C207.277 13.0703 210.949 16.8399 210.949 23.374ZM205.835 26.1384H200.983C197.05 26.1384 195.739 27.395 195.739 29.0284C195.739 30.9133 197.312 32.1698 199.935 32.1698C203.344 32.1698 205.835 29.7824 205.835 26.1384Z" fill="#F3F3F3"/>
<path d="M231.142 35.9374L223.013 27.016H221.702V35.9374H216.457V13.4453H221.702V22.1155H223.013L230.88 13.4453H237.042L227.209 24.2516L237.96 35.9374H231.142Z" fill="#F3F3F3"/>
<path d="M247.401 35.9374V17.9689H239.271V13.4453H260.644V17.9689H252.514V35.9374H247.401Z" fill="#F3F3F3"/>
<path d="M286.866 26.1384H267.986C268.51 29.6567 271.133 31.9185 275.066 31.9185C277.82 31.9185 279.917 30.7876 281.097 29.1541L285.949 29.908C284.244 34.1803 279.655 36.442 274.673 36.442C267.592 36.442 262.479 31.5415 262.479 24.7562C262.479 17.9709 267.592 13.0703 274.673 13.0703C281.753 13.0703 286.866 17.9709 286.866 24.5049C286.998 25.1331 286.866 25.6358 286.866 26.1384ZM268.379 22.2431H281.36C280.442 19.4787 278.082 17.4682 274.804 17.4682C271.657 17.3426 269.166 19.353 268.379 22.2431Z" fill="#F3F3F3"/>
<path fill-rule="evenodd" clip-rule="evenodd" d="M3.76302 3.37413C0.242188 6.74827 0.242188 12.1789 0.242188 23.04V24.96C0.242188 35.8212 0.242188 41.2517 3.76302 44.6259C7.28386 48 12.9506 48 24.2839 48H26.2874C37.6208 48 43.2875 48 46.8083 44.6259C50.3291 41.2517 50.3291 35.8212 50.3291 24.96V23.04C50.3291 12.1789 50.3291 6.74827 46.8083 3.37413C43.2875 0 37.6208 0 26.2874 0H24.2839C12.9506 0 7.28386 0 3.76302 3.37413ZM8.69399 14.6001C8.96526 27.0801 15.4765 34.5801 26.8922 34.5801H27.5393V27.4401C31.734 27.8401 34.906 30.7801 36.179 34.5801H42.1061C40.4783 28.9001 36.1998 25.7601 33.5286 24.5601C36.1998 23.0801 39.9564 19.4801 40.8538 14.6001H35.4693C34.3006 18.5601 30.8366 22.1601 27.5393 22.5V14.6001H22.1547V28.4401C18.8156 27.6401 14.6 23.7601 14.4122 14.6001H8.69399Z" fill="#F3F3F3"/>
</g>
</g>
<defs>
<clipPath id="clip0_408_25284">
<rect width="288" height="48" fill="white" transform="translate(0.285156)"/>
</clipPath>
</defs>
</svg>
