<svg width="33" height="32" viewBox="0 0 33 32" fill="none" xmlns="http://www.w3.org/2000/svg">
<path d="M15.616 0.0437498C12.7035 0.33125 10.3348 1.15625 8.04102 2.6875C5.67227 4.25625 3.83477 6.3625 2.55352 8.96875C1.64102 10.8187 1.12227 12.7375 0.953516 14.8875L0.916016 15.4375H1.87227C5.33477 15.4375 8.45352 15.0625 10.2785 14.4312C11.541 14 12.4348 13.4688 13.3223 12.625C14.991 11.05 15.841 8.79375 16.1785 5.0625C16.2723 3.975 16.366 2.01875 16.366 0.95V0L16.1035 0.0124998C15.9535 0.0124998 15.7348 0.03125 15.616 0.0437498Z" fill="black"/>
<path d="M17.3662 0.819531C17.3662 3.61328 17.66 6.69453 18.0912 8.38828C18.5287 10.132 19.3475 11.632 20.4162 12.6383C22.4475 14.5508 25.2412 15.2758 31.11 15.4195L32.8225 15.457L32.7787 14.8695C32.485 10.9633 30.9037 7.48203 28.1787 4.74453C26.8037 3.36328 25.5475 2.46328 23.835 1.61953C21.9662 0.707031 20.0912 0.200781 17.9162 0.0320311L17.3662 -0.0117188V0.819531Z" fill="black"/>
<path d="M0.953516 16.982C1.18477 19.8695 2.05352 22.4445 3.59102 24.7508C4.77227 26.5258 6.45977 28.2008 8.20977 29.3258C10.4598 30.7758 13.0723 31.6445 15.791 31.8508L16.366 31.8945V30.932C16.366 27.5758 16.016 24.532 15.4223 22.7258C14.3223 19.3633 12.0223 17.5633 7.95977 16.882C6.51602 16.6383 3.71602 16.4383 1.74727 16.4383H0.916016L0.953516 16.982Z" fill="black"/>
<path d="M29.5852 16.507C24.6852 16.7445 22.1102 17.5445 20.2727 19.407C18.2852 21.4195 17.5414 24.2133 17.3852 30.2445L17.3477 31.8945L17.9352 31.8508C21.7914 31.5633 25.2164 30.032 27.9539 27.3758C30.6602 24.7445 32.2727 21.4758 32.7102 17.7133C32.7602 17.2695 32.8039 16.8008 32.8039 16.6758V16.4383L31.7289 16.4445C31.1352 16.4508 30.1727 16.482 29.5852 16.507Z" fill="black"/>
</svg>
