<svg width="839" height="104" viewBox="0 0 839 104" fill="none" xmlns="http://www.w3.org/2000/svg">
<g clip-path="url(#clip0_483_1317)">
<path d="M87.7692 104H25.306C23.7078 104 21.9764 103.823 20.1119 103.468C18.2917 103.07 16.4715 102.472 14.6513 101.674C12.8755 100.877 11.1664 99.8578 9.52376 98.6174C7.88116 97.3327 6.41614 95.8043 5.1287 94.0323C3.88565 92.2159 2.88677 90.1338 2.13206 87.7858C1.37735 85.3935 1 82.7133 1 79.7452V32.9632C1 31.3684 1.17758 29.6628 1.53273 27.8465C1.93229 25.9858 2.53161 24.1695 3.33072 22.3974C4.12982 20.5811 5.17309 18.8533 6.46053 17.2142C7.74798 15.5751 9.27959 14.1353 11.0554 12.8948C12.8755 11.6101 14.9621 10.5912 17.315 9.83806C19.6679 9.08495 22.3316 8.70839 25.306 8.70839H87.7692V25.9858H25.306C23.0419 25.9858 21.3105 26.5839 20.1119 27.78C18.9132 28.9761 18.3139 30.7482 18.3139 33.0961V79.7452C18.3139 81.9602 18.9132 83.688 20.1119 84.9284C21.3549 86.1245 23.0863 86.7226 25.306 86.7226H87.7692V104Z" fill="#FD2436"/>
<path d="M187.1 79.7452C187.1 82.7133 186.723 85.3935 185.968 87.7858C185.214 90.1338 184.215 92.2159 182.972 94.0323C181.729 95.8043 180.286 97.3327 178.643 98.6174C177.001 99.8578 175.269 100.877 173.449 101.674C171.673 102.472 169.853 103.07 167.988 103.468C166.168 103.823 164.437 104 162.794 104H131.563C129.165 104 126.546 103.579 123.705 102.737C120.864 101.896 118.222 100.522 115.78 98.6174C113.383 96.6682 111.363 94.1652 109.721 91.1084C108.122 88.0073 107.323 84.2196 107.323 79.7452V56.3542C107.323 51.9241 108.122 48.1806 109.721 45.1239C111.363 42.0228 113.383 39.5198 115.78 37.6148C118.222 35.6656 120.864 34.2701 123.705 33.4284C126.546 32.5867 129.165 32.1658 131.563 32.1658H162.794C167.234 32.1658 171.007 32.9632 174.115 34.5581C177.222 36.1529 179.731 38.1686 181.64 40.6052C183.549 42.9974 184.925 45.6112 185.768 48.4464C186.656 51.2817 187.1 53.9176 187.1 56.3542V79.7452ZM169.786 56.4871C169.786 54.0948 169.187 52.3228 167.988 51.171C166.79 50.0191 165.058 49.4432 162.794 49.4432H131.696C129.387 49.4432 127.634 50.0413 126.435 51.2374C125.236 52.3892 124.637 54.0948 124.637 56.3542V79.7452C124.637 82.0045 125.236 83.7323 126.435 84.9284C127.634 86.1245 129.387 86.7226 131.696 86.7226H162.794C165.147 86.7226 166.901 86.1245 168.055 84.9284C169.209 83.7323 169.786 82.0045 169.786 79.7452V56.4871Z" fill="#FD2436"/>
<path d="M288.363 79.7452C288.363 82.7133 287.985 85.3935 287.23 87.7858C286.476 90.1338 285.477 92.2159 284.234 94.0323C282.991 95.8043 281.548 97.3327 279.905 98.6174C278.263 99.8578 276.531 100.877 274.711 101.674C272.935 102.472 271.115 103.07 269.251 103.468C267.431 103.823 265.699 104 264.057 104H232.825C229.85 104 227.187 103.623 224.834 102.87C222.481 102.117 220.394 101.12 218.574 99.88C216.798 98.5953 215.267 97.1333 213.979 95.4942C212.736 93.855 211.715 92.1495 210.916 90.3774C210.117 88.5611 209.518 86.7447 209.118 84.9284C208.763 83.0677 208.585 81.34 208.585 79.7452V56.3542C208.585 51.9241 209.385 48.1806 210.983 45.1239C212.625 42.0228 214.645 39.5198 217.043 37.6148C219.484 35.6656 222.126 34.2701 224.967 33.4284C227.808 32.5867 230.428 32.1658 232.825 32.1658H264.057V49.4432H232.958C230.65 49.4432 228.896 50.0413 227.697 51.2374C226.499 52.3892 225.899 54.0948 225.899 56.3542V79.6123C225.899 81.9602 226.477 83.7323 227.631 84.9284C228.829 86.1245 230.561 86.7226 232.825 86.7226H264.057C266.409 86.7226 268.163 86.1245 269.317 84.9284C270.472 83.7323 271.049 82.0045 271.049 79.7452V1.79742H288.363V79.7452Z" fill="#FD2436"/>
<path d="M389.825 55.9555C389.825 58.3477 389.403 60.9394 388.559 63.7303C387.716 66.477 386.34 69.0464 384.431 71.4387C382.566 73.7867 380.102 75.7581 377.039 77.3529C374.02 78.9477 370.335 79.7452 365.985 79.7452H334.753V63.3316H365.985C368.338 63.3316 370.158 62.6228 371.445 61.2052C372.733 59.7432 373.376 57.949 373.376 55.8226C373.376 53.5632 372.644 51.7912 371.179 50.5065C369.758 49.2217 368.027 48.5794 365.985 48.5794H334.753C332.4 48.5794 330.58 49.3103 329.293 50.7723C328.005 52.1899 327.361 53.9619 327.361 56.0884V80.2103C327.361 82.514 328.072 84.3082 329.492 85.5929C330.957 86.8776 332.755 87.52 334.886 87.52H365.985V104H334.753C332.356 104 329.759 103.579 326.962 102.737C324.209 101.896 321.634 100.545 319.237 98.6839C316.884 96.7789 314.909 94.3202 313.311 91.3077C311.712 88.251 310.913 84.5518 310.913 80.2103V55.9555C310.913 53.5632 311.335 50.9938 312.178 48.2471C313.022 45.4561 314.376 42.8867 316.241 40.5387C318.15 38.1465 320.613 36.1529 323.632 34.5581C326.695 32.9632 330.402 32.1658 334.753 32.1658H365.985C368.382 32.1658 370.957 32.5867 373.709 33.4284C376.506 34.2701 379.081 35.6434 381.434 37.5484C383.831 39.409 385.829 41.8677 387.427 44.9245C389.025 47.937 389.825 51.614 389.825 55.9555Z" fill="#FD2436"/>
<path d="M496.414 104H433.951C432.353 104 430.621 103.823 428.757 103.468C426.937 103.07 425.116 102.472 423.296 101.674C421.521 100.877 419.811 99.8578 418.169 98.6174C416.526 97.3327 415.061 95.8043 413.774 94.0323C412.531 92.2159 411.532 90.1338 410.777 87.7858C410.022 85.3935 409.645 82.7133 409.645 79.7452V32.9632C409.645 31.3684 409.823 29.6628 410.178 27.8465C410.577 25.9858 411.177 24.1695 411.976 22.3974C412.775 20.5811 413.818 18.8533 415.105 17.2142C416.393 15.5751 417.925 14.1353 419.7 12.8948C421.521 11.6101 423.607 10.5912 425.96 9.83806C428.313 9.08495 430.977 8.70839 433.951 8.70839H496.414V25.9858H433.951C431.687 25.9858 429.956 26.5839 428.757 27.78C427.558 28.9761 426.959 30.7482 426.959 33.0961V79.7452C426.959 81.9602 427.558 83.688 428.757 84.9284C430 86.1245 431.731 86.7226 433.951 86.7226H496.414V104Z" fill="#FD2436"/>
<path d="M580.962 49.4432H542.006C539.653 49.4432 537.877 50.0413 536.678 51.2374C535.48 52.3892 534.88 54.0948 534.88 56.3542V104H517.566V56.3542C517.566 53.386 517.944 50.728 518.698 48.38C519.453 46.032 520.452 43.972 521.695 42.2C522.982 40.3837 524.448 38.8553 526.09 37.6148C527.733 36.3301 529.442 35.289 531.218 34.4916C533.038 33.6942 534.858 33.1183 536.678 32.7639C538.543 32.3652 540.274 32.1658 541.872 32.1658H580.962V49.4432Z" fill="#FD2436"/>
<path d="M668.639 80.2103C668.639 82.6026 668.218 85.1942 667.374 87.9852C666.531 90.7318 665.154 93.3013 663.245 95.6936C661.381 98.0415 658.917 100.013 655.854 101.608C652.835 103.203 649.15 104 644.799 104H613.568C611.171 104 608.573 103.579 605.777 102.737C603.024 101.896 600.449 100.545 598.052 98.6839C595.699 96.7789 593.724 94.3202 592.125 91.3077C590.527 88.251 589.728 84.5518 589.728 80.2103C589.728 77.8181 590.15 75.2264 590.993 72.4355C591.837 69.6445 593.191 67.0751 595.055 64.7271C596.964 62.3348 599.428 60.3413 602.447 58.7465C605.51 57.1516 609.217 56.3542 613.568 56.3542H644.799V72.8342H613.568C611.215 72.8342 609.395 73.5652 608.107 75.0271C606.82 76.4447 606.176 78.2168 606.176 80.3432C606.176 82.6026 606.909 84.3746 608.374 85.6594C609.883 86.8998 611.659 87.52 613.701 87.52H644.799C647.152 87.52 648.973 86.8112 650.26 85.3935C651.547 83.9759 652.191 82.2039 652.191 80.0774V55.9555C652.191 53.6961 651.481 51.9019 650.06 50.5729C648.684 49.2439 646.93 48.5794 644.799 48.5794H606.776V32.1658H644.799C647.197 32.1658 649.772 32.5867 652.524 33.4284C655.321 34.2701 657.896 35.6434 660.249 37.5484C662.646 39.409 664.644 41.8677 666.242 44.9245C667.84 47.937 668.639 51.614 668.639 55.9555V80.2103Z" fill="#FD2436"/>
<path d="M754.652 49.4432H715.496V32.1658H754.652V49.4432ZM754.652 18.2774H715.629C713.276 18.2774 711.501 18.8755 710.302 20.0716C709.103 21.2234 708.504 22.929 708.504 25.1884V104H691.19V25.1884C691.19 22.2202 691.567 19.5622 692.322 17.2142C693.077 14.8662 694.076 12.8062 695.319 11.0342C696.606 9.21785 698.071 7.68946 699.714 6.44903C701.356 5.1643 703.066 4.12323 704.841 3.32581C706.662 2.52839 708.482 1.95247 710.302 1.59806C712.122 1.19935 713.853 1 715.496 1H754.652V18.2774Z" fill="#FD2436"/>
<path d="M839 49.4432H808.767V104H791.254V49.4432H768.746V32.1658H791.254V8.70839H808.767V32.1658H839V49.4432Z" fill="#FD2436"/>
<path d="M86.7692 103H24.306C22.7078 103 20.9764 102.823 19.1119 102.468C17.2917 102.07 15.4715 101.472 13.6513 100.674C11.8755 99.8768 10.1664 98.8578 8.52376 97.6174C6.88116 96.3327 5.41614 94.8043 4.1287 93.0323C2.88565 91.2159 1.88677 89.1338 1.13206 86.7858C0.377354 84.3935 0 81.7133 0 78.7452V31.9632C0 30.3684 0.177578 28.6628 0.532735 26.8465C0.932286 24.9858 1.53161 23.1695 2.33072 21.3974C3.12982 19.5811 4.17309 17.8533 5.46053 16.2142C6.74798 14.5751 8.27959 13.1353 10.0554 11.8948C11.8755 10.6101 13.9621 9.59118 16.315 8.83806C18.6679 8.08495 21.3316 7.70839 24.306 7.70839H86.7692V24.9858H24.306C22.0419 24.9858 20.3105 25.5839 19.1119 26.78C17.9132 27.9761 17.3139 29.7482 17.3139 32.0961V78.7452C17.3139 80.9602 17.9132 82.688 19.1119 83.9284C20.3549 85.1245 22.0863 85.7226 24.306 85.7226H86.7692V103Z" fill="#FDFAFF"/>
<path d="M186.1 78.7452C186.1 81.7133 185.723 84.3935 184.968 86.7858C184.214 89.1338 183.215 91.2159 181.972 93.0323C180.729 94.8043 179.286 96.3327 177.643 97.6174C176.001 98.8578 174.269 99.8768 172.449 100.674C170.673 101.472 168.853 102.07 166.988 102.468C165.168 102.823 163.437 103 161.794 103H130.563C128.165 103 125.546 102.579 122.705 101.737C119.864 100.896 117.222 99.5224 114.78 97.6174C112.383 95.6682 110.363 93.1652 108.721 90.1084C107.122 87.0073 106.323 83.2196 106.323 78.7452V55.3542C106.323 50.9241 107.122 47.1806 108.721 44.1239C110.363 41.0228 112.383 38.5198 114.78 36.6148C117.222 34.6656 119.864 33.2701 122.705 32.4284C125.546 31.5867 128.165 31.1658 130.563 31.1658H161.794C166.234 31.1658 170.007 31.9632 173.115 33.5581C176.222 35.1529 178.731 37.1686 180.64 39.6052C182.549 41.9974 183.925 44.6112 184.768 47.4464C185.656 50.2817 186.1 52.9176 186.1 55.3542V78.7452ZM168.786 55.4871C168.786 53.0948 168.187 51.3228 166.988 50.171C165.79 49.0191 164.058 48.4432 161.794 48.4432H130.696C128.387 48.4432 126.634 49.0413 125.435 50.2374C124.236 51.3892 123.637 53.0948 123.637 55.3542V78.7452C123.637 81.0045 124.236 82.7323 125.435 83.9284C126.634 85.1245 128.387 85.7226 130.696 85.7226H161.794C164.147 85.7226 165.901 85.1245 167.055 83.9284C168.209 82.7323 168.786 81.0045 168.786 78.7452V55.4871Z" fill="#FDFAFF"/>
<path d="M287.363 78.7452C287.363 81.7133 286.985 84.3935 286.23 86.7858C285.476 89.1338 284.477 91.2159 283.234 93.0323C281.991 94.8043 280.548 96.3327 278.905 97.6174C277.263 98.8578 275.531 99.8768 273.711 100.674C271.935 101.472 270.115 102.07 268.251 102.468C266.431 102.823 264.699 103 263.057 103H231.825C228.85 103 226.187 102.623 223.834 101.87C221.481 101.117 219.394 100.12 217.574 98.88C215.798 97.5953 214.267 96.1333 212.979 94.4942C211.736 92.855 210.715 91.1495 209.916 89.3774C209.117 87.5611 208.518 85.7447 208.118 83.9284C207.763 82.0677 207.585 80.34 207.585 78.7452V55.3542C207.585 50.9241 208.385 47.1806 209.983 44.1239C211.625 41.0228 213.645 38.5198 216.043 36.6148C218.484 34.6656 221.126 33.2701 223.967 32.4284C226.808 31.5867 229.428 31.1658 231.825 31.1658H263.057V48.4432H231.958C229.65 48.4432 227.896 49.0413 226.697 50.2374C225.499 51.3892 224.899 53.0948 224.899 55.3542V78.6123C224.899 80.9602 225.477 82.7323 226.631 83.9284C227.829 85.1245 229.561 85.7226 231.825 85.7226H263.057C265.409 85.7226 267.163 85.1245 268.317 83.9284C269.472 82.7323 270.049 81.0045 270.049 78.7452V0.797419H287.363V78.7452Z" fill="#FDFAFF"/>
<path d="M388.825 54.9555C388.825 57.3477 388.403 59.9394 387.559 62.7303C386.716 65.477 385.34 68.0464 383.431 70.4387C381.566 72.7867 379.102 74.7581 376.039 76.3529C373.02 77.9477 369.335 78.7452 364.985 78.7452H333.753V62.3316H364.985C367.338 62.3316 369.158 61.6228 370.445 60.2052C371.733 58.7432 372.376 56.949 372.376 54.8226C372.376 52.5632 371.644 50.7912 370.179 49.5065C368.758 48.2217 367.027 47.5794 364.985 47.5794H333.753C331.4 47.5794 329.58 48.3103 328.293 49.7723C327.005 51.1899 326.361 52.9619 326.361 55.0884V79.2103C326.361 81.514 327.072 83.3082 328.492 84.5929C329.957 85.8776 331.755 86.52 333.886 86.52H364.985V103H333.753C331.356 103 328.759 102.579 325.962 101.737C323.209 100.896 320.634 99.5445 318.237 97.6839C315.884 95.7789 313.909 93.3202 312.311 90.3077C310.712 87.251 309.913 83.5518 309.913 79.2103V54.9555C309.913 52.5632 310.335 49.9938 311.178 47.2471C312.022 44.4561 313.376 41.8867 315.241 39.5387C317.15 37.1465 319.613 35.1529 322.632 33.5581C325.695 31.9632 329.402 31.1658 333.753 31.1658H364.985C367.382 31.1658 369.957 31.5867 372.709 32.4284C375.506 33.2701 378.081 34.6434 380.434 36.5484C382.831 38.409 384.829 40.8677 386.427 43.9245C388.025 46.937 388.825 50.614 388.825 54.9555Z" fill="#FDFAFF"/>
<path d="M495.414 103H432.951C431.353 103 429.621 102.823 427.757 102.468C425.937 102.07 424.116 101.472 422.296 100.674C420.521 99.8768 418.811 98.8578 417.169 97.6174C415.526 96.3327 414.061 94.8043 412.774 93.0323C411.531 91.2159 410.532 89.1338 409.777 86.7858C409.022 84.3935 408.645 81.7133 408.645 78.7452V31.9632C408.645 30.3684 408.823 28.6628 409.178 26.8465C409.577 24.9858 410.177 23.1695 410.976 21.3974C411.775 19.5811 412.818 17.8533 414.105 16.2142C415.393 14.5751 416.925 13.1353 418.7 11.8948C420.521 10.6101 422.607 9.59118 424.96 8.83806C427.313 8.08495 429.977 7.70839 432.951 7.70839H495.414V24.9858H432.951C430.687 24.9858 428.956 25.5839 427.757 26.78C426.558 27.9761 425.959 29.7482 425.959 32.0961V78.7452C425.959 80.9602 426.558 82.688 427.757 83.9284C429 85.1245 430.731 85.7226 432.951 85.7226H495.414V103Z" fill="#FDFAFF"/>
<path d="M579.962 48.4432H541.006C538.653 48.4432 536.877 49.0413 535.678 50.2374C534.48 51.3892 533.88 53.0948 533.88 55.3542V103H516.566V55.3542C516.566 52.386 516.944 49.728 517.698 47.38C518.453 45.032 519.452 42.972 520.695 41.2C521.982 39.3837 523.448 37.8553 525.09 36.6148C526.733 35.3301 528.442 34.289 530.218 33.4916C532.038 32.6942 533.858 32.1183 535.678 31.7639C537.543 31.3652 539.274 31.1658 540.872 31.1658H579.962V48.4432Z" fill="#FDFAFF"/>
<path d="M667.639 79.2103C667.639 81.6026 667.218 84.1942 666.374 86.9852C665.531 89.7318 664.154 92.3013 662.245 94.6936C660.381 97.0415 657.917 99.0129 654.854 100.608C651.835 102.203 648.15 103 643.799 103H612.568C610.171 103 607.573 102.579 604.777 101.737C602.024 100.896 599.449 99.5445 597.052 97.6839C594.699 95.7789 592.724 93.3202 591.125 90.3077C589.527 87.251 588.728 83.5518 588.728 79.2103C588.728 76.8181 589.15 74.2264 589.993 71.4355C590.837 68.6445 592.191 66.0751 594.055 63.7271C595.964 61.3348 598.428 59.3413 601.447 57.7465C604.51 56.1516 608.217 55.3542 612.568 55.3542H643.799V71.8342H612.568C610.215 71.8342 608.395 72.5652 607.107 74.0271C605.82 75.4447 605.176 77.2168 605.176 79.3432C605.176 81.6026 605.909 83.3746 607.374 84.6594C608.883 85.8998 610.659 86.52 612.701 86.52H643.799C646.152 86.52 647.973 85.8112 649.26 84.3935C650.547 82.9759 651.191 81.2039 651.191 79.0774V54.9555C651.191 52.6961 650.481 50.9019 649.06 49.5729C647.684 48.2439 645.93 47.5794 643.799 47.5794H605.776V31.1658H643.799C646.197 31.1658 648.772 31.5867 651.524 32.4284C654.321 33.2701 656.896 34.6434 659.249 36.5484C661.646 38.409 663.644 40.8677 665.242 43.9245C666.84 46.937 667.639 50.614 667.639 54.9555V79.2103Z" fill="#FDFAFF"/>
<path d="M753.652 48.4432H714.496V31.1658H753.652V48.4432ZM753.652 17.2774H714.629C712.276 17.2774 710.501 17.8755 709.302 19.0716C708.103 20.2234 707.504 21.929 707.504 24.1884V103H690.19V24.1884C690.19 21.2202 690.567 18.5622 691.322 16.2142C692.077 13.8662 693.076 11.8062 694.319 10.0342C695.606 8.21785 697.071 6.68946 698.714 5.44903C700.356 4.1643 702.066 3.12323 703.841 2.32581C705.662 1.52839 707.482 0.952473 709.302 0.598064C711.122 0.199355 712.853 0 714.496 0H753.652V17.2774Z" fill="#FDFAFF"/>
<path d="M838 48.4432H807.767V103H790.254V48.4432H767.746V31.1658H790.254V7.70839H807.767V31.1658H838V48.4432Z" fill="#FDFAFF"/>
</g>
<defs>
<clipPath id="clip0_483_1317">
<rect width="839" height="104" fill="white"/>
</clipPath>
</defs>
</svg>
