<svg width="128.456055" height="49.000000" viewBox="0 0 128.456 49" fill="none" xmlns="http://www.w3.org/2000/svg" xmlns:xlink="http://www.w3.org/1999/xlink">
	<desc>
			Created with Pixso.
	</desc>
	<defs/>
	<rect id="Frame 48096073" width="109.000000" height="49.000000" fill="#FDFAFF" fill-opacity="1.000000"/>
	<path id="Vector" d="M23.5098 48.6133L11.2969 48.6133C10.9844 48.6133 10.6455 48.5781 10.2812 48.5078C9.9248 48.4297 9.56934 48.3125 9.21289 48.1562C8.86621 48 8.53223 47.8008 8.21094 47.5586C7.88965 47.3086 7.60254 47.0078 7.35156 46.6602C7.1084 46.3047 6.91309 45.8945 6.76562 45.4375C6.61816 44.9688 6.54395 44.4414 6.54395 43.8594L6.54395 34.6953C6.54395 34.3828 6.5791 34.0469 6.64844 33.6914C6.72656 33.3281 6.84375 32.9727 7 32.625C7.15625 32.2695 7.36035 31.9297 7.61133 31.6094C7.86328 31.2852 8.16309 31.0039 8.50977 30.7617C8.86621 30.5117 9.27441 30.3086 9.73438 30.1641C10.1943 30.0156 10.7148 29.9414 11.2969 29.9414L23.5098 29.9414L23.5098 33.3281L11.2969 33.3281C10.8535 33.3281 10.5156 33.4453 10.2812 33.6797C10.0469 33.9141 9.92969 34.2617 9.92969 34.7188L9.92969 43.8594C9.92969 44.293 10.0469 44.6328 10.2812 44.875C10.5244 45.1094 10.8623 45.2266 11.2969 45.2266L23.5098 45.2266L23.5098 48.6133Z" fill="#000000" fill-opacity="1.000000" fill-rule="nonzero"/>
	<path id="Vector" d="M106.794 40.8008C106.794 41.9375 106.595 42.9844 106.195 43.9375C105.805 44.8945 105.262 45.7188 104.567 46.4141C103.873 47.0977 103.048 47.6367 102.094 48.0273C101.139 48.418 100.102 48.6133 98.9814 48.6133L89.8408 48.6133C89.5977 48.6133 89.3721 48.5703 89.1641 48.4844C88.9551 48.3945 88.7734 48.2773 88.6172 48.1328C88.4697 47.9766 88.3525 47.793 88.2656 47.5859C88.1787 47.375 88.1348 47.1523 88.1348 46.9062L88.1348 31.6484C88.1348 31.4141 88.1787 31.1914 88.2656 30.9844C88.3525 30.7734 88.4697 30.5938 88.6172 30.4375C88.7734 30.2812 88.9551 30.1602 89.1641 30.0703C89.3721 29.9844 89.5977 29.9414 89.8408 29.9414L98.9814 29.9414C100.102 29.9414 101.139 30.1367 102.094 30.5273C103.048 30.918 103.873 31.4609 104.567 32.1562C105.262 32.8398 105.805 33.6641 106.195 34.6289C106.595 35.582 106.794 36.625 106.794 37.7539L106.794 40.8008ZM103.408 37.7539C103.408 37.0938 103.3 36.4922 103.083 35.9453C102.875 35.3984 102.575 34.9336 102.185 34.5508C101.794 34.1602 101.325 33.8594 100.778 33.6523C100.24 33.4336 99.6416 33.3281 98.9814 33.3281L91.5205 33.3281L91.5205 45.2266L98.9814 45.2266C99.6416 45.2266 100.24 45.125 100.778 44.9141C101.325 44.6992 101.794 44.3984 102.185 44.0156C102.575 43.625 102.875 43.1602 103.083 42.625C103.3 42.0781 103.408 41.4688 103.408 40.8008L103.408 37.7539Z" fill="#000000" fill-opacity="1.000000" fill-rule="nonzero"/>
	<path id="Vector" d="M126.933 40.9844L116.242 40.9844L116.242 37.5703L126.933 37.5703L126.933 40.9844ZM128.456 48.6133L116.242 48.6133C115.773 48.6133 115.262 48.5312 114.706 48.3672C114.15 48.1992 113.634 47.9336 113.156 47.5586C112.688 47.1758 112.293 46.6875 111.972 46.0859C111.659 45.4805 111.503 44.7383 111.503 43.8594L111.503 31.6484C111.503 31.4141 111.546 31.1914 111.633 30.9844C111.72 30.7734 111.837 30.5938 111.984 30.4375C112.141 30.2812 112.323 30.1602 112.531 30.0703C112.74 29.9844 112.966 29.9414 113.209 29.9414L120.832 29.9414L128.456 29.9414L128.456 33.3281L114.889 33.3281L114.889 43.8594C114.889 44.3047 115.006 44.6406 115.24 44.875C115.475 45.1094 115.817 45.2266 116.269 45.2266L128.456 45.2266L128.456 48.6133Z" fill="#FD2436" fill-opacity="1.000000" fill-rule="nonzero"/>
	<path id="Vector" d="M41.9814 29.9414L32.6729 39.3789L41.9814 48.6094L36.124 48.6094L28.5801 41.1133C28.1113 40.6758 27.877 40.1016 27.877 39.3789C27.877 39.0508 27.9346 38.7383 28.0488 38.4453C28.1738 38.1484 28.3408 37.8945 28.5488 37.6836L36.1865 29.9414L41.9814 29.9414Z" fill="#000000" fill-opacity="1.000000" fill-rule="nonzero"/>
	<path id="Vector" d="M66.5439 29.9414L49.9561 49L45.5986 49L62.2021 29.9414L66.5439 29.9414Z" fill="#000000" fill-opacity="1.000000" fill-rule="nonzero"/>
	<path id="Vector" d="M75.5518 29.9414L83.2061 37.6836C83.4141 37.8945 83.5752 38.1484 83.6895 38.4453C83.8145 38.7383 83.877 39.0508 83.877 39.3789C83.877 39.7227 83.8145 40.0469 83.6895 40.3516C83.5645 40.6484 83.3936 40.9023 83.1748 41.1133L75.6143 48.6094L69.7725 48.6094L79.082 39.3789L69.7725 29.9414L75.5518 29.9414Z" fill="#000000" fill-opacity="1.000000" fill-rule="nonzero"/>
</svg>
