<svg width="108.800781" height="19.000000" viewBox="0 0 108.801 19" fill="none" xmlns="http://www.w3.org/2000/svg" xmlns:xlink="http://www.w3.org/1999/xlink">
	<desc>
			Created with Pixso.
	</desc>
	<defs/>
	<path id="Vector" d="M17.2646 19L4.83594 19C4.51855 19 4.17383 18.9648 3.80273 18.8945C3.44043 18.8164 3.07812 18.6953 2.71582 18.5352C2.36328 18.3789 2.02246 18.1758 1.69629 17.9258C1.36914 17.6719 1.07812 17.3672 0.821289 17.0117C0.574219 16.6523 0.375 16.2344 0.225586 15.7656C0.0751953 15.2891 0 14.7539 0 14.1641L0 4.83594C0 4.51953 0.0351562 4.17969 0.106445 3.81641C0.185547 3.44531 0.304688 3.08203 0.463867 2.73047C0.623047 2.36719 0.830078 2.02344 1.08691 1.69531C1.34277 1.36719 1.64746 1.08203 2.00098 0.835938C2.36328 0.578125 2.77832 0.375 3.24609 0.226562C3.71387 0.0742188 4.24414 0 4.83594 0L17.2646 0L17.2646 3.44531L4.83594 3.44531C4.38574 3.44531 4.04102 3.5625 3.80273 3.80078C3.56445 4.04297 3.44531 4.39453 3.44531 4.86328L3.44531 14.1641C3.44531 14.6055 3.56445 14.9492 3.80273 15.1992C4.0498 15.4375 4.39453 15.5547 4.83594 15.5547L17.2646 15.5547L17.2646 19Z" fill="#FD2436" fill-opacity="1.000000" fill-rule="nonzero"/>
	<path id="Vector" d="M41.0029 6.38672C41.0029 7.17188 40.9053 7.875 40.7109 8.49219C40.5176 9.11328 40.252 9.66016 39.916 10.1367C39.5898 10.6055 39.21 11.0078 38.7773 11.3398C38.3438 11.6758 37.8896 11.957 37.4121 12.1758C36.9443 12.3867 36.4668 12.543 35.9814 12.6406C35.5039 12.7383 35.0537 12.7852 34.6299 12.7852L41.8242 19L36.498 19L29.3164 12.7852L26.8389 12.7852L26.8389 9.33984L34.6299 9.33984C35.0625 9.30469 35.4561 9.21875 35.8086 9.07422C36.1709 8.92578 36.4805 8.72656 36.7363 8.48047C37.002 8.23438 37.2051 7.9375 37.3457 7.59375C37.4873 7.23828 37.5576 6.83594 37.5576 6.38672L37.5576 4.21484C37.5576 4.01953 37.5312 3.875 37.4785 3.77734C37.4346 3.67188 37.3721 3.59375 37.293 3.55078C37.2227 3.49609 37.1426 3.46875 37.0547 3.45703C36.9746 3.44922 36.9004 3.44531 36.8291 3.44531L25.4609 3.44531L25.4609 19L22.0166 19L22.0166 1.73438C22.0166 1.49609 22.0605 1.27344 22.1484 1.05859C22.2373 0.847656 22.3564 0.664062 22.5068 0.503906C22.665 0.34375 22.8506 0.222656 23.0625 0.132812C23.2744 0.0429688 23.5049 0 23.752 0L36.8291 0C37.5977 0 38.2471 0.140625 38.7773 0.425781C39.3066 0.699219 39.7354 1.04688 40.0625 1.47266C40.3975 1.88672 40.6367 2.33594 40.7773 2.82031C40.9277 3.30859 41.0029 3.76172 41.0029 4.1875L41.0029 6.38672Z" fill="#FD2436" fill-opacity="1.000000" fill-rule="nonzero"/>
	<path id="Vector" d="M64.5957 19L61.1504 19L61.1504 14.3359L49.041 14.3359L49.041 19L45.5957 19L45.5957 9.5C45.5957 8.11328 45.834 6.83594 46.3115 5.67188C46.7881 4.50391 47.4512 3.50391 48.2988 2.66406C49.1465 1.82422 50.1494 1.17188 51.3066 0.703125C52.4639 0.234375 53.7266 0 55.0957 0L62.8604 0C63.0986 0 63.3242 0.0429688 63.5361 0.132812C63.748 0.222656 63.9336 0.34375 64.0918 0.503906C64.251 0.664062 64.375 0.847656 64.4629 1.05859C64.5518 1.27344 64.5957 1.49609 64.5957 1.73438L64.5957 19ZM49.041 10.8906L61.1504 10.8906L61.1504 3.44531L55.0957 3.44531C54.9902 3.44531 54.7646 3.46094 54.4199 3.49609C54.084 3.52344 53.6914 3.59766 53.2412 3.72266C52.7988 3.84766 52.3311 4.03516 51.8359 4.29297C51.3418 4.55078 50.8867 4.90234 50.4717 5.35156C50.0566 5.80469 49.7119 6.36719 49.4385 7.04688C49.1729 7.71875 49.041 8.53906 49.041 9.5L49.041 10.8906Z" fill="#FD2436" fill-opacity="1.000000" fill-rule="nonzero"/>
	<path id="Vector" d="M85.8174 11.2344L74.9258 11.2344L74.9258 7.76562L85.8174 7.76562L85.8174 11.2344ZM87.3535 3.44531L73.5479 3.44531L73.5479 19L70.1025 19L70.1025 1.73438C70.1025 1.49609 70.1475 1.27344 70.2354 1.05859C70.3232 0.847656 70.4434 0.664062 70.5928 0.503906C70.752 0.34375 70.9375 0.222656 71.1494 0.132812C71.3613 0.0429688 71.5908 0 71.8389 0L87.3535 0L87.3535 3.44531Z" fill="#FD2436" fill-opacity="1.000000" fill-rule="nonzero"/>
	<path id="Vector" d="M108.801 3.44531L101.208 3.44531L101.208 19L97.7637 19L97.7637 3.44531L90.1582 3.44531L90.1582 0L108.801 0L108.801 3.44531Z" fill="#FD2436" fill-opacity="1.000000" fill-rule="nonzero"/>
</svg>
